<svg width="666" height="212" viewBox="0 0 666 212" fill="none" xmlns="http://www.w3.org/2000/svg">
<rect width="666" height="211.149" rx="41.4359" fill="#0066FF" fill-opacity="0.02"/>
<rect x="1.0359" y="1.0359" width="663.928" height="209.077" rx="40.4" stroke="#0066FF" stroke-opacity="0.1" stroke-width="2.07179"/>
<rect x="16.5745" y="16.5745" width="632.851" height="178" rx="24.8615" fill="white"/>
<rect x="17.6104" y="17.6104" width="630.779" height="175.928" rx="23.8256" stroke="#0066FF" stroke-opacity="0.1" stroke-width="2.07179"/>
<g opacity="0.6">
<g filter="url(#filter0_d_54_64)">
<path d="M86.5532 92.8925L86.5409 92.8917L86.5285 92.8912C80.034 92.6387 73.3897 95.0876 68.8167 99.8136C66.9478 101.594 65.4248 103.719 64.3393 106.074L64.0338 106.737L64.6159 107.178C65.6675 107.973 66.7308 108.81 67.8014 109.652C69.256 110.795 70.724 111.95 72.1943 113.027L73.0894 113.683L73.5544 112.676C73.6986 112.363 73.8252 112.069 73.9461 111.788C74.1952 111.21 74.4204 110.687 74.7274 110.17L74.7274 110.17L74.7305 110.165C76.0749 107.869 78.0806 106.05 80.501 104.933L80.5139 104.927L80.5266 104.92C82.5989 103.884 85.0679 103.758 87.5088 104.036C89.7151 104.339 91.7825 105.471 93.4706 107.013L94.0793 107.57L94.691 107.017C95.4478 106.333 96.1879 105.581 96.9039 104.854C97.2888 104.463 97.6668 104.079 98.0366 103.717L98.0465 103.707L98.0561 103.697C98.4179 103.32 98.8172 102.929 99.2274 102.527C99.9289 101.839 100.662 101.12 101.296 100.388L101.815 99.7875L101.289 99.1929C100.175 97.9336 98.7664 97.0105 97.4632 96.1932L97.463 96.1931C94.1639 94.1253 90.3361 93.1431 86.5532 92.8925Z" fill="white" stroke="#E1EDFF" stroke-width="1.81468"/>
<path d="M65.7326 105.709L64.9141 105.089L64.3999 105.978C63.3564 107.78 62.8215 109.777 62.3389 111.599L62.3317 111.626L62.3262 111.653C61.9126 113.721 61.7751 115.831 61.8893 117.916C62.0283 121.119 62.8581 124.276 64.3099 127.133L64.7182 127.937L65.5246 127.534C66.1665 127.213 66.7489 126.823 67.2932 126.397L67.2933 126.397L67.3008 126.391C68.4587 125.464 69.6194 124.562 70.7836 123.658C71.6253 123.004 72.4688 122.349 73.3144 121.682L73.739 121.347L73.6463 120.814C73.5723 120.388 73.4754 119.958 73.3841 119.553C73.3604 119.448 73.3371 119.345 73.3147 119.243C73.2025 118.737 73.1069 118.264 73.0572 117.798L73.0535 117.762L73.047 117.728C72.7896 116.344 73.0877 114.991 73.4258 113.458C73.4975 113.132 73.5709 112.799 73.6413 112.456L73.7573 111.889L73.2928 111.545C71.8598 110.482 70.4981 109.414 69.1254 108.337C68.016 107.467 66.8996 106.591 65.7326 105.709Z" fill="white" stroke="#E1EDFF" stroke-width="1.81468"/>
<path d="M85.6744 111.543H85.013L84.8106 112.173C84.6687 112.614 84.6454 113.039 84.6454 113.391C84.6454 113.58 84.6499 113.719 84.654 113.843C84.659 113.996 84.6632 114.126 84.657 114.299L84.6561 114.324L84.6566 114.349C84.6737 115.236 84.6663 116.17 84.6587 117.119C84.6476 118.513 84.6363 119.939 84.7018 121.3L84.7426 122.149L85.5926 122.164C87.5488 122.197 89.5035 122.192 91.4478 122.186L91.452 122.186C93.0449 122.182 94.6308 122.177 96.2145 122.194C95.7126 124.229 94.3664 126.075 92.6333 127.366L91.6598 128.091L92.6309 128.82C93.7486 129.658 94.8441 130.519 95.9491 131.388C96.0591 131.475 96.1692 131.561 96.2793 131.648C97.4934 132.602 98.7208 133.562 99.9842 134.489L100.458 134.837L100.969 134.548C101.708 134.129 102.269 133.452 102.686 132.949C102.744 132.879 102.799 132.813 102.851 132.751L102.852 132.75C107.569 127.154 109.091 119.362 107.672 112.337L107.549 111.725L106.932 111.622C106.242 111.507 105.522 111.522 104.909 111.535C104.726 111.539 104.553 111.543 104.393 111.543H104.357H104.32H104.284H104.247H104.211H104.174H104.137H104.101H104.064H104.028H103.991H103.955H103.918H103.882H103.845H103.808H103.772H103.735H103.699H103.662H103.626H103.589H103.553H103.516H103.479H103.443H103.406H103.37H103.333H103.297H103.26H103.223H103.187H103.15H103.114H103.077H103.041H103.004H102.968H102.931H102.894H102.858H102.821H102.785H102.748H102.712H102.675H102.639H102.602H102.565H102.529H102.492H102.456H102.419H102.383H102.346H102.309H102.273H102.236H102.2H102.163H102.127H102.09H102.054H102.017H101.98H101.944H101.907H101.871H101.834H101.798H101.761H101.724H101.688H101.651H101.615H101.578H101.542H101.505H101.469H101.432H101.395H101.359H101.322H101.286H101.249H101.213H101.176H101.14H101.103H101.066H101.03H100.993H100.957H100.92H100.884H100.847H100.81H100.774H100.737H100.701H100.664H100.628H100.591H100.555H100.518H100.481H100.445H100.408H100.372H100.335H100.299H100.262H100.226H100.189H100.152H100.116H100.079H100.043H100.006H99.9696H99.933H99.8965H99.8599H99.8233H99.7868H99.7502H99.7137H99.6771H99.6405H99.604H99.5674H99.5309H99.4943H99.4577H99.4212H99.3846H99.3481H99.3115H99.2749H99.2384H99.2018H99.1653H99.1287H99.0921H99.0556H99.019H98.9825H98.9459H98.9093H98.8728H98.8362H98.7997H98.7631H98.7265H98.69H98.6534H98.6168H98.5803H98.5437H98.5072H98.4706H98.434H98.3975H98.3609H98.3244H98.2878H98.2512H98.2147H98.1781H98.1416H98.105H98.0684H98.0319H97.9953H97.9588H97.9222H97.8856H97.8491H97.8125H97.776H97.7394H97.7028H97.6663H97.6297H97.5932H97.5566H97.52H97.4835H97.4469H97.4104H97.3738H97.3372H97.3007H97.2641H97.2276H97.191H97.1544H97.1179H97.0813H97.0447H97.0082H96.9716H96.9351H96.8985H96.8619H96.8254H96.7888H96.7523H96.7157H96.6791H96.6426H96.606H96.5695H96.5329H96.4963H96.4598H96.4232H96.3867H96.3501H96.3135H96.277H96.2404H96.2039H96.1673H96.1307H96.0942H96.0576H96.0211H95.9845H95.9479H95.9114H95.8748H95.8383H95.8017H95.7651H95.7286H95.692H95.6554H95.6189H95.5823H95.5458H95.5092H95.4726H95.4361H95.3995H95.363H95.3264H95.2898H95.2533H95.2167H95.1802H95.1436H95.107H95.0705H95.0339H94.9974H94.9608H94.9242H94.8877H94.8511H94.8146H94.778H94.7414H94.7049H94.6683H94.6318H94.5952H94.5586H94.5221H94.4855H94.449H94.4124H94.3758H94.3393H94.3027H94.2661H94.2296H94.193H94.1565H94.1199H94.0833H94.0468H94.0102H93.9737H93.9371H93.9005H93.864H93.8274H93.7909H93.7543H93.7177H93.6812H93.6446H93.6081H93.5715H93.5349H93.4984H93.4618H93.4253H93.3887H93.3521H93.3156H93.279H93.2425H93.2059H93.1693H93.1328H93.0962H93.0597H93.0231H92.9865H92.95H92.9134H92.8768H92.8403H92.8037H92.7672H92.7306H92.694H92.6575H92.6209H92.5844H92.5478H92.5112H92.4747H92.4381H92.4016H92.365H92.3284H92.2919H92.2553H92.2188H92.1822H92.1456H92.1091H92.0725H92.036H91.9994H91.9628H91.9263H91.8897H91.8532H91.8166H91.78H91.7435H91.7069H91.6704H91.6338H91.5972H91.5607H91.5241H91.4875H91.451H91.4144H91.3779H91.3413H91.3047H91.2682H91.2316H91.1951H91.1585H91.1219H91.0854H91.0488H91.0123H90.9757H90.9391H90.9026H90.866H90.8295H90.7929H90.7563H90.7198H90.6832H90.6467H90.6101H90.5735H90.537H90.5004H90.4639H90.4273H90.3907H90.3542H90.3176H90.2811H90.2445H90.2079H90.1714H90.1348H90.0983H90.0617H90.0251H89.9886H89.952H89.9154H89.8789H89.8423H89.8058H89.7692H89.7326H89.6961H89.6595H89.623H89.5864H89.5498H89.5133H89.4767H89.4402H89.4036H89.367H89.3305H89.2939H89.2574H89.2208H89.1842H89.1477H89.1111H89.0746H89.038H89.0014H88.9649H88.9283H88.8918H88.8552H88.8186H88.7821H88.7455H88.709H88.6724H88.6358H88.5993H88.5627H88.5261H88.4896H88.453H88.4165H88.3799H88.3433H88.3068H88.2702H88.2337H88.1971H88.1605H88.124H88.0874H88.0509H88.0143H87.9777H87.9412H87.9046H87.8681H87.8315H87.7949H87.7584H87.7218H87.6853H87.6487H87.6121H87.5756H87.539H87.5025H87.4659H87.4293H87.3928H87.3562H87.3197H87.2831H87.2465H87.21H87.1734H87.1368H87.1003H87.0637H87.0272H86.9906H86.954H86.9175H86.8809H86.8444H86.8078H86.7712H86.7347H86.6981H86.6616H86.625H86.5884H86.5519H86.5153H86.4788H86.4422H86.4056H86.3691H86.3325H86.296H86.2594H86.2228H86.1863H86.1497H86.1132H86.0766H86.04H86.0035H85.9669H85.9304H85.8938H85.8572H85.8207H85.7841H85.7476H85.711H85.6744Z" fill="white" stroke="#E1EDFF" stroke-width="1.81468"/>
<path d="M73.5517 120.562L73.04 119.609L72.1902 120.279C71.3704 120.926 70.5332 121.576 69.6916 122.23C68.5146 123.145 67.3291 124.066 66.1708 124.993C65.6992 125.361 65.2249 125.675 64.7028 125.927L63.8772 126.324L64.2828 127.146C66.0782 130.783 68.7926 133.887 72.1476 136.186C76.0535 138.912 80.7687 140.238 85.4572 140.33L85.4772 140.33L85.4972 140.33C90.099 140.216 94.8958 139.151 98.8071 136.382C98.8756 136.334 98.9459 136.286 99.0175 136.237C99.7309 135.745 100.58 135.161 101.217 134.335L101.788 133.595L101.032 133.046C99.7975 132.15 98.593 131.209 97.3791 130.252C97.2303 130.135 97.0812 130.017 96.932 129.899C95.8682 129.06 94.7934 128.212 93.6972 127.39L93.2272 127.038L92.7133 127.322C91.4756 128.007 90.3071 128.616 89.0621 128.939C86.8881 129.455 84.604 129.458 82.3953 128.983C79.2674 128.112 76.5894 126.07 74.898 123.306L74.8888 123.291L74.879 123.276C74.6374 122.914 74.4421 122.504 74.2348 122.035C74.198 121.952 74.1604 121.865 74.1219 121.777C73.9533 121.391 73.7673 120.964 73.5517 120.562Z" fill="white" stroke="#E1EDFF" stroke-width="1.81468"/>
</g>
<g filter="url(#filter1_d_54_64)">
<path d="M169.178 92.8925L169.166 92.8917L169.154 92.8912C162.659 92.6387 156.015 95.0876 151.442 99.8136C149.573 101.594 148.05 103.719 146.965 106.074L146.659 106.737L147.241 107.178C148.293 107.973 149.356 108.81 150.427 109.652C151.881 110.795 153.349 111.95 154.82 113.027L155.715 113.683L156.18 112.676C156.324 112.363 156.45 112.069 156.571 111.788C156.82 111.21 157.046 110.687 157.353 110.17L157.353 110.17L157.356 110.165C158.7 107.869 160.706 106.05 163.126 104.933L163.139 104.927L163.152 104.92C165.224 103.884 167.693 103.758 170.134 104.036C172.34 104.339 174.408 105.471 176.096 107.013L176.705 107.57L177.316 107.017C178.073 106.333 178.813 105.581 179.529 104.854C179.914 104.463 180.292 104.079 180.662 103.717L180.672 103.707L180.681 103.697C181.043 103.32 181.442 102.929 181.853 102.527C182.554 101.839 183.288 101.12 183.921 100.388L184.441 99.7875L183.915 99.1929C182.801 97.9336 181.392 97.0105 180.088 96.1932L180.088 96.1931C176.789 94.1253 172.961 93.1431 169.178 92.8925Z" fill="white" stroke="#E1EDFF" stroke-width="1.81468"/>
<path d="M148.358 105.709L147.539 105.089L147.025 105.978C145.982 107.78 145.447 109.777 144.964 111.599L144.957 111.626L144.951 111.653C144.538 113.721 144.4 115.831 144.514 117.916C144.654 121.119 145.483 124.276 146.935 127.133L147.343 127.937L148.15 127.534C148.792 127.213 149.374 126.823 149.918 126.397L149.918 126.397L149.926 126.391C151.084 125.464 152.245 124.562 153.409 123.658C154.251 123.004 155.094 122.349 155.94 121.682L156.364 121.347L156.272 120.814C156.198 120.388 156.101 119.958 156.009 119.553C155.986 119.448 155.962 119.345 155.94 119.243C155.828 118.737 155.732 118.264 155.682 117.798L155.679 117.762L155.672 117.728C155.415 116.344 155.713 114.991 156.051 113.458C156.123 113.132 156.196 112.799 156.267 112.456L156.383 111.889L155.918 111.545C154.485 110.482 153.123 109.414 151.751 108.337C150.641 107.467 149.525 106.591 148.358 105.709Z" fill="white" stroke="#E1EDFF" stroke-width="1.81468"/>
<path d="M168.3 111.543H167.638L167.436 112.173C167.294 112.614 167.271 113.039 167.271 113.391C167.271 113.58 167.275 113.719 167.279 113.843C167.284 113.996 167.288 114.126 167.282 114.299L167.281 114.324L167.282 114.349C167.299 115.236 167.292 116.17 167.284 117.119C167.273 118.513 167.262 119.939 167.327 121.3L167.368 122.149L168.218 122.164C170.174 122.197 172.129 122.192 174.073 122.186L174.077 122.186C175.67 122.182 177.256 122.177 178.84 122.194C178.338 124.229 176.992 126.075 175.259 127.366L174.285 128.091L175.256 128.82C176.374 129.658 177.469 130.519 178.574 131.388C178.684 131.475 178.794 131.561 178.905 131.648C180.119 132.602 181.346 133.562 182.609 134.489L183.083 134.837L183.594 134.548C184.333 134.129 184.894 133.452 185.311 132.949C185.369 132.879 185.424 132.813 185.477 132.751L185.478 132.75C190.194 127.154 191.716 119.362 190.298 112.337L190.174 111.725L189.557 111.622C188.868 111.507 188.147 111.522 187.534 111.535C187.352 111.539 187.178 111.543 187.019 111.543H186.982H186.946H186.909H186.872H186.836H186.799H186.763H186.726H186.69H186.653H186.616H186.58H186.543H186.507H186.47H186.434H186.397H186.361H186.324H186.287H186.251H186.214H186.178H186.141H186.105H186.068H186.032H185.995H185.958H185.922H185.885H185.849H185.812H185.776H185.739H185.702H185.666H185.629H185.593H185.556H185.52H185.483H185.447H185.41H185.373H185.337H185.3H185.264H185.227H185.191H185.154H185.118H185.081H185.044H185.008H184.971H184.935H184.898H184.862H184.825H184.788H184.752H184.715H184.679H184.642H184.606H184.569H184.533H184.496H184.459H184.423H184.386H184.35H184.313H184.277H184.24H184.203H184.167H184.13H184.094H184.057H184.021H183.984H183.948H183.911H183.874H183.838H183.801H183.765H183.728H183.692H183.655H183.619H183.582H183.545H183.509H183.472H183.436H183.399H183.363H183.326H183.289H183.253H183.216H183.18H183.143H183.107H183.07H183.034H182.997H182.96H182.924H182.887H182.851H182.814H182.778H182.741H182.705H182.668H182.631H182.595H182.558H182.522H182.485H182.449H182.412H182.375H182.339H182.302H182.266H182.229H182.193H182.156H182.12H182.083H182.046H182.01H181.973H181.937H181.9H181.864H181.827H181.791H181.754H181.717H181.681H181.644H181.608H181.571H181.535H181.498H181.461H181.425H181.388H181.352H181.315H181.279H181.242H181.206H181.169H181.132H181.096H181.059H181.023H180.986H180.95H180.913H180.876H180.84H180.803H180.767H180.73H180.694H180.657H180.621H180.584H180.547H180.511H180.474H180.438H180.401H180.365H180.328H180.292H180.255H180.218H180.182H180.145H180.109H180.072H180.036H179.999H179.962H179.926H179.889H179.853H179.816H179.78H179.743H179.707H179.67H179.633H179.597H179.56H179.524H179.487H179.451H179.414H179.378H179.341H179.304H179.268H179.231H179.195H179.158H179.122H179.085H179.048H179.012H178.975H178.939H178.902H178.866H178.829H178.793H178.756H178.719H178.683H178.646H178.61H178.573H178.537H178.5H178.463H178.427H178.39H178.354H178.317H178.281H178.244H178.208H178.171H178.134H178.098H178.061H178.025H177.988H177.952H177.915H177.879H177.842H177.805H177.769H177.732H177.696H177.659H177.623H177.586H177.549H177.513H177.476H177.44H177.403H177.367H177.33H177.294H177.257H177.22H177.184H177.147H177.111H177.074H177.038H177.001H176.965H176.928H176.891H176.855H176.818H176.782H176.745H176.709H176.672H176.635H176.599H176.562H176.526H176.489H176.453H176.416H176.38H176.343H176.306H176.27H176.233H176.197H176.16H176.124H176.087H176.051H176.014H175.977H175.941H175.904H175.868H175.831H175.795H175.758H175.721H175.685H175.648H175.612H175.575H175.539H175.502H175.466H175.429H175.392H175.356H175.319H175.283H175.246H175.21H175.173H175.136H175.1H175.063H175.027H174.99H174.954H174.917H174.881H174.844H174.807H174.771H174.734H174.698H174.661H174.625H174.588H174.552H174.515H174.478H174.442H174.405H174.369H174.332H174.296H174.259H174.222H174.186H174.149H174.113H174.076H174.04H174.003H173.967H173.93H173.893H173.857H173.82H173.784H173.747H173.711H173.674H173.638H173.601H173.564H173.528H173.491H173.455H173.418H173.382H173.345H173.308H173.272H173.235H173.199H173.162H173.126H173.089H173.053H173.016H172.979H172.943H172.906H172.87H172.833H172.797H172.76H172.723H172.687H172.65H172.614H172.577H172.541H172.504H172.468H172.431H172.394H172.358H172.321H172.285H172.248H172.212H172.175H172.139H172.102H172.065H172.029H171.992H171.956H171.919H171.883H171.846H171.809H171.773H171.736H171.7H171.663H171.627H171.59H171.554H171.517H171.48H171.444H171.407H171.371H171.334H171.298H171.261H171.225H171.188H171.151H171.115H171.078H171.042H171.005H170.969H170.932H170.895H170.859H170.822H170.786H170.749H170.713H170.676H170.64H170.603H170.566H170.53H170.493H170.457H170.42H170.384H170.347H170.311H170.274H170.237H170.201H170.164H170.128H170.091H170.055H170.018H169.981H169.945H169.908H169.872H169.835H169.799H169.762H169.726H169.689H169.652H169.616H169.579H169.543H169.506H169.47H169.433H169.396H169.36H169.323H169.287H169.25H169.214H169.177H169.141H169.104H169.067H169.031H168.994H168.958H168.921H168.885H168.848H168.812H168.775H168.738H168.702H168.665H168.629H168.592H168.556H168.519H168.482H168.446H168.409H168.373H168.336H168.3Z" fill="white" stroke="#E1EDFF" stroke-width="1.81468"/>
<path d="M156.177 120.562L155.665 119.609L154.815 120.279C153.995 120.926 153.158 121.576 152.317 122.23C151.14 123.145 149.954 124.066 148.796 124.993C148.324 125.361 147.85 125.675 147.328 125.927L146.502 126.324L146.908 127.146C148.703 130.783 151.418 133.887 154.773 136.186C158.679 138.912 163.394 140.238 168.082 140.33L168.102 140.33L168.122 140.33C172.724 140.216 177.521 139.151 181.432 136.382C181.501 136.334 181.571 136.286 181.643 136.237C182.356 135.745 183.205 135.161 183.842 134.335L184.413 133.595L183.657 133.046C182.422 132.15 181.218 131.209 180.004 130.252C179.855 130.135 179.706 130.017 179.557 129.899C178.493 129.06 177.418 128.212 176.322 127.39L175.852 127.038L175.338 127.322C174.101 128.007 172.932 128.616 171.687 128.939C169.513 129.455 167.229 129.458 165.02 128.983C161.892 128.112 159.214 126.07 157.523 123.306L157.514 123.291L157.504 123.276C157.262 122.914 157.067 122.504 156.86 122.035C156.823 121.952 156.785 121.865 156.747 121.777C156.578 121.391 156.392 120.964 156.177 120.562Z" fill="white" stroke="#E1EDFF" stroke-width="1.81468"/>
</g>
<g filter="url(#filter2_d_54_64)">
<path d="M251.804 92.8925L251.791 92.8917L251.779 92.8912C245.284 92.6387 238.64 95.0876 234.067 99.8136C232.198 101.594 230.675 103.719 229.59 106.074L229.284 106.737L229.866 107.178C230.918 107.973 231.981 108.81 233.052 109.652C234.506 110.795 235.974 111.95 237.445 113.027L238.34 113.683L238.805 112.676C238.949 112.363 239.076 112.069 239.197 111.788C239.446 111.21 239.671 110.687 239.978 110.17L239.978 110.17L239.981 110.165C241.325 107.869 243.331 106.05 245.752 104.933L245.764 104.927L245.777 104.92C247.849 103.884 250.318 103.758 252.759 104.036C254.966 104.339 257.033 105.471 258.721 107.013L259.33 107.57L259.941 107.017C260.698 106.333 261.438 105.581 262.154 104.854C262.539 104.463 262.917 104.079 263.287 103.717L263.297 103.707L263.307 103.697C263.668 103.32 264.068 102.929 264.478 102.527C265.179 101.839 265.913 101.12 266.546 100.388L267.066 99.7875L266.54 99.1929C265.426 97.9336 264.017 97.0105 262.714 96.1932L262.714 96.1931C259.414 94.1253 255.587 93.1431 251.804 92.8925Z" fill="white" stroke="#E1EDFF" stroke-width="1.81468"/>
<path d="M230.983 105.709L230.165 105.089L229.65 105.978C228.607 107.78 228.072 109.777 227.589 111.599L227.582 111.626L227.577 111.653C227.163 113.721 227.026 115.831 227.14 117.916C227.279 121.119 228.109 124.276 229.56 127.133L229.969 127.937L230.775 127.534C231.417 127.213 231.999 126.823 232.544 126.397L232.544 126.397L232.551 126.391C233.709 125.464 234.87 124.562 236.034 123.658C236.876 123.004 237.719 122.349 238.565 121.682L238.989 121.347L238.897 120.814C238.823 120.388 238.726 119.958 238.635 119.553C238.611 119.448 238.588 119.345 238.565 119.243C238.453 118.737 238.357 118.264 238.308 117.798L238.304 117.762L238.298 117.728C238.04 116.344 238.338 114.991 238.676 113.458C238.748 113.132 238.821 112.799 238.892 112.456L239.008 111.889L238.543 111.545C237.11 110.482 235.749 109.414 234.376 108.337C233.267 107.467 232.15 106.591 230.983 105.709Z" fill="white" stroke="#E1EDFF" stroke-width="1.81468"/>
<path d="M250.925 111.543H250.264L250.061 112.173C249.919 112.614 249.896 113.039 249.896 113.391C249.896 113.58 249.9 113.719 249.904 113.843C249.909 113.996 249.914 114.126 249.908 114.299L249.907 114.324L249.907 114.349C249.924 115.236 249.917 116.17 249.909 117.119C249.898 118.513 249.887 119.939 249.952 121.3L249.993 122.149L250.843 122.164C252.799 122.197 254.754 122.192 256.698 122.186L256.702 122.186C258.295 122.182 259.881 122.177 261.465 122.194C260.963 124.229 259.617 126.075 257.884 127.366L256.91 128.091L257.881 128.82C258.999 129.658 260.095 130.519 261.2 131.388C261.31 131.475 261.42 131.561 261.53 131.648C262.744 132.602 263.971 133.562 265.235 134.489L265.708 134.837L266.219 134.548C266.958 134.129 267.519 133.452 267.937 132.949C267.994 132.879 268.049 132.813 268.102 132.751L268.103 132.75C272.82 127.154 274.342 119.362 272.923 112.337L272.799 111.725L272.183 111.622C271.493 111.507 270.772 111.522 270.159 111.535C269.977 111.539 269.804 111.543 269.644 111.543H269.607H269.571H269.534H269.498H269.461H269.425H269.388H269.351H269.315H269.278H269.242H269.205H269.169H269.132H269.095H269.059H269.022H268.986H268.949H268.913H268.876H268.84H268.803H268.766H268.73H268.693H268.657H268.62H268.584H268.547H268.511H268.474H268.437H268.401H268.364H268.328H268.291H268.255H268.218H268.181H268.145H268.108H268.072H268.035H267.999H267.962H267.926H267.889H267.852H267.816H267.779H267.743H267.706H267.67H267.633H267.597H267.56H267.523H267.487H267.45H267.414H267.377H267.341H267.304H267.267H267.231H267.194H267.158H267.121H267.085H267.048H267.012H266.975H266.938H266.902H266.865H266.829H266.792H266.756H266.719H266.682H266.646H266.609H266.573H266.536H266.5H266.463H266.427H266.39H266.353H266.317H266.28H266.244H266.207H266.171H266.134H266.098H266.061H266.024H265.988H265.951H265.915H265.878H265.842H265.805H265.768H265.732H265.695H265.659H265.622H265.586H265.549H265.513H265.476H265.439H265.403H265.366H265.33H265.293H265.257H265.22H265.184H265.147H265.11H265.074H265.037H265.001H264.964H264.928H264.891H264.854H264.818H264.781H264.745H264.708H264.672H264.635H264.599H264.562H264.525H264.489H264.452H264.416H264.379H264.343H264.306H264.27H264.233H264.196H264.16H264.123H264.087H264.05H264.014H263.977H263.94H263.904H263.867H263.831H263.794H263.758H263.721H263.685H263.648H263.611H263.575H263.538H263.502H263.465H263.429H263.392H263.355H263.319H263.282H263.246H263.209H263.173H263.136H263.1H263.063H263.026H262.99H262.953H262.917H262.88H262.844H262.807H262.771H262.734H262.697H262.661H262.624H262.588H262.551H262.515H262.478H262.441H262.405H262.368H262.332H262.295H262.259H262.222H262.186H262.149H262.112H262.076H262.039H262.003H261.966H261.93H261.893H261.857H261.82H261.783H261.747H261.71H261.674H261.637H261.601H261.564H261.527H261.491H261.454H261.418H261.381H261.345H261.308H261.272H261.235H261.198H261.162H261.125H261.089H261.052H261.016H260.979H260.942H260.906H260.869H260.833H260.796H260.76H260.723H260.687H260.65H260.613H260.577H260.54H260.504H260.467H260.431H260.394H260.358H260.321H260.284H260.248H260.211H260.175H260.138H260.102H260.065H260.028H259.992H259.955H259.919H259.882H259.846H259.809H259.773H259.736H259.699H259.663H259.626H259.59H259.553H259.517H259.48H259.444H259.407H259.37H259.334H259.297H259.261H259.224H259.188H259.151H259.114H259.078H259.041H259.005H258.968H258.932H258.895H258.859H258.822H258.785H258.749H258.712H258.676H258.639H258.603H258.566H258.53H258.493H258.456H258.42H258.383H258.347H258.31H258.274H258.237H258.2H258.164H258.127H258.091H258.054H258.018H257.981H257.945H257.908H257.871H257.835H257.798H257.762H257.725H257.689H257.652H257.615H257.579H257.542H257.506H257.469H257.433H257.396H257.36H257.323H257.286H257.25H257.213H257.177H257.14H257.104H257.067H257.031H256.994H256.957H256.921H256.884H256.848H256.811H256.775H256.738H256.701H256.665H256.628H256.592H256.555H256.519H256.482H256.446H256.409H256.372H256.336H256.299H256.263H256.226H256.19H256.153H256.117H256.08H256.043H256.007H255.97H255.934H255.897H255.861H255.824H255.787H255.751H255.714H255.678H255.641H255.605H255.568H255.532H255.495H255.458H255.422H255.385H255.349H255.312H255.276H255.239H255.202H255.166H255.129H255.093H255.056H255.02H254.983H254.947H254.91H254.873H254.837H254.8H254.764H254.727H254.691H254.654H254.618H254.581H254.544H254.508H254.471H254.435H254.398H254.362H254.325H254.288H254.252H254.215H254.179H254.142H254.106H254.069H254.033H253.996H253.959H253.923H253.886H253.85H253.813H253.777H253.74H253.704H253.667H253.63H253.594H253.557H253.521H253.484H253.448H253.411H253.374H253.338H253.301H253.265H253.228H253.192H253.155H253.119H253.082H253.045H253.009H252.972H252.936H252.899H252.863H252.826H252.79H252.753H252.716H252.68H252.643H252.607H252.57H252.534H252.497H252.46H252.424H252.387H252.351H252.314H252.278H252.241H252.205H252.168H252.131H252.095H252.058H252.022H251.985H251.949H251.912H251.875H251.839H251.802H251.766H251.729H251.693H251.656H251.62H251.583H251.546H251.51H251.473H251.437H251.4H251.364H251.327H251.291H251.254H251.217H251.181H251.144H251.108H251.071H251.035H250.998H250.961H250.925Z" fill="white" stroke="#E1EDFF" stroke-width="1.81468"/>
<path d="M238.802 120.562L238.29 119.609L237.441 120.279C236.621 120.926 235.784 121.576 234.942 122.23C233.765 123.145 232.58 124.066 231.421 124.993C230.95 125.361 230.475 125.675 229.953 125.927L229.128 126.324L229.533 127.146C231.329 130.783 234.043 133.887 237.398 136.186C241.304 138.912 246.019 140.238 250.708 140.33L250.728 140.33L250.748 140.33C255.35 140.216 260.146 139.151 264.058 136.382C264.126 136.334 264.196 136.286 264.268 136.237C264.981 135.745 265.83 135.161 266.468 134.335L267.038 133.595L266.282 133.046C265.048 132.15 263.843 131.209 262.63 130.252C262.481 130.135 262.332 130.017 262.182 129.899C261.119 129.06 260.044 128.212 258.948 127.39L258.478 127.038L257.964 127.322C256.726 128.007 255.558 128.616 254.313 128.939C252.139 129.455 249.854 129.458 247.646 128.983C244.518 128.112 241.84 126.07 240.148 123.306L240.139 123.291L240.129 123.276C239.888 122.914 239.693 122.504 239.485 122.035C239.448 121.952 239.411 121.865 239.372 121.777C239.204 121.391 239.018 120.964 238.802 120.562Z" fill="white" stroke="#E1EDFF" stroke-width="1.81468"/>
</g>
<g filter="url(#filter3_d_54_64)">
<path d="M417.054 92.8925L417.042 92.8917L417.03 92.8912C410.535 92.6387 403.891 95.0876 399.318 99.8136C397.449 101.594 395.926 103.719 394.84 106.074L394.535 106.737L395.117 107.178C396.169 107.973 397.232 108.81 398.303 109.652C399.757 110.795 401.225 111.95 402.696 113.027L403.591 113.683L404.056 112.676C404.2 112.363 404.326 112.069 404.447 111.788C404.696 111.21 404.922 110.687 405.229 110.17L405.229 110.17L405.232 110.165C406.576 107.869 408.582 106.05 411.002 104.933L411.015 104.927L411.028 104.92C413.1 103.884 415.569 103.758 418.01 104.036C420.216 104.339 422.284 105.471 423.972 107.013L424.581 107.57L425.192 107.017C425.949 106.333 426.689 105.581 427.405 104.854C427.79 104.463 428.168 104.079 428.538 103.717L428.548 103.707L428.557 103.697C428.919 103.32 429.318 102.929 429.729 102.527C430.43 101.839 431.164 101.12 431.797 100.388L432.317 99.7875L431.791 99.1929C430.677 97.9336 429.268 97.0105 427.964 96.1932L427.964 96.1931C424.665 94.1253 420.837 93.1431 417.054 92.8925Z" fill="white" stroke="#E1EDFF" stroke-width="1.81468"/>
<path d="M396.234 105.709L395.415 105.089L394.901 105.978C393.858 107.78 393.323 109.777 392.84 111.599L392.833 111.626L392.827 111.653C392.414 113.721 392.276 115.831 392.39 117.916C392.53 121.119 393.359 124.276 394.811 127.133L395.219 127.937L396.026 127.534C396.668 127.213 397.25 126.823 397.794 126.397L397.794 126.397L397.802 126.391C398.96 125.464 400.121 124.562 401.285 123.658C402.127 123.004 402.97 122.349 403.816 121.682L404.24 121.347L404.148 120.814C404.074 120.388 403.977 119.958 403.885 119.553C403.862 119.448 403.838 119.345 403.816 119.243C403.704 118.737 403.608 118.264 403.558 117.798L403.555 117.762L403.548 117.728C403.291 116.344 403.589 114.991 403.927 113.458C403.999 113.132 404.072 112.799 404.143 112.456L404.259 111.889L403.794 111.545C402.361 110.482 400.999 109.414 399.627 108.337C398.517 107.467 397.401 106.591 396.234 105.709Z" fill="white" stroke="#E1EDFF" stroke-width="1.81468"/>
<path d="M416.176 111.543H415.514L415.312 112.173C415.17 112.614 415.147 113.039 415.147 113.391C415.147 113.58 415.151 113.719 415.155 113.843C415.16 113.996 415.164 114.126 415.158 114.299L415.157 114.324L415.158 114.349C415.175 115.236 415.167 116.17 415.16 117.119C415.149 118.513 415.138 119.939 415.203 121.3L415.244 122.149L416.094 122.164C418.05 122.197 420.005 122.192 421.949 122.186L421.953 122.186C423.546 122.182 425.132 122.177 426.716 122.194C426.214 124.229 424.868 126.075 423.134 127.366L422.161 128.091L423.132 128.82C424.25 129.658 425.345 130.519 426.45 131.388C426.56 131.475 426.67 131.561 426.781 131.648C427.995 132.602 429.222 133.562 430.485 134.489L430.959 134.837L431.47 134.548C432.209 134.129 432.77 133.452 433.187 132.949C433.245 132.879 433.3 132.813 433.353 132.751L433.354 132.75C438.07 127.154 439.592 119.362 438.174 112.337L438.05 111.725L437.433 111.622C436.744 111.507 436.023 111.522 435.41 111.535C435.228 111.539 435.054 111.543 434.895 111.543H434.858H434.822H434.785H434.748H434.712H434.675H434.639H434.602H434.566H434.529H434.492H434.456H434.419H434.383H434.346H434.31H434.273H434.237H434.2H434.163H434.127H434.09H434.054H434.017H433.981H433.944H433.907H433.871H433.834H433.798H433.761H433.725H433.688H433.652H433.615H433.578H433.542H433.505H433.469H433.432H433.396H433.359H433.323H433.286H433.249H433.213H433.176H433.14H433.103H433.067H433.03H432.993H432.957H432.92H432.884H432.847H432.811H432.774H432.738H432.701H432.664H432.628H432.591H432.555H432.518H432.482H432.445H432.409H432.372H432.335H432.299H432.262H432.226H432.189H432.153H432.116H432.079H432.043H432.006H431.97H431.933H431.897H431.86H431.824H431.787H431.75H431.714H431.677H431.641H431.604H431.568H431.531H431.495H431.458H431.421H431.385H431.348H431.312H431.275H431.239H431.202H431.165H431.129H431.092H431.056H431.019H430.983H430.946H430.91H430.873H430.836H430.8H430.763H430.727H430.69H430.654H430.617H430.58H430.544H430.507H430.471H430.434H430.398H430.361H430.325H430.288H430.251H430.215H430.178H430.142H430.105H430.069H430.032H429.996H429.959H429.922H429.886H429.849H429.813H429.776H429.74H429.703H429.666H429.63H429.593H429.557H429.52H429.484H429.447H429.411H429.374H429.337H429.301H429.264H429.228H429.191H429.155H429.118H429.082H429.045H429.008H428.972H428.935H428.899H428.862H428.826H428.789H428.752H428.716H428.679H428.643H428.606H428.57H428.533H428.497H428.46H428.423H428.387H428.35H428.314H428.277H428.241H428.204H428.167H428.131H428.094H428.058H428.021H427.985H427.948H427.912H427.875H427.838H427.802H427.765H427.729H427.692H427.656H427.619H427.583H427.546H427.509H427.473H427.436H427.4H427.363H427.327H427.29H427.253H427.217H427.18H427.144H427.107H427.071H427.034H426.998H426.961H426.924H426.888H426.851H426.815H426.778H426.742H426.705H426.669H426.632H426.595H426.559H426.522H426.486H426.449H426.413H426.376H426.339H426.303H426.266H426.23H426.193H426.157H426.12H426.084H426.047H426.01H425.974H425.937H425.901H425.864H425.828H425.791H425.755H425.718H425.681H425.645H425.608H425.572H425.535H425.499H425.462H425.425H425.389H425.352H425.316H425.279H425.243H425.206H425.17H425.133H425.096H425.06H425.023H424.987H424.95H424.914H424.877H424.84H424.804H424.767H424.731H424.694H424.658H424.621H424.585H424.548H424.511H424.475H424.438H424.402H424.365H424.329H424.292H424.256H424.219H424.182H424.146H424.109H424.073H424.036H424H423.963H423.926H423.89H423.853H423.817H423.78H423.744H423.707H423.671H423.634H423.597H423.561H423.524H423.488H423.451H423.415H423.378H423.342H423.305H423.268H423.232H423.195H423.159H423.122H423.086H423.049H423.012H422.976H422.939H422.903H422.866H422.83H422.793H422.757H422.72H422.683H422.647H422.61H422.574H422.537H422.501H422.464H422.427H422.391H422.354H422.318H422.281H422.245H422.208H422.172H422.135H422.098H422.062H422.025H421.989H421.952H421.916H421.879H421.843H421.806H421.769H421.733H421.696H421.66H421.623H421.587H421.55H421.513H421.477H421.44H421.404H421.367H421.331H421.294H421.258H421.221H421.184H421.148H421.111H421.075H421.038H421.002H420.965H420.929H420.892H420.855H420.819H420.782H420.746H420.709H420.673H420.636H420.599H420.563H420.526H420.49H420.453H420.417H420.38H420.344H420.307H420.27H420.234H420.197H420.161H420.124H420.088H420.051H420.015H419.978H419.941H419.905H419.868H419.832H419.795H419.759H419.722H419.685H419.649H419.612H419.576H419.539H419.503H419.466H419.43H419.393H419.356H419.32H419.283H419.247H419.21H419.174H419.137H419.1H419.064H419.027H418.991H418.954H418.918H418.881H418.845H418.808H418.771H418.735H418.698H418.662H418.625H418.589H418.552H418.516H418.479H418.442H418.406H418.369H418.333H418.296H418.26H418.223H418.186H418.15H418.113H418.077H418.04H418.004H417.967H417.931H417.894H417.857H417.821H417.784H417.748H417.711H417.675H417.638H417.602H417.565H417.528H417.492H417.455H417.419H417.382H417.346H417.309H417.272H417.236H417.199H417.163H417.126H417.09H417.053H417.017H416.98H416.943H416.907H416.87H416.834H416.797H416.761H416.724H416.687H416.651H416.614H416.578H416.541H416.505H416.468H416.432H416.395H416.358H416.322H416.285H416.249H416.212H416.176Z" fill="white" stroke="#E1EDFF" stroke-width="1.81468"/>
<path d="M404.053 120.562L403.541 119.609L402.691 120.279C401.871 120.926 401.034 121.576 400.193 122.23C399.016 123.145 397.83 124.066 396.672 124.993C396.2 125.361 395.726 125.675 395.204 125.927L394.378 126.324L394.784 127.146C396.579 130.783 399.294 133.887 402.649 136.186C406.554 138.912 411.27 140.238 415.958 140.33L415.978 140.33L415.998 140.33C420.6 140.216 425.397 139.151 429.308 136.382C429.377 136.334 429.447 136.286 429.518 136.237C430.232 135.745 431.081 135.161 431.718 134.335L432.289 133.595L431.533 133.046C430.298 132.15 429.094 131.209 427.88 130.252C427.731 130.135 427.582 130.017 427.433 129.899C426.369 129.06 425.294 128.212 424.198 127.39L423.728 127.038L423.214 127.322C421.977 128.007 420.808 128.616 419.563 128.939C417.389 129.455 415.105 129.458 412.896 128.983C409.768 128.112 407.09 126.07 405.399 123.306L405.39 123.291L405.38 123.276C405.138 122.914 404.943 122.504 404.736 122.035C404.699 121.952 404.661 121.865 404.623 121.777C404.454 121.391 404.268 120.964 404.053 120.562Z" fill="white" stroke="#E1EDFF" stroke-width="1.81468"/>
</g>
<g filter="url(#filter4_d_54_64)">
<path d="M499.68 92.8925L499.667 92.8917L499.655 92.8912C493.16 92.6387 486.516 95.0876 481.943 99.8136C480.074 101.594 478.551 103.719 477.466 106.074L477.16 106.737L477.742 107.178C478.794 107.973 479.857 108.81 480.928 109.652C482.382 110.795 483.85 111.95 485.321 113.027L486.216 113.683L486.681 112.676C486.825 112.363 486.952 112.069 487.073 111.788C487.322 111.21 487.547 110.687 487.854 110.17L487.854 110.17L487.857 110.165C489.201 107.869 491.207 106.05 493.628 104.933L493.64 104.927L493.653 104.92C495.725 103.884 498.194 103.758 500.635 104.036C502.842 104.339 504.909 105.471 506.597 107.013L507.206 107.57L507.817 107.017C508.574 106.333 509.314 105.581 510.03 104.854C510.415 104.463 510.793 104.079 511.163 103.717L511.173 103.707L511.183 103.697C511.544 103.32 511.944 102.929 512.354 102.527C513.055 101.839 513.789 101.12 514.422 100.388L514.942 99.7875L514.416 99.1929C513.302 97.9336 511.893 97.0105 510.59 96.1932L510.589 96.1931C507.29 94.1253 503.463 93.1431 499.68 92.8925Z" fill="white" stroke="#E1EDFF" stroke-width="1.81468"/>
<path d="M478.859 105.709L478.04 105.089L477.526 105.978C476.483 107.78 475.948 109.777 475.465 111.599L475.458 111.626L475.452 111.653C475.039 113.721 474.901 115.831 475.015 117.916C475.155 121.119 475.984 124.276 477.436 127.133L477.844 127.937L478.651 127.534C479.293 127.213 479.875 126.823 480.419 126.397L480.419 126.397L480.427 126.391C481.585 125.464 482.746 124.562 483.91 123.658C484.752 123.004 485.595 122.349 486.441 121.682L486.865 121.347L486.773 120.814C486.699 120.388 486.602 119.958 486.51 119.553C486.487 119.448 486.463 119.345 486.441 119.243C486.329 118.737 486.233 118.264 486.183 117.798L486.18 117.762L486.173 117.728C485.916 116.344 486.214 114.991 486.552 113.458C486.624 113.132 486.697 112.799 486.768 112.456L486.884 111.889L486.419 111.545C484.986 110.482 483.624 109.414 482.252 108.337C481.142 107.467 480.026 106.591 478.859 105.709Z" fill="white" stroke="#E1EDFF" stroke-width="1.81468"/>
<path d="M498.801 111.543H498.139L497.937 112.173C497.795 112.614 497.772 113.039 497.772 113.391C497.772 113.58 497.776 113.719 497.78 113.843C497.785 113.996 497.79 114.126 497.784 114.299L497.783 114.324L497.783 114.349C497.8 115.236 497.793 116.17 497.785 117.119C497.774 118.513 497.763 119.939 497.828 121.3L497.869 122.149L498.719 122.164C500.675 122.197 502.63 122.192 504.574 122.186L504.578 122.186C506.171 122.182 507.757 122.177 509.341 122.194C508.839 124.229 507.493 126.075 505.76 127.366L504.786 128.091L505.757 128.82C506.875 129.658 507.971 130.519 509.076 131.388C509.186 131.475 509.296 131.561 509.406 131.648C510.62 132.602 511.847 133.562 513.111 134.489L513.584 134.837L514.095 134.548C514.834 134.129 515.395 133.452 515.813 132.949C515.87 132.879 515.925 132.813 515.978 132.751L515.979 132.75C520.696 127.154 522.218 119.362 520.799 112.337L520.675 111.725L520.059 111.622C519.369 111.507 518.648 111.522 518.035 111.535C517.853 111.539 517.68 111.543 517.52 111.543H517.483H517.447H517.41H517.374H517.337H517.301H517.264H517.227H517.191H517.154H517.118H517.081H517.045H517.008H516.971H516.935H516.898H516.862H516.825H516.789H516.752H516.716H516.679H516.642H516.606H516.569H516.533H516.496H516.46H516.423H516.386H516.35H516.313H516.277H516.24H516.204H516.167H516.131H516.094H516.057H516.021H515.984H515.948H515.911H515.875H515.838H515.802H515.765H515.728H515.692H515.655H515.619H515.582H515.546H515.509H515.472H515.436H515.399H515.363H515.326H515.29H515.253H515.217H515.18H515.143H515.107H515.07H515.034H514.997H514.961H514.924H514.888H514.851H514.814H514.778H514.741H514.705H514.668H514.632H514.595H514.558H514.522H514.485H514.449H514.412H514.376H514.339H514.303H514.266H514.229H514.193H514.156H514.12H514.083H514.047H514.01H513.974H513.937H513.9H513.864H513.827H513.791H513.754H513.718H513.681H513.644H513.608H513.571H513.535H513.498H513.462H513.425H513.389H513.352H513.315H513.279H513.242H513.206H513.169H513.133H513.096H513.059H513.023H512.986H512.95H512.913H512.877H512.84H512.804H512.767H512.73H512.694H512.657H512.621H512.584H512.548H512.511H512.475H512.438H512.401H512.365H512.328H512.292H512.255H512.219H512.182H512.145H512.109H512.072H512.036H511.999H511.963H511.926H511.89H511.853H511.816H511.78H511.743H511.707H511.67H511.634H511.597H511.561H511.524H511.487H511.451H511.414H511.378H511.341H511.305H511.268H511.231H511.195H511.158H511.122H511.085H511.049H511.012H510.976H510.939H510.902H510.866H510.829H510.793H510.756H510.72H510.683H510.646H510.61H510.573H510.537H510.5H510.464H510.427H510.391H510.354H510.317H510.281H510.244H510.208H510.171H510.135H510.098H510.062H510.025H509.988H509.952H509.915H509.879H509.842H509.806H509.769H509.732H509.696H509.659H509.623H509.586H509.55H509.513H509.477H509.44H509.403H509.367H509.33H509.294H509.257H509.221H509.184H509.148H509.111H509.074H509.038H509.001H508.965H508.928H508.892H508.855H508.818H508.782H508.745H508.709H508.672H508.636H508.599H508.563H508.526H508.489H508.453H508.416H508.38H508.343H508.307H508.27H508.234H508.197H508.16H508.124H508.087H508.051H508.014H507.978H507.941H507.904H507.868H507.831H507.795H507.758H507.722H507.685H507.649H507.612H507.575H507.539H507.502H507.466H507.429H507.393H507.356H507.319H507.283H507.246H507.21H507.173H507.137H507.1H507.064H507.027H506.99H506.954H506.917H506.881H506.844H506.808H506.771H506.735H506.698H506.661H506.625H506.588H506.552H506.515H506.479H506.442H506.405H506.369H506.332H506.296H506.259H506.223H506.186H506.15H506.113H506.076H506.04H506.003H505.967H505.93H505.894H505.857H505.821H505.784H505.747H505.711H505.674H505.638H505.601H505.565H505.528H505.491H505.455H505.418H505.382H505.345H505.309H505.272H505.236H505.199H505.162H505.126H505.089H505.053H505.016H504.98H504.943H504.906H504.87H504.833H504.797H504.76H504.724H504.687H504.651H504.614H504.577H504.541H504.504H504.468H504.431H504.395H504.358H504.322H504.285H504.248H504.212H504.175H504.139H504.102H504.066H504.029H503.992H503.956H503.919H503.883H503.846H503.81H503.773H503.737H503.7H503.663H503.627H503.59H503.554H503.517H503.481H503.444H503.408H503.371H503.334H503.298H503.261H503.225H503.188H503.152H503.115H503.078H503.042H503.005H502.969H502.932H502.896H502.859H502.823H502.786H502.749H502.713H502.676H502.64H502.603H502.567H502.53H502.494H502.457H502.42H502.384H502.347H502.311H502.274H502.238H502.201H502.164H502.128H502.091H502.055H502.018H501.982H501.945H501.909H501.872H501.835H501.799H501.762H501.726H501.689H501.653H501.616H501.579H501.543H501.506H501.47H501.433H501.397H501.36H501.324H501.287H501.25H501.214H501.177H501.141H501.104H501.068H501.031H500.995H500.958H500.921H500.885H500.848H500.812H500.775H500.739H500.702H500.665H500.629H500.592H500.556H500.519H500.483H500.446H500.41H500.373H500.336H500.3H500.263H500.227H500.19H500.154H500.117H500.081H500.044H500.007H499.971H499.934H499.898H499.861H499.825H499.788H499.751H499.715H499.678H499.642H499.605H499.569H499.532H499.496H499.459H499.422H499.386H499.349H499.313H499.276H499.24H499.203H499.166H499.13H499.093H499.057H499.02H498.984H498.947H498.911H498.874H498.837H498.801Z" fill="white" stroke="#E1EDFF" stroke-width="1.81468"/>
<path d="M486.678 120.562L486.166 119.609L485.316 120.279C484.497 120.926 483.659 121.576 482.818 122.23C481.641 123.145 480.455 124.066 479.297 124.993C478.825 125.361 478.351 125.675 477.829 125.927L477.003 126.324L477.409 127.146C479.204 130.783 481.919 133.887 485.274 136.186C489.18 138.912 493.895 140.238 498.583 140.33L498.603 140.33L498.623 140.33C503.225 140.216 508.022 139.151 511.933 136.382C512.002 136.334 512.072 136.286 512.144 136.237C512.857 135.745 513.706 135.161 514.343 134.335L514.914 133.595L514.158 133.046C512.924 132.15 511.719 131.209 510.505 130.252C510.356 130.135 510.207 130.017 510.058 129.899C508.994 129.06 507.92 128.212 506.823 127.39L506.353 127.038L505.84 127.322C504.602 128.007 503.433 128.616 502.188 128.939C500.014 129.455 497.73 129.458 495.522 128.983C492.394 128.112 489.716 126.07 488.024 123.306L488.015 123.291L488.005 123.276C487.764 122.914 487.568 122.504 487.361 122.035C487.324 121.952 487.287 121.865 487.248 121.777C487.08 121.391 486.894 120.964 486.678 120.562Z" fill="white" stroke="#E1EDFF" stroke-width="1.81468"/>
</g>
<g filter="url(#filter5_d_54_64)">
<path d="M582.305 92.8925L582.293 92.8917L582.28 92.8912C575.786 92.6387 569.141 95.0876 564.568 99.8136C562.7 101.594 561.176 103.719 560.091 106.074L559.786 106.737L560.368 107.178C561.419 107.973 562.483 108.81 563.553 109.652C565.008 110.795 566.476 111.95 567.946 113.027L568.841 113.683L569.306 112.676C569.45 112.363 569.577 112.069 569.698 111.788C569.947 111.21 570.172 110.687 570.479 110.17L570.479 110.17L570.482 110.165C571.827 107.869 573.832 106.05 576.253 104.933L576.266 104.927L576.278 104.92C578.351 103.884 580.82 103.758 583.261 104.036C585.467 104.339 587.534 105.471 589.222 107.013L589.831 107.57L590.443 107.017C591.199 106.333 591.94 105.581 592.656 104.854C593.041 104.463 593.419 104.079 593.788 103.717L593.798 103.707L593.808 103.697C594.17 103.32 594.569 102.929 594.979 102.527C595.681 101.839 596.414 101.12 597.048 100.388L597.567 99.7875L597.041 99.1929C595.927 97.9336 594.518 97.0105 593.215 96.1932L593.215 96.1931C589.916 94.1253 586.088 93.1431 582.305 92.8925Z" fill="white" stroke="#E1EDFF" stroke-width="1.81468"/>
<path d="M561.484 105.709L560.666 105.089L560.152 105.978C559.108 107.78 558.573 109.777 558.091 111.599L558.083 111.626L558.078 111.653C557.664 113.721 557.527 115.831 557.641 117.916C557.78 121.119 558.61 124.276 560.062 127.133L560.47 127.937L561.276 127.534C561.918 127.213 562.501 126.823 563.045 126.397L563.045 126.397L563.053 126.391C564.21 125.464 565.371 124.562 566.535 123.658C567.377 123.004 568.221 122.349 569.066 121.682L569.491 121.347L569.398 120.814C569.324 120.388 569.227 119.958 569.136 119.553C569.112 119.448 569.089 119.345 569.066 119.243C568.954 118.737 568.859 118.264 568.809 117.798L568.805 117.762L568.799 117.728C568.541 116.344 568.839 114.991 569.177 113.458C569.249 113.132 569.323 112.799 569.393 112.456L569.509 111.889L569.044 111.545C567.612 110.482 566.25 109.414 564.877 108.337C563.768 107.467 562.651 106.591 561.484 105.709Z" fill="white" stroke="#E1EDFF" stroke-width="1.81468"/>
<path d="M581.426 111.543H580.765L580.562 112.173C580.42 112.614 580.397 113.039 580.397 113.391C580.397 113.58 580.402 113.719 580.406 113.843C580.411 113.996 580.415 114.126 580.409 114.299L580.408 114.324L580.408 114.349C580.425 115.236 580.418 116.17 580.41 117.119C580.399 118.513 580.388 119.939 580.453 121.3L580.494 122.149L581.344 122.164C583.301 122.197 585.255 122.192 587.199 122.186L587.204 122.186C588.797 122.182 590.382 122.177 591.966 122.194C591.464 124.229 590.118 126.075 588.385 127.366L587.411 128.091L588.383 128.82C589.5 129.658 590.596 130.519 591.701 131.388C591.811 131.475 591.921 131.561 592.031 131.648C593.245 132.602 594.473 133.562 595.736 134.489L596.209 134.837L596.72 134.548C597.459 134.129 598.021 133.452 598.438 132.949C598.496 132.879 598.551 132.813 598.603 132.751L598.604 132.75C603.321 127.154 604.843 119.362 603.424 112.337L603.3 111.725L602.684 111.622C601.994 111.507 601.274 111.522 600.661 111.535C600.478 111.539 600.305 111.543 600.145 111.543H600.109H600.072H600.035H599.999H599.962H599.926H599.889H599.853H599.816H599.78H599.743H599.706H599.67H599.633H599.597H599.56H599.524H599.487H599.45H599.414H599.377H599.341H599.304H599.268H599.231H599.195H599.158H599.121H599.085H599.048H599.012H598.975H598.939H598.902H598.865H598.829H598.792H598.756H598.719H598.683H598.646H598.61H598.573H598.536H598.5H598.463H598.427H598.39H598.354H598.317H598.281H598.244H598.207H598.171H598.134H598.098H598.061H598.025H597.988H597.951H597.915H597.878H597.842H597.805H597.769H597.732H597.696H597.659H597.622H597.586H597.549H597.513H597.476H597.44H597.403H597.367H597.33H597.293H597.257H597.22H597.184H597.147H597.111H597.074H597.037H597.001H596.964H596.928H596.891H596.855H596.818H596.782H596.745H596.708H596.672H596.635H596.599H596.562H596.526H596.489H596.453H596.416H596.379H596.343H596.306H596.27H596.233H596.197H596.16H596.123H596.087H596.05H596.014H595.977H595.941H595.904H595.868H595.831H595.794H595.758H595.721H595.685H595.648H595.612H595.575H595.538H595.502H595.465H595.429H595.392H595.356H595.319H595.283H595.246H595.209H595.173H595.136H595.1H595.063H595.027H594.99H594.954H594.917H594.88H594.844H594.807H594.771H594.734H594.698H594.661H594.624H594.588H594.551H594.515H594.478H594.442H594.405H594.369H594.332H594.295H594.259H594.222H594.186H594.149H594.113H594.076H594.04H594.003H593.966H593.93H593.893H593.857H593.82H593.784H593.747H593.71H593.674H593.637H593.601H593.564H593.528H593.491H593.455H593.418H593.381H593.345H593.308H593.272H593.235H593.199H593.162H593.126H593.089H593.052H593.016H592.979H592.943H592.906H592.87H592.833H592.796H592.76H592.723H592.687H592.65H592.614H592.577H592.541H592.504H592.467H592.431H592.394H592.358H592.321H592.285H592.248H592.211H592.175H592.138H592.102H592.065H592.029H591.992H591.956H591.919H591.882H591.846H591.809H591.773H591.736H591.7H591.663H591.627H591.59H591.553H591.517H591.48H591.444H591.407H591.371H591.334H591.297H591.261H591.224H591.188H591.151H591.115H591.078H591.042H591.005H590.968H590.932H590.895H590.859H590.822H590.786H590.749H590.713H590.676H590.639H590.603H590.566H590.53H590.493H590.457H590.42H590.383H590.347H590.31H590.274H590.237H590.201H590.164H590.128H590.091H590.054H590.018H589.981H589.945H589.908H589.872H589.835H589.798H589.762H589.725H589.689H589.652H589.616H589.579H589.543H589.506H589.469H589.433H589.396H589.36H589.323H589.287H589.25H589.214H589.177H589.14H589.104H589.067H589.031H588.994H588.958H588.921H588.884H588.848H588.811H588.775H588.738H588.702H588.665H588.629H588.592H588.555H588.519H588.482H588.446H588.409H588.373H588.336H588.3H588.263H588.226H588.19H588.153H588.117H588.08H588.044H588.007H587.97H587.934H587.897H587.861H587.824H587.788H587.751H587.715H587.678H587.641H587.605H587.568H587.532H587.495H587.459H587.422H587.386H587.349H587.312H587.276H587.239H587.203H587.166H587.13H587.093H587.056H587.02H586.983H586.947H586.91H586.874H586.837H586.801H586.764H586.727H586.691H586.654H586.618H586.581H586.545H586.508H586.471H586.435H586.398H586.362H586.325H586.289H586.252H586.216H586.179H586.142H586.106H586.069H586.033H585.996H585.96H585.923H585.887H585.85H585.813H585.777H585.74H585.704H585.667H585.631H585.594H585.557H585.521H585.484H585.448H585.411H585.375H585.338H585.302H585.265H585.228H585.192H585.155H585.119H585.082H585.046H585.009H584.973H584.936H584.899H584.863H584.826H584.79H584.753H584.717H584.68H584.643H584.607H584.57H584.534H584.497H584.461H584.424H584.388H584.351H584.314H584.278H584.241H584.205H584.168H584.132H584.095H584.058H584.022H583.985H583.949H583.912H583.876H583.839H583.803H583.766H583.729H583.693H583.656H583.62H583.583H583.547H583.51H583.474H583.437H583.4H583.364H583.327H583.291H583.254H583.218H583.181H583.144H583.108H583.071H583.035H582.998H582.962H582.925H582.889H582.852H582.815H582.779H582.742H582.706H582.669H582.633H582.596H582.56H582.523H582.486H582.45H582.413H582.377H582.34H582.304H582.267H582.23H582.194H582.157H582.121H582.084H582.048H582.011H581.975H581.938H581.901H581.865H581.828H581.792H581.755H581.719H581.682H581.646H581.609H581.572H581.536H581.499H581.463H581.426Z" fill="white" stroke="#E1EDFF" stroke-width="1.81468"/>
<path d="M569.303 120.562L568.792 119.609L567.942 120.279C567.122 120.926 566.285 121.576 565.443 122.23C564.266 123.145 563.081 124.066 561.923 124.993C561.451 125.361 560.977 125.675 560.455 125.927L559.629 126.324L560.035 127.146C561.83 130.783 564.544 133.887 567.899 136.186C571.805 138.912 576.52 140.238 581.209 140.33L581.229 140.33L581.249 140.33C585.851 140.216 590.648 139.151 594.559 136.382C594.627 136.334 594.698 136.286 594.769 136.237C595.483 135.745 596.331 135.161 596.969 134.335L597.54 133.595L596.783 133.046C595.549 132.15 594.345 131.209 593.131 130.252C592.982 130.135 592.833 130.017 592.684 129.899C591.62 129.06 590.545 128.212 589.449 127.39L588.979 127.038L588.465 127.322C587.227 128.007 586.059 128.616 584.814 128.939C582.64 129.455 580.356 129.458 578.147 128.983C575.019 128.112 572.341 126.07 570.65 123.306L570.64 123.291L570.631 123.276C570.389 122.914 570.194 122.504 569.987 122.035C569.95 121.952 569.912 121.865 569.874 121.777C569.705 121.391 569.519 120.964 569.303 120.562Z" fill="white" stroke="#E1EDFF" stroke-width="1.81468"/>
</g>
</g>
<circle cx="41.4361" cy="41.4361" r="4.14359" fill="#F1C9C3"/>
<circle cx="58.0105" cy="41.4361" r="4.14359" fill="#F5E1B4"/>
<circle cx="74.5848" cy="41.4361" r="4.14359" fill="#CCE7C4"/>
<path d="M332.81 162.971H376.944C378.479 162.971 380.014 162.971 381.55 162.971C381.978 162.971 382.391 162.808 382.716 162.513C383.321 161.996 383.513 161.347 383.513 160.594C383.513 130.335 383.513 100.076 383.513 69.8164C383.513 69.2112 383.424 68.6061 383.409 68.0009C383.395 67.6023 383.188 67.2924 382.952 67.0119C382.465 66.451 381.815 66.3034 381.092 66.3034C348.929 66.3034 316.765 66.3034 284.602 66.3034C284.395 66.2886 284.203 66.3034 284.011 66.3329C283.569 66.4067 283.155 66.6134 282.831 66.9233C282.314 67.4252 282.181 68.0747 282.181 68.7537C282.181 86.5845 282.181 104.43 282.181 122.261C282.181 135.044 282.181 147.826 282.181 160.609C282.166 160.978 282.211 161.332 282.344 161.672C282.727 162.513 283.377 163 284.381 163C300.514 162.985 316.662 162.971 332.81 162.971Z" fill="white" stroke="#0066FF" stroke-opacity="0.1" stroke-width="0.590424" stroke-miterlimit="10"/>
<path d="M334.847 128.785C335.762 128.756 336.677 128.756 337.592 128.785C338.301 128.785 338.95 129.228 339.349 129.804C339.674 130.305 339.688 130.925 339.6 131.501C339.511 132.077 339.083 132.534 338.626 132.859C337.799 133.376 336.81 133.139 335.895 133.198C335.806 134.158 335.895 135.132 335.865 136.092C335.526 136.121 335.186 136.121 334.847 136.092C334.832 133.656 334.817 131.221 334.847 128.785ZM335.88 129.804C335.821 130.586 335.806 131.383 335.865 132.18C336.5 132.18 337.135 132.224 337.769 132.15C338.626 131.855 338.847 130.615 338.153 130.04C337.489 129.612 336.633 129.863 335.88 129.804ZM350.109 130.763C350.124 130.305 350.065 129.848 350.168 129.405C350.493 129.405 350.818 129.405 351.157 129.42C351.187 129.863 351.157 130.305 351.187 130.748C351.526 130.925 351.969 130.793 352.368 130.852C352.382 131.162 352.382 131.472 352.368 131.796C351.969 131.811 351.571 131.826 351.187 131.87C351.187 132.815 351.172 133.759 351.187 134.719C351.172 134.97 351.29 135.25 351.556 135.309C351.851 135.309 352.146 135.309 352.442 135.28C352.471 135.604 352.442 135.929 352.368 136.239C351.895 136.269 351.408 136.328 350.936 136.195C350.567 135.973 350.183 135.634 350.168 135.176C350.065 134.084 350.198 132.992 350.095 131.9C349.799 131.855 349.489 131.811 349.194 131.767C349.194 131.472 349.194 131.176 349.209 130.881C349.504 130.822 349.829 130.852 350.109 130.763ZM340.485 131.781C341.297 130.261 343.88 130.261 344.707 131.781C344.943 132.283 344.884 132.859 344.899 133.39C344.884 134.291 344.914 135.191 344.884 136.092C344.618 136.106 344.353 136.106 344.087 136.092C343.998 135.973 343.925 135.841 343.836 135.723C343.231 136.106 342.522 136.505 341.799 136.254C340.736 136.092 339.925 134.881 340.397 133.863C340.692 133.08 341.548 132.726 342.331 132.667C342.877 132.623 343.408 132.815 343.954 132.844C343.895 132.21 343.423 131.59 342.729 131.634C342.124 131.531 341.622 131.9 341.223 132.313C340.928 132.18 340.692 131.988 340.485 131.781ZM341.327 134.571C341.371 135.103 341.947 135.398 342.434 135.368C343.201 135.309 343.821 134.689 343.866 133.922C343.452 133.553 342.832 133.523 342.316 133.568C341.799 133.612 341.268 134.01 341.327 134.571ZM354.272 131.25C354.744 130.97 355.231 130.601 355.836 130.66C356.855 130.571 357.77 131.472 357.77 132.46C357.785 133.671 357.77 134.866 357.77 136.077C357.431 136.106 357.091 136.121 356.752 136.092C356.707 134.896 356.811 133.7 356.693 132.505C356.634 131.737 355.689 131.501 355.069 131.737C354.523 131.973 354.228 132.564 354.213 133.139C354.183 134.128 354.228 135.103 354.213 136.092C353.859 136.121 353.519 136.121 353.165 136.092C353.15 134.35 353.15 132.593 353.165 130.852C353.49 130.822 353.799 130.822 354.124 130.866C354.169 130.94 354.242 131.147 354.272 131.25ZM359.615 131.132C360.604 130.364 362.184 130.497 363.01 131.442C363.527 132.062 363.748 132.874 363.645 133.686C362.316 133.73 360.973 133.686 359.645 133.7C359.527 134.675 360.53 135.472 361.46 135.309C362.006 135.295 362.331 134.822 362.7 134.483C363.025 134.453 363.291 134.689 363.556 134.807C363.025 136.136 361.268 136.682 360.014 136.033C358.169 135.191 358.036 132.313 359.615 131.132ZM359.63 132.815C360.589 132.859 361.564 132.859 362.538 132.815C362.449 132.091 361.8 131.575 361.076 131.634C360.353 131.59 359.837 132.195 359.63 132.815ZM366.376 130.719C366.745 130.601 367.143 130.66 367.527 130.719C367.556 131.073 367.571 131.427 367.556 131.781C367.173 131.767 366.774 131.663 366.39 131.752C365.844 131.973 365.475 132.505 365.49 133.095C365.46 134.084 365.505 135.058 365.49 136.047C365.15 136.092 364.796 136.092 364.457 136.062C364.442 134.32 364.442 132.564 364.457 130.822C364.722 130.793 365.003 130.793 365.268 130.793C365.357 130.925 365.446 131.058 365.549 131.191C365.829 131.029 366.11 130.866 366.376 130.719ZM346.773 131.353C347.157 131.147 347.497 130.807 347.954 130.807C348.19 130.793 348.441 130.807 348.678 130.822C348.692 131.147 348.692 131.472 348.692 131.781C348.235 131.855 347.689 131.737 347.32 132.077C347.069 132.313 346.832 132.623 346.832 132.992C346.788 134.055 346.862 135.117 346.803 136.195C346.478 136.224 346.139 136.224 345.799 136.21C345.77 134.453 345.77 132.697 345.799 130.955C346.094 130.925 346.375 130.94 346.67 130.984C346.685 131.058 346.744 131.25 346.773 131.353Z" fill="#606469" stroke="#5F6368" stroke-width="0.0369015" stroke-miterlimit="10"/>
<g filter="url(#filter6_f_54_64)">
<path d="M322.537 94.3337C325.459 91.3078 329.725 89.7284 333.902 89.8908C336.353 90.0531 338.803 90.6879 340.899 92.0015C341.77 92.5477 342.641 93.1234 343.32 93.8909C342.655 94.6585 341.888 95.3374 341.179 96.0755C340.441 96.7987 339.733 97.5663 338.965 98.26C337.77 97.1678 336.279 96.3412 334.655 96.1198C332.972 95.9279 331.186 96.0017 329.651 96.7692C327.924 97.5663 326.492 98.8652 325.533 100.504C325.208 101.05 324.987 101.655 324.721 102.231C323.009 100.976 321.371 99.618 319.673 98.3338C320.367 96.8283 321.341 95.4703 322.537 94.3337Z" fill="#EA4335"/>
<path d="M319.688 98.3191C321.385 99.6033 323.024 100.946 324.736 102.216C324.485 103.441 324.101 104.696 324.337 105.965C324.411 106.659 324.618 107.338 324.736 108.017C323.407 109.065 322.049 110.098 320.721 111.161C320.381 111.427 320.027 111.663 319.643 111.855C318.714 110.024 318.182 108.002 318.094 105.95C318.02 104.607 318.108 103.249 318.374 101.921C318.699 100.696 319.038 99.4409 319.688 98.3191Z" fill="#FBBC04"/>
<path d="M333.356 102.334C337.519 102.334 341.681 102.334 345.844 102.334C346.375 102.334 346.906 102.29 347.438 102.378C348.353 106.91 347.364 111.914 344.353 115.486C344.028 115.87 343.703 116.298 343.26 116.549C341.593 115.323 340.013 114.01 338.36 112.77C339.806 111.692 340.914 110.054 341.105 108.238C338.508 108.194 335.91 108.253 333.312 108.209C333.238 106.674 333.312 105.124 333.282 103.589C333.297 103.175 333.223 102.747 333.356 102.334Z" fill="#4284F4"/>
<path d="M320.721 111.176C322.049 110.113 323.407 109.079 324.736 108.031C325.06 108.637 325.267 109.316 325.651 109.891C326.861 111.869 328.78 113.331 331.024 113.95C332.588 114.29 334.212 114.29 335.762 113.921C336.677 113.685 337.518 113.242 338.345 112.784C339.998 114.024 341.577 115.353 343.245 116.563C342.847 117.08 342.301 117.434 341.769 117.803C339.29 119.56 336.219 120.253 333.223 120.327C330.197 120.268 327.171 119.412 324.677 117.67C322.521 116.194 320.78 114.201 319.628 111.869C320.027 111.677 320.381 111.441 320.721 111.176Z" fill="#34A853"/>
</g>
<path d="M333.942 89.2868L333.934 89.2863L333.926 89.2859C329.593 89.1175 325.161 90.7512 322.11 93.9039C320.864 95.0913 319.847 96.509 319.123 98.0805L318.92 98.5228L319.308 98.8166C320.009 99.3473 320.719 99.9051 321.433 100.467C322.403 101.23 323.383 102 324.363 102.719L324.961 103.156L325.271 102.484C325.367 102.276 325.451 102.08 325.532 101.892C325.698 101.506 325.849 101.157 326.053 100.813L326.053 100.813L326.055 100.81C326.952 99.278 328.29 98.064 329.905 97.3188L329.914 97.3148L329.922 97.3106C331.304 96.6194 332.952 96.5354 334.58 96.7204C336.052 96.9228 337.431 97.6781 338.557 98.7069L338.963 99.0779L339.371 98.7091C339.876 98.2528 340.37 97.7514 340.847 97.2663C341.104 97.0056 341.356 96.7496 341.603 96.5078L341.61 96.5013L341.616 96.4947C341.857 96.2432 342.124 95.9821 342.397 95.7139C342.865 95.2551 343.355 94.7754 343.777 94.287L344.124 93.8865L343.773 93.4899C343.03 92.6497 342.09 92.0339 341.22 91.4888L341.22 91.4887C339.019 90.1093 336.466 89.454 333.942 89.2868Z" fill="#EA4335" stroke="#FF988F" stroke-width="1.21058"/>
<path d="M320.053 97.8364L319.507 97.4233L319.164 98.0158C318.468 99.2183 318.111 100.551 317.789 101.766L317.784 101.784L317.781 101.802C317.505 103.181 317.413 104.589 317.489 105.98C317.582 108.117 318.135 110.223 319.104 112.129L319.376 112.665L319.914 112.396C320.342 112.182 320.731 111.922 321.094 111.637L321.094 111.638L321.099 111.633C321.872 111.016 322.646 110.414 323.422 109.811C323.984 109.374 324.547 108.937 325.111 108.492L325.394 108.269L325.332 107.913C325.283 107.629 325.218 107.343 325.157 107.072C325.141 107.002 325.126 106.933 325.111 106.866C325.036 106.528 324.972 106.212 324.939 105.901L324.937 105.878L324.932 105.854C324.761 104.931 324.96 104.029 325.185 103.006C325.233 102.789 325.282 102.567 325.329 102.337L325.406 101.959L325.096 101.73C324.14 101.021 323.232 100.308 322.316 99.5901C321.576 99.0096 320.831 98.4253 320.053 97.8364Z" fill="#FBBC04" stroke="#FBDF8D" stroke-width="1.21058"/>
<path d="M333.356 101.729H332.915L332.78 102.149C332.685 102.443 332.67 102.727 332.67 102.961C332.67 103.088 332.673 103.181 332.675 103.263C332.679 103.365 332.681 103.452 332.677 103.567L332.677 103.584L332.677 103.6C332.688 104.193 332.684 104.816 332.679 105.449C332.671 106.378 332.664 107.33 332.707 108.238L332.734 108.804L333.301 108.814C334.606 108.836 335.91 108.833 337.207 108.829L337.21 108.829C338.273 108.826 339.331 108.823 340.387 108.834C340.053 110.192 339.154 111.423 337.998 112.284L337.349 112.768L337.997 113.254C338.742 113.813 339.473 114.388 340.21 114.967C340.284 115.025 340.357 115.083 340.431 115.141C341.241 115.777 342.059 116.417 342.902 117.036L343.218 117.268L343.559 117.075C344.052 116.796 344.426 116.344 344.705 116.009C344.743 115.962 344.78 115.918 344.815 115.877L344.816 115.876C347.962 112.143 348.977 106.945 348.031 102.259L347.948 101.85L347.537 101.781C347.077 101.705 346.596 101.715 346.187 101.724C346.066 101.726 345.95 101.729 345.844 101.729H345.819H345.795H345.77H345.746H345.722H345.697H345.673H345.648H345.624H345.6H345.575H345.551H345.527H345.502H345.478H345.453H345.429H345.405H345.38H345.356H345.331H345.307H345.283H345.258H345.234H345.209H345.185H345.161H345.136H345.112H345.087H345.063H345.039H345.014H344.99H344.966H344.941H344.917H344.892H344.868H344.844H344.819H344.795H344.77H344.746H344.722H344.697H344.673H344.648H344.624H344.6H344.575H344.551H344.527H344.502H344.478H344.453H344.429H344.405H344.38H344.356H344.331H344.307H344.283H344.258H344.234H344.209H344.185H344.161H344.136H344.112H344.088H344.063H344.039H344.014H343.99H343.966H343.941H343.917H343.892H343.868H343.844H343.819H343.795H343.77H343.746H343.722H343.697H343.673H343.649H343.624H343.6H343.575H343.551H343.527H343.502H343.478H343.453H343.429H343.405H343.38H343.356H343.331H343.307H343.283H343.258H343.234H343.209H343.185H343.161H343.136H343.112H343.088H343.063H343.039H343.014H342.99H342.966H342.941H342.917H342.892H342.868H342.844H342.819H342.795H342.77H342.746H342.722H342.697H342.673H342.649H342.624H342.6H342.575H342.551H342.527H342.502H342.478H342.453H342.429H342.405H342.38H342.356H342.331H342.307H342.283H342.258H342.234H342.21H342.185H342.161H342.136H342.112H342.088H342.063H342.039H342.014H341.99H341.966H341.941H341.917H341.892H341.868H341.844H341.819H341.795H341.771H341.746H341.722H341.697H341.673H341.649H341.624H341.6H341.575H341.551H341.527H341.502H341.478H341.453H341.429H341.405H341.38H341.356H341.331H341.307H341.283H341.258H341.234H341.21H341.185H341.161H341.136H341.112H341.088H341.063H341.039H341.014H340.99H340.966H340.941H340.917H340.892H340.868H340.844H340.819H340.795H340.771H340.746H340.722H340.697H340.673H340.649H340.624H340.6H340.575H340.551H340.527H340.502H340.478H340.453H340.429H340.405H340.38H340.356H340.332H340.307H340.283H340.258H340.234H340.21H340.185H340.161H340.136H340.112H340.088H340.063H340.039H340.014H339.99H339.966H339.941H339.917H339.893H339.868H339.844H339.819H339.795H339.771H339.746H339.722H339.697H339.673H339.649H339.624H339.6H339.575H339.551H339.527H339.502H339.478H339.453H339.429H339.405H339.38H339.356H339.332H339.307H339.283H339.258H339.234H339.21H339.185H339.161H339.136H339.112H339.088H339.063H339.039H339.014H338.99H338.966H338.941H338.917H338.893H338.868H338.844H338.819H338.795H338.771H338.746H338.722H338.697H338.673H338.649H338.624H338.6H338.575H338.551H338.527H338.502H338.478H338.454H338.429H338.405H338.38H338.356H338.332H338.307H338.283H338.258H338.234H338.21H338.185H338.161H338.136H338.112H338.088H338.063H338.039H338.015H337.99H337.966H337.941H337.917H337.893H337.868H337.844H337.819H337.795H337.771H337.746H337.722H337.697H337.673H337.649H337.624H337.6H337.575H337.551H337.527H337.502H337.478H337.454H337.429H337.405H337.38H337.356H337.332H337.307H337.283H337.258H337.234H337.21H337.185H337.161H337.136H337.112H337.088H337.063H337.039H337.015H336.99H336.966H336.941H336.917H336.893H336.868H336.844H336.819H336.795H336.771H336.746H336.722H336.697H336.673H336.649H336.624H336.6H336.576H336.551H336.527H336.502H336.478H336.454H336.429H336.405H336.38H336.356H336.332H336.307H336.283H336.258H336.234H336.21H336.185H336.161H336.137H336.112H336.088H336.063H336.039H336.015H335.99H335.966H335.941H335.917H335.893H335.868H335.844H335.819H335.795H335.771H335.746H335.722H335.697H335.673H335.649H335.624H335.6H335.576H335.551H335.527H335.502H335.478H335.454H335.429H335.405H335.38H335.356H335.332H335.307H335.283H335.258H335.234H335.21H335.185H335.161H335.137H335.112H335.088H335.063H335.039H335.015H334.99H334.966H334.941H334.917H334.893H334.868H334.844H334.819H334.795H334.771H334.746H334.722H334.698H334.673H334.649H334.624H334.6H334.576H334.551H334.527H334.502H334.478H334.454H334.429H334.405H334.38H334.356H334.332H334.307H334.283H334.259H334.234H334.21H334.185H334.161H334.137H334.112H334.088H334.063H334.039H334.015H333.99H333.966H333.941H333.917H333.893H333.868H333.844H333.819H333.795H333.771H333.746H333.722H333.698H333.673H333.649H333.624H333.6H333.576H333.551H333.527H333.502H333.478H333.454H333.429H333.405H333.38H333.356Z" fill="#4284F4" stroke="#89B0F4" stroke-width="1.21058"/>
<path d="M320.721 111.176C322.049 110.113 323.407 109.079 324.736 108.031C325.06 108.637 325.267 109.316 325.651 109.891C326.861 111.869 328.78 113.331 331.024 113.95C332.588 114.29 334.212 114.29 335.762 113.921C336.677 113.685 337.518 113.242 338.345 112.784C339.998 114.024 341.577 115.353 343.245 116.563C342.847 117.08 342.301 117.434 341.769 117.803C339.29 119.56 336.219 120.253 333.223 120.327C330.197 120.268 327.171 119.412 324.677 117.67C322.521 116.194 320.78 114.201 319.628 111.869C320.027 111.677 320.381 111.441 320.721 111.176Z" fill="#34A853"/>
<path d="M300.174 129.346C301.237 128.505 302.772 128.446 304.012 128.903C304.455 129.11 304.957 129.361 305.178 129.848C304.972 130.084 304.75 130.306 304.499 130.497C304.145 130.202 303.776 129.892 303.333 129.745C302.226 129.42 300.912 129.759 300.233 130.719C299.658 131.383 299.628 132.328 299.761 133.169C300.012 134.468 301.34 135.427 302.654 135.309C303.835 135.324 305.001 134.335 305.001 133.11C304.145 133.051 303.289 133.11 302.433 133.081C302.315 132.815 302.3 132.505 302.374 132.224C303.569 132.106 304.794 132.18 305.99 132.18C306.123 133.258 305.96 134.453 305.134 135.236C303.805 136.653 301.399 136.667 299.968 135.427C298.329 134.04 298.137 131.575 299.54 129.936C299.732 129.73 299.938 129.523 300.174 129.346ZM324.898 128.829C325.238 128.77 325.592 128.756 325.932 128.785C325.976 131.206 325.946 133.627 325.946 136.047C325.607 136.165 325.253 136.106 324.898 136.092C324.884 133.671 324.898 131.25 324.898 128.829ZM308.735 130.748C309.488 130.586 310.33 130.675 310.964 131.132C312.204 131.944 312.544 133.774 311.761 135.014C311.304 135.885 310.285 136.343 309.326 136.343C308.676 136.269 308.012 136.047 307.555 135.575C306.772 134.837 306.521 133.627 306.831 132.623C307.053 131.693 307.85 130.999 308.735 130.748ZM308.868 131.752C308.248 131.988 307.835 132.564 307.806 133.213C307.747 133.848 307.865 134.586 308.411 134.985C309.252 135.723 310.758 135.25 311.023 134.173C311.156 133.494 311.171 132.638 310.595 132.136C310.197 131.649 309.459 131.56 308.868 131.752ZM314.669 130.763C315.363 130.615 316.131 130.63 316.75 131.014C318.212 131.767 318.596 133.863 317.666 135.162C317.193 135.929 316.278 136.343 315.393 136.357C314.551 136.298 313.68 135.929 313.208 135.206C312.736 134.586 312.662 133.774 312.736 133.021C312.839 131.959 313.68 131.073 314.669 130.763ZM314.905 131.737C313.518 132.165 313.341 134.291 314.492 135.073C315.053 135.457 315.924 135.457 316.441 134.985C317.282 134.32 317.326 132.948 316.632 132.165C316.204 131.678 315.496 131.56 314.905 131.737ZM318.787 132.608C319.068 131.501 320.116 130.556 321.297 130.675C321.872 130.63 322.33 131.014 322.802 131.28C322.847 131.132 322.891 130.984 322.935 130.837C323.245 130.822 323.555 130.822 323.85 130.837C323.88 132.52 323.85 134.217 323.865 135.9C323.88 136.726 323.54 137.627 322.817 138.084C322.182 138.498 321.385 138.498 320.662 138.424C319.85 138.306 319.171 137.745 318.92 136.963C319.171 136.771 319.452 136.534 319.776 136.594C320.057 136.889 320.293 137.228 320.662 137.42C321.326 137.745 322.197 137.464 322.625 136.874C322.861 136.52 322.847 136.077 322.847 135.678C322.3 136.033 321.681 136.416 321.002 136.343C320.323 136.239 319.599 135.944 319.216 135.339C318.655 134.557 318.551 133.523 318.787 132.608ZM320.692 131.767C319.54 132.298 319.393 134.01 320.204 134.896C320.692 135.383 321.43 135.486 322.035 135.162C323.171 134.468 323.186 132.564 322.079 131.841C321.651 131.619 321.149 131.59 320.692 131.767ZM327.57 131.413C328.057 130.896 328.736 130.63 329.445 130.675C330.315 130.63 331.127 131.191 331.57 131.914C331.865 132.446 331.895 133.066 331.88 133.671C330.566 133.833 329.223 133.671 327.895 133.745C327.777 134.748 328.854 135.56 329.799 135.324C330.345 135.265 330.64 134.793 330.965 134.424C331.245 134.542 331.511 134.675 331.777 134.793C331.6 135.56 330.817 136.077 330.079 136.254C329.297 136.49 328.456 136.239 327.806 135.796C327.098 135.28 326.832 134.365 326.743 133.538C326.802 132.785 326.994 131.959 327.57 131.413ZM328.707 131.782C328.249 131.944 328.042 132.431 327.91 132.859C328.869 132.874 329.828 132.874 330.788 132.859C330.685 132.549 330.611 132.195 330.345 131.973C329.902 131.604 329.238 131.59 328.707 131.782Z" fill="#606469" stroke="#5F6368" stroke-width="0.147606" stroke-miterlimit="10"/>
<defs>
<filter id="filter0_d_54_64" x="50.9626" y="89.2441" width="68.1074" height="69.2329" filterUnits="userSpaceOnUse" color-interpolation-filters="sRGB">
<feFlood flood-opacity="0" result="BackgroundImageFix"/>
<feColorMatrix in="SourceAlpha" type="matrix" values="0 0 0 0 0 0 0 0 0 0 0 0 0 0 0 0 0 0 127 0" result="hardAlpha"/>
<feOffset dy="7.25871"/>
<feGaussianBlur stdDeviation="4.99036"/>
<feComposite in2="hardAlpha" operator="out"/>
<feColorMatrix type="matrix" values="0 0 0 0 0.681463 0 0 0 0 0.770654 0 0 0 0 1 0 0 0 0.25 0"/>
<feBlend mode="normal" in2="BackgroundImageFix" result="effect1_dropShadow_54_64"/>
<feBlend mode="normal" in="SourceGraphic" in2="effect1_dropShadow_54_64" result="shape"/>
</filter>
<filter id="filter1_d_54_64" x="133.588" y="89.2441" width="68.1074" height="69.2329" filterUnits="userSpaceOnUse" color-interpolation-filters="sRGB">
<feFlood flood-opacity="0" result="BackgroundImageFix"/>
<feColorMatrix in="SourceAlpha" type="matrix" values="0 0 0 0 0 0 0 0 0 0 0 0 0 0 0 0 0 0 127 0" result="hardAlpha"/>
<feOffset dy="7.25871"/>
<feGaussianBlur stdDeviation="4.99036"/>
<feComposite in2="hardAlpha" operator="out"/>
<feColorMatrix type="matrix" values="0 0 0 0 0.681463 0 0 0 0 0.770654 0 0 0 0 1 0 0 0 0.25 0"/>
<feBlend mode="normal" in2="BackgroundImageFix" result="effect1_dropShadow_54_64"/>
<feBlend mode="normal" in="SourceGraphic" in2="effect1_dropShadow_54_64" result="shape"/>
</filter>
<filter id="filter2_d_54_64" x="216.213" y="89.2441" width="68.1074" height="69.2329" filterUnits="userSpaceOnUse" color-interpolation-filters="sRGB">
<feFlood flood-opacity="0" result="BackgroundImageFix"/>
<feColorMatrix in="SourceAlpha" type="matrix" values="0 0 0 0 0 0 0 0 0 0 0 0 0 0 0 0 0 0 127 0" result="hardAlpha"/>
<feOffset dy="7.25871"/>
<feGaussianBlur stdDeviation="4.99036"/>
<feComposite in2="hardAlpha" operator="out"/>
<feColorMatrix type="matrix" values="0 0 0 0 0.681463 0 0 0 0 0.770654 0 0 0 0 1 0 0 0 0.25 0"/>
<feBlend mode="normal" in2="BackgroundImageFix" result="effect1_dropShadow_54_64"/>
<feBlend mode="normal" in="SourceGraphic" in2="effect1_dropShadow_54_64" result="shape"/>
</filter>
<filter id="filter3_d_54_64" x="381.464" y="89.2441" width="68.1074" height="69.2329" filterUnits="userSpaceOnUse" color-interpolation-filters="sRGB">
<feFlood flood-opacity="0" result="BackgroundImageFix"/>
<feColorMatrix in="SourceAlpha" type="matrix" values="0 0 0 0 0 0 0 0 0 0 0 0 0 0 0 0 0 0 127 0" result="hardAlpha"/>
<feOffset dy="7.25871"/>
<feGaussianBlur stdDeviation="4.99036"/>
<feComposite in2="hardAlpha" operator="out"/>
<feColorMatrix type="matrix" values="0 0 0 0 0.681463 0 0 0 0 0.770654 0 0 0 0 1 0 0 0 0.25 0"/>
<feBlend mode="normal" in2="BackgroundImageFix" result="effect1_dropShadow_54_64"/>
<feBlend mode="normal" in="SourceGraphic" in2="effect1_dropShadow_54_64" result="shape"/>
</filter>
<filter id="filter4_d_54_64" x="464.089" y="89.2441" width="68.1077" height="69.2329" filterUnits="userSpaceOnUse" color-interpolation-filters="sRGB">
<feFlood flood-opacity="0" result="BackgroundImageFix"/>
<feColorMatrix in="SourceAlpha" type="matrix" values="0 0 0 0 0 0 0 0 0 0 0 0 0 0 0 0 0 0 127 0" result="hardAlpha"/>
<feOffset dy="7.25871"/>
<feGaussianBlur stdDeviation="4.99036"/>
<feComposite in2="hardAlpha" operator="out"/>
<feColorMatrix type="matrix" values="0 0 0 0 0.681463 0 0 0 0 0.770654 0 0 0 0 1 0 0 0 0.25 0"/>
<feBlend mode="normal" in2="BackgroundImageFix" result="effect1_dropShadow_54_64"/>
<feBlend mode="normal" in="SourceGraphic" in2="effect1_dropShadow_54_64" result="shape"/>
</filter>
<filter id="filter5_d_54_64" x="546.714" y="89.2441" width="68.1074" height="69.2329" filterUnits="userSpaceOnUse" color-interpolation-filters="sRGB">
<feFlood flood-opacity="0" result="BackgroundImageFix"/>
<feColorMatrix in="SourceAlpha" type="matrix" values="0 0 0 0 0 0 0 0 0 0 0 0 0 0 0 0 0 0 127 0" result="hardAlpha"/>
<feOffset dy="7.25871"/>
<feGaussianBlur stdDeviation="4.99036"/>
<feComposite in2="hardAlpha" operator="out"/>
<feColorMatrix type="matrix" values="0 0 0 0 0.681463 0 0 0 0 0.770654 0 0 0 0 1 0 0 0 0.25 0"/>
<feBlend mode="normal" in2="BackgroundImageFix" result="effect1_dropShadow_54_64"/>
<feBlend mode="normal" in="SourceGraphic" in2="effect1_dropShadow_54_64" result="shape"/>
</filter>
<filter id="filter6_f_54_64" x="305.963" y="77.7736" width="53.909" height="54.6593" filterUnits="userSpaceOnUse" color-interpolation-filters="sRGB">
<feFlood flood-opacity="0" result="BackgroundImageFix"/>
<feBlend mode="normal" in="SourceGraphic" in2="BackgroundImageFix" result="shape"/>
<feGaussianBlur stdDeviation="6.05288" result="effect1_foregroundBlur_54_64"/>
</filter>
</defs>
</svg>
