<svg width="404" height="212" viewBox="0 0 404 212" fill="none" xmlns="http://www.w3.org/2000/svg">
<rect width="404" height="211.149" rx="41.4359" fill="#0066FF" fill-opacity="0.02"/>
<rect x="1.0359" y="1.0359" width="401.928" height="209.077" rx="40.4" stroke="#0066FF" stroke-opacity="0.1" stroke-width="2.07179"/>
<rect x="16.5745" y="16.5745" width="370" height="178" rx="24.8615" fill="white"/>
<rect x="17.6104" y="17.6104" width="367.928" height="175.928" rx="23.8256" stroke="#0066FF" stroke-opacity="0.1" stroke-width="2.07179"/>
<circle cx="41.4361" cy="41.4361" r="4.14359" fill="#F1C9C3"/>
<circle cx="58.0105" cy="41.4361" r="4.14359" fill="#F5E1B4"/>
<circle cx="74.5848" cy="41.4361" r="4.14359" fill="#CCE7C4"/>
<rect x="57.3034" y="86.2413" width="289.372" height="69.8368" fill="#0066FF" fill-opacity="0.05" stroke="#0066FF" stroke-width="1.70486"/>
<path d="M118.571 112.545H121.562L126.122 120.48H126.31L130.869 112.545H133.861L127.528 123.148V130H124.903V123.148L118.571 112.545ZM136.96 130.29C136.131 130.29 135.381 130.136 134.71 129.83C134.04 129.517 133.509 129.065 133.116 128.474C132.73 127.884 132.537 127.159 132.537 126.301C132.537 125.562 132.679 124.955 132.963 124.477C133.247 124 133.631 123.622 134.114 123.344C134.597 123.065 135.136 122.855 135.733 122.713C136.33 122.571 136.938 122.463 137.557 122.389C138.341 122.298 138.977 122.224 139.466 122.168C139.955 122.105 140.31 122.006 140.531 121.869C140.753 121.733 140.864 121.511 140.864 121.205V121.145C140.864 120.401 140.653 119.824 140.233 119.415C139.818 119.006 139.199 118.801 138.375 118.801C137.517 118.801 136.841 118.991 136.347 119.372C135.858 119.747 135.52 120.165 135.332 120.625L132.938 120.08C133.222 119.284 133.636 118.642 134.182 118.153C134.733 117.659 135.366 117.301 136.082 117.08C136.798 116.852 137.551 116.739 138.341 116.739C138.864 116.739 139.418 116.801 140.003 116.926C140.594 117.045 141.145 117.267 141.656 117.591C142.173 117.915 142.597 118.378 142.926 118.98C143.256 119.577 143.42 120.352 143.42 121.307V130H140.932V128.21H140.83C140.665 128.54 140.418 128.864 140.088 129.182C139.759 129.5 139.335 129.764 138.818 129.974C138.301 130.185 137.682 130.29 136.96 130.29ZM137.514 128.244C138.219 128.244 138.821 128.105 139.321 127.827C139.827 127.548 140.21 127.185 140.472 126.736C140.739 126.281 140.872 125.795 140.872 125.278V123.591C140.781 123.682 140.605 123.767 140.344 123.847C140.088 123.92 139.795 123.986 139.466 124.043C139.136 124.094 138.815 124.142 138.503 124.188C138.19 124.227 137.929 124.261 137.719 124.29C137.224 124.352 136.773 124.457 136.364 124.605C135.96 124.753 135.636 124.966 135.392 125.244C135.153 125.517 135.034 125.881 135.034 126.335C135.034 126.966 135.267 127.443 135.733 127.767C136.199 128.085 136.793 128.244 137.514 128.244ZM145.815 130V116.909H148.278V118.989H148.414C148.653 118.284 149.073 117.73 149.675 117.327C150.283 116.918 150.971 116.713 151.738 116.713C151.897 116.713 152.085 116.719 152.3 116.73C152.522 116.741 152.695 116.756 152.82 116.773V119.21C152.718 119.182 152.536 119.151 152.275 119.116C152.013 119.077 151.752 119.057 151.491 119.057C150.888 119.057 150.352 119.185 149.88 119.44C149.414 119.69 149.045 120.04 148.772 120.489C148.499 120.932 148.363 121.437 148.363 122.006V130H145.815ZM157.718 130.29C156.888 130.29 156.138 130.136 155.468 129.83C154.798 129.517 154.266 129.065 153.874 128.474C153.488 127.884 153.295 127.159 153.295 126.301C153.295 125.562 153.437 124.955 153.721 124.477C154.005 124 154.388 123.622 154.871 123.344C155.354 123.065 155.894 122.855 156.491 122.713C157.087 122.571 157.695 122.463 158.315 122.389C159.099 122.298 159.735 122.224 160.224 122.168C160.712 122.105 161.067 122.006 161.289 121.869C161.511 121.733 161.621 121.511 161.621 121.205V121.145C161.621 120.401 161.411 119.824 160.991 119.415C160.576 119.006 159.957 118.801 159.133 118.801C158.275 118.801 157.599 118.991 157.104 119.372C156.616 119.747 156.278 120.165 156.09 120.625L153.695 120.08C153.979 119.284 154.394 118.642 154.94 118.153C155.491 117.659 156.124 117.301 156.84 117.08C157.556 116.852 158.309 116.739 159.099 116.739C159.621 116.739 160.175 116.801 160.761 116.926C161.352 117.045 161.903 117.267 162.414 117.591C162.931 117.915 163.354 118.378 163.684 118.98C164.013 119.577 164.178 120.352 164.178 121.307V130H161.69V128.21H161.587C161.423 128.54 161.175 128.864 160.846 129.182C160.516 129.5 160.093 129.764 159.576 129.974C159.059 130.185 158.44 130.29 157.718 130.29ZM158.272 128.244C158.977 128.244 159.579 128.105 160.079 127.827C160.585 127.548 160.968 127.185 161.229 126.736C161.496 126.281 161.63 125.795 161.63 125.278V123.591C161.539 123.682 161.363 123.767 161.102 123.847C160.846 123.92 160.553 123.986 160.224 124.043C159.894 124.094 159.573 124.142 159.261 124.188C158.948 124.227 158.687 124.261 158.477 124.29C157.982 124.352 157.531 124.457 157.121 124.605C156.718 124.753 156.394 124.966 156.15 125.244C155.911 125.517 155.792 125.881 155.792 126.335C155.792 126.966 156.025 127.443 156.491 127.767C156.957 128.085 157.55 128.244 158.272 128.244ZM172.683 116.909V118.955H165.533V116.909H172.683ZM167.45 113.773H169.999V126.156C169.999 126.651 170.072 127.023 170.22 127.273C170.368 127.517 170.558 127.685 170.791 127.776C171.03 127.861 171.288 127.903 171.567 127.903C171.771 127.903 171.95 127.889 172.104 127.861C172.257 127.832 172.376 127.81 172.462 127.793L172.922 129.898C172.774 129.955 172.564 130.011 172.291 130.068C172.018 130.131 171.678 130.165 171.268 130.17C170.598 130.182 169.973 130.062 169.393 129.812C168.814 129.562 168.345 129.176 167.987 128.653C167.629 128.131 167.45 127.474 167.45 126.685V113.773ZM174.502 130V116.909H177.05V130H174.502ZM184.993 130.264C183.726 130.264 182.635 129.977 181.72 129.403C180.811 128.824 180.112 128.026 179.624 127.009C179.135 125.991 178.891 124.827 178.891 123.514C178.891 122.185 179.141 121.011 179.641 119.994C180.141 118.972 180.845 118.173 181.754 117.599C182.663 117.026 183.734 116.739 184.967 116.739C185.962 116.739 186.848 116.923 187.626 117.293C188.405 117.656 189.033 118.168 189.51 118.827C189.993 119.486 190.28 120.256 190.371 121.136H187.891C187.754 120.523 187.442 119.994 186.953 119.551C186.47 119.108 185.822 118.886 185.01 118.886C184.3 118.886 183.678 119.074 183.143 119.449C182.615 119.818 182.203 120.347 181.908 121.034C181.612 121.716 181.464 122.523 181.464 123.455C181.464 124.409 181.609 125.233 181.899 125.926C182.189 126.619 182.598 127.156 183.126 127.537C183.661 127.918 184.288 128.108 185.01 128.108C185.493 128.108 185.93 128.02 186.322 127.844C186.72 127.662 187.053 127.403 187.32 127.068C187.592 126.733 187.783 126.33 187.891 125.858H190.371C190.28 126.705 190.004 127.46 189.544 128.125C189.084 128.79 188.467 129.312 187.695 129.693C186.928 130.074 186.027 130.264 184.993 130.264ZM192.096 130V116.909H194.644V130H192.096ZM201.768 114.812V112.545H215.276V114.812H209.83V130H207.205V114.812H201.768ZM219.085 130.29C218.256 130.29 217.506 130.136 216.835 129.83C216.165 129.517 215.634 129.065 215.241 128.474C214.855 127.884 214.662 127.159 214.662 126.301C214.662 125.562 214.804 124.955 215.088 124.477C215.372 124 215.756 123.622 216.239 123.344C216.722 123.065 217.261 122.855 217.858 122.713C218.455 122.571 219.063 122.463 219.682 122.389C220.466 122.298 221.102 122.224 221.591 122.168C222.08 122.105 222.435 122.006 222.656 121.869C222.878 121.733 222.989 121.511 222.989 121.205V121.145C222.989 120.401 222.778 119.824 222.358 119.415C221.943 119.006 221.324 118.801 220.5 118.801C219.642 118.801 218.966 118.991 218.472 119.372C217.983 119.747 217.645 120.165 217.457 120.625L215.062 120.08C215.347 119.284 215.761 118.642 216.307 118.153C216.858 117.659 217.491 117.301 218.207 117.08C218.923 116.852 219.676 116.739 220.466 116.739C220.989 116.739 221.543 116.801 222.128 116.926C222.719 117.045 223.27 117.267 223.781 117.591C224.298 117.915 224.722 118.378 225.051 118.98C225.381 119.577 225.545 120.352 225.545 121.307V130H223.057V128.21H222.955C222.79 128.54 222.543 128.864 222.213 129.182C221.884 129.5 221.46 129.764 220.943 129.974C220.426 130.185 219.807 130.29 219.085 130.29ZM219.639 128.244C220.344 128.244 220.946 128.105 221.446 127.827C221.952 127.548 222.335 127.185 222.597 126.736C222.864 126.281 222.997 125.795 222.997 125.278V123.591C222.906 123.682 222.73 123.767 222.469 123.847C222.213 123.92 221.92 123.986 221.591 124.043C221.261 124.094 220.94 124.142 220.628 124.188C220.315 124.227 220.054 124.261 219.844 124.29C219.349 124.352 218.898 124.457 218.489 124.605C218.085 124.753 217.761 124.966 217.517 125.244C217.278 125.517 217.159 125.881 217.159 126.335C217.159 126.966 217.392 127.443 217.858 127.767C218.324 128.085 218.918 128.244 219.639 128.244ZM237.749 120.105L235.44 120.514C235.343 120.219 235.19 119.937 234.979 119.67C234.775 119.403 234.496 119.185 234.144 119.014C233.792 118.844 233.352 118.759 232.823 118.759C232.102 118.759 231.499 118.92 231.016 119.244C230.533 119.562 230.292 119.974 230.292 120.48C230.292 120.918 230.454 121.27 230.778 121.537C231.102 121.804 231.624 122.023 232.346 122.193L234.425 122.67C235.63 122.949 236.528 123.378 237.119 123.957C237.71 124.537 238.005 125.29 238.005 126.216C238.005 127 237.778 127.699 237.323 128.312C236.874 128.92 236.246 129.398 235.44 129.744C234.638 130.091 233.71 130.264 232.653 130.264C231.187 130.264 229.991 129.952 229.065 129.327C228.138 128.696 227.57 127.801 227.36 126.642L229.823 126.267C229.977 126.909 230.292 127.395 230.769 127.724C231.246 128.048 231.869 128.21 232.636 128.21C233.471 128.21 234.138 128.037 234.638 127.69C235.138 127.338 235.388 126.909 235.388 126.403C235.388 125.994 235.235 125.651 234.928 125.372C234.627 125.094 234.164 124.884 233.539 124.741L231.323 124.256C230.102 123.977 229.198 123.534 228.613 122.926C228.033 122.318 227.744 121.548 227.744 120.616C227.744 119.844 227.96 119.168 228.391 118.588C228.823 118.009 229.42 117.557 230.181 117.233C230.942 116.903 231.815 116.739 232.798 116.739C234.212 116.739 235.326 117.045 236.138 117.659C236.951 118.267 237.488 119.082 237.749 120.105ZM243.616 130.29C242.787 130.29 242.037 130.136 241.366 129.83C240.696 129.517 240.165 129.065 239.773 128.474C239.386 127.884 239.193 127.159 239.193 126.301C239.193 125.562 239.335 124.955 239.619 124.477C239.903 124 240.287 123.622 240.77 123.344C241.253 123.065 241.793 122.855 242.389 122.713C242.986 122.571 243.594 122.463 244.213 122.389C244.997 122.298 245.634 122.224 246.122 122.168C246.611 122.105 246.966 122.006 247.188 121.869C247.409 121.733 247.52 121.511 247.52 121.205V121.145C247.52 120.401 247.31 119.824 246.889 119.415C246.474 119.006 245.855 118.801 245.031 118.801C244.173 118.801 243.497 118.991 243.003 119.372C242.514 119.747 242.176 120.165 241.989 120.625L239.594 120.08C239.878 119.284 240.293 118.642 240.838 118.153C241.389 117.659 242.023 117.301 242.739 117.08C243.455 116.852 244.207 116.739 244.997 116.739C245.52 116.739 246.074 116.801 246.659 116.926C247.25 117.045 247.801 117.267 248.312 117.591C248.83 117.915 249.253 118.378 249.582 118.98C249.912 119.577 250.077 120.352 250.077 121.307V130H247.588V128.21H247.486C247.321 128.54 247.074 128.864 246.744 129.182C246.415 129.5 245.991 129.764 245.474 129.974C244.957 130.185 244.338 130.29 243.616 130.29ZM244.17 128.244C244.875 128.244 245.477 128.105 245.977 127.827C246.483 127.548 246.866 127.185 247.128 126.736C247.395 126.281 247.528 125.795 247.528 125.278V123.591C247.438 123.682 247.261 123.767 247 123.847C246.744 123.92 246.452 123.986 246.122 124.043C245.793 124.094 245.472 124.142 245.159 124.188C244.847 124.227 244.585 124.261 244.375 124.29C243.881 124.352 243.429 124.457 243.02 124.605C242.616 124.753 242.293 124.966 242.048 125.244C241.81 125.517 241.69 125.881 241.69 126.335C241.69 126.966 241.923 127.443 242.389 127.767C242.855 128.085 243.449 128.244 244.17 128.244ZM252.471 130V116.909H254.934V118.989H255.07C255.309 118.284 255.729 117.73 256.332 117.327C256.94 116.918 257.627 116.713 258.394 116.713C258.553 116.713 258.741 116.719 258.957 116.73C259.178 116.741 259.352 116.756 259.477 116.773V119.21C259.374 119.182 259.192 119.151 258.931 119.116C258.67 119.077 258.408 119.057 258.147 119.057C257.545 119.057 257.008 119.185 256.536 119.44C256.07 119.69 255.701 120.04 255.428 120.489C255.156 120.932 255.019 121.437 255.019 122.006V130H252.471ZM260.682 130V116.909H263.23V130H260.682ZM265.658 130V116.909H268.104V119.04H268.266C268.539 118.318 268.985 117.756 269.604 117.352C270.224 116.943 270.965 116.739 271.829 116.739C272.704 116.739 273.437 116.943 274.028 117.352C274.624 117.761 275.065 118.324 275.349 119.04H275.485C275.798 118.341 276.295 117.784 276.977 117.369C277.658 116.949 278.471 116.739 279.414 116.739C280.602 116.739 281.57 117.111 282.32 117.855C283.076 118.599 283.454 119.722 283.454 121.222V130H280.906V121.46C280.906 120.574 280.664 119.932 280.181 119.534C279.698 119.136 279.121 118.938 278.451 118.938C277.621 118.938 276.977 119.193 276.516 119.705C276.056 120.21 275.826 120.861 275.826 121.656V130H273.286V121.298C273.286 120.588 273.065 120.017 272.621 119.585C272.178 119.153 271.602 118.938 270.891 118.938C270.408 118.938 269.962 119.065 269.553 119.321C269.15 119.571 268.823 119.92 268.573 120.369C268.329 120.818 268.207 121.338 268.207 121.929V130H265.658Z" fill="#0066FF"/>
<rect x="343.47" y="82.7345" width="8.11458" height="8.11458" fill="white" stroke="#0066FF" stroke-width="1.70486"/>
<rect x="52.3939" y="82.7345" width="8.11458" height="8.11458" fill="white" stroke="#0066FF" stroke-width="1.70486"/>
<rect x="343.47" y="152.873" width="8.11458" height="8.11458" fill="white" stroke="#0066FF" stroke-width="1.70486"/>
<rect x="52.3937" y="152.873" width="8.11458" height="8.11458" fill="white" stroke="#0066FF" stroke-width="1.70486"/>
<g filter="url(#filter0_d_54_10)">
<path fill-rule="evenodd" clip-rule="evenodd" d="M347.797 156.657L355.109 173.219V173.219C355.248 173.54 355.639 173.688 355.96 173.549C356.134 173.462 356.273 173.305 356.325 173.114L357.957 166.897H357.948C358.061 166.437 358.417 166.081 358.869 165.968L365.078 164.326V164.318C365.425 164.222 365.625 163.866 365.538 163.519C365.486 163.319 365.347 163.163 365.165 163.085L348.596 155.762V155.762C348.266 155.615 347.875 155.762 347.736 156.092C347.658 156.257 347.658 156.448 347.728 156.613L347.797 156.657Z" fill="#41D974"/>
<path d="M347.457 156.944L354.717 173.388C354.717 173.389 354.717 173.389 354.717 173.39C354.954 173.934 355.6 174.17 356.13 173.941C356.134 173.939 356.138 173.937 356.143 173.935C356.145 173.934 356.148 173.932 356.151 173.931C356.422 173.795 356.65 173.547 356.737 173.227L356.737 173.227L356.738 173.223L358.371 167.005C358.377 166.981 358.381 166.956 358.383 166.931C358.475 166.657 358.698 166.451 358.973 166.382L358.973 166.382L358.978 166.381L365.187 164.74C365.224 164.73 365.258 164.716 365.29 164.698C365.806 164.502 366.086 163.947 365.953 163.415L365.953 163.415L365.952 163.411C365.866 163.082 365.636 162.822 365.336 162.693C365.335 162.692 365.334 162.692 365.333 162.692L348.771 155.372C348.77 155.372 348.77 155.372 348.77 155.372C348.232 155.132 347.584 155.365 347.346 155.918C347.217 156.196 347.221 156.511 347.334 156.779C347.361 156.844 347.403 156.9 347.457 156.944Z" stroke="white" stroke-width="0.854818" stroke-linecap="round" stroke-linejoin="round"/>
</g>
<g filter="url(#filter1_d_54_10)">
<path d="M40.8028 166.27C38.7427 164.192 38.7427 160.846 40.8028 158.786C40.8204 158.769 40.8204 158.769 40.8204 158.769L43.0038 156.585L43.0214 156.568C43.1975 156.392 43.1975 156.11 43.0214 155.934L42.7397 155.617C42.4051 155.265 42.4051 154.701 42.7397 154.367C42.8806 154.226 43.0566 154.138 43.2503 154.103L47.6171 153.469L47.6347 153.467C48.1277 153.396 48.5679 153.731 48.6383 154.206C48.656 154.277 48.656 154.365 48.6383 154.453L48.0221 158.802C47.9692 159.277 47.5114 159.612 47.036 159.542C46.8599 159.506 46.6839 159.418 46.543 159.277L46.2437 158.961V158.943C46.0852 158.767 45.8035 158.767 45.6274 158.943L43.4616 161.109C42.7925 161.795 42.7925 162.905 43.4792 163.591L45.6626 165.757H45.6802C45.8563 165.916 46.138 165.916 46.3141 165.74L46.631 165.423C46.9832 165.071 47.5467 165.071 47.8812 165.405C48.0221 165.528 48.1101 165.704 48.1453 165.898L48.7792 170.247V170.23C48.8496 170.705 48.5151 171.145 48.0397 171.216C47.9692 171.216 47.8812 171.216 47.7932 171.198L43.437 170.564C42.9633 170.494 42.6288 170.036 42.6992 169.561C42.7344 169.367 42.8224 169.191 42.9633 169.05L43.2803 168.733C43.4563 168.557 43.4563 168.275 43.2979 168.099L40.8028 166.27Z" fill="#41D974" stroke="white" stroke-width="0.854818"/>
</g>
<defs>
<filter id="filter0_d_54_10" x="345.112" y="154.851" width="23.0106" height="23.024" filterUnits="userSpaceOnUse" color-interpolation-filters="sRGB">
<feFlood flood-opacity="0" result="BackgroundImageFix"/>
<feColorMatrix in="SourceAlpha" type="matrix" values="0 0 0 0 0 0 0 0 0 0 0 0 0 0 0 0 0 0 127 0" result="hardAlpha"/>
<feOffset dy="1.70964"/>
<feGaussianBlur stdDeviation="0.854818"/>
<feColorMatrix type="matrix" values="0 0 0 0 0 0 0 0 0 0 0 0 0 0 0 0 0 0 0.38 0"/>
<feBlend mode="normal" in2="BackgroundImageFix" result="effect1_dropShadow_54_10"/>
<feBlend mode="normal" in="SourceGraphic" in2="effect1_dropShadow_54_10" result="shape"/>
</filter>
<filter id="filter1_d_54_10" x="37.1207" y="151.89" width="13.805" height="22.0323" filterUnits="userSpaceOnUse" color-interpolation-filters="sRGB">
<feFlood flood-opacity="0" result="BackgroundImageFix"/>
<feColorMatrix in="SourceAlpha" type="matrix" values="0 0 0 0 0 0 0 0 0 0 0 0 0 0 0 0 0 0 127 0" result="hardAlpha"/>
<feOffset dy="0.569879"/>
<feGaussianBlur stdDeviation="0.854818"/>
<feColorMatrix type="matrix" values="0 0 0 0 0 0 0 0 0 0 0 0 0 0 0 0 0 0 0.38 0"/>
<feBlend mode="normal" in2="BackgroundImageFix" result="effect1_dropShadow_54_10"/>
<feBlend mode="normal" in="SourceGraphic" in2="effect1_dropShadow_54_10" result="shape"/>
</filter>
</defs>
</svg>
