<svg width="666" height="212" viewBox="0 0 666 212" fill="none" xmlns="http://www.w3.org/2000/svg">
<rect width="666" height="211.149" rx="41.4359" fill="#0066FF" fill-opacity="0.02"/>
<rect x="1.0359" y="1.0359" width="663.928" height="209.077" rx="40.4" stroke="#0066FF" stroke-opacity="0.1" stroke-width="2.07179"/>
<g clip-path="url(#clip0_54_30)">
<rect x="16.5745" y="16.5745" width="632.851" height="178" rx="24.8615" fill="white"/>
<circle cx="41.4361" cy="41.4361" r="4.14359" fill="#F1C9C3"/>
<circle cx="58.0105" cy="41.4361" r="4.14359" fill="#F5E1B4"/>
<circle cx="74.5848" cy="41.4361" r="4.14359" fill="#CCE7C4"/>
<g opacity="0.4">
<path d="M56.2925 61.5796H42.2925C41.1879 61.5796 40.2925 62.475 40.2925 63.5796V71.5796C40.2925 72.6842 41.1879 73.5796 42.2925 73.5796H56.2925C57.3971 73.5796 58.2925 72.6842 58.2925 71.5796V63.5796C58.2925 62.475 57.3971 61.5796 56.2925 61.5796Z" stroke="black" stroke-width="2" stroke-linecap="round" stroke-linejoin="round"/>
<path d="M39.2925 77.5796H59.2925" stroke="black" stroke-width="2" stroke-linecap="round" stroke-linejoin="round"/>
<path d="M87.2925 59.5796H75.2925C74.1879 59.5796 73.2925 60.475 73.2925 61.5796V77.5796C73.2925 78.6842 74.1879 79.5796 75.2925 79.5796H87.2925C88.397 79.5796 89.2925 78.6842 89.2925 77.5796V61.5796C89.2925 60.475 88.397 59.5796 87.2925 59.5796Z" stroke="black" stroke-width="2" stroke-linecap="round" stroke-linejoin="round"/>
<path d="M81.2925 75.5796H81.3025" stroke="black" stroke-width="2" stroke-linecap="round" stroke-linejoin="round"/>
<path d="M118.292 59.5796H108.292C107.188 59.5796 106.292 60.475 106.292 61.5796V77.5796C106.292 78.6842 107.188 79.5796 108.292 79.5796H118.292C119.397 79.5796 120.292 78.6842 120.292 77.5796V61.5796C120.292 60.475 119.397 59.5796 118.292 59.5796Z" stroke="black" stroke-width="2" stroke-linecap="round" stroke-linejoin="round"/>
<path d="M113.292 75.5796H113.302" stroke="black" stroke-width="2" stroke-linecap="round" stroke-linejoin="round"/>
</g>
<path d="M41.6675 109.58H38.5254V99.3978H41.8067C42.7944 99.3978 43.6395 99.6016 44.3422 100.009C45.0448 100.414 45.5834 100.995 45.958 101.754C46.3325 102.51 46.5198 103.415 46.5198 104.469C46.5198 105.529 46.3308 106.443 45.953 107.208C45.5752 107.97 45.025 108.557 44.3024 108.968C43.5799 109.376 42.7016 109.58 41.6675 109.58ZM39.7584 108.486H41.5879C42.4298 108.486 43.1275 108.323 43.681 107.999C44.2345 107.674 44.6471 107.211 44.9189 106.612C45.1907 106.012 45.3266 105.297 45.3266 104.469C45.3266 103.647 45.1923 102.939 44.9239 102.346C44.6554 101.749 44.2544 101.292 43.7207 100.974C43.1871 100.652 42.5226 100.492 41.7271 100.492H39.7584V108.486ZM50.676 109.759C50.1921 109.759 49.7529 109.667 49.3585 109.485C48.9641 109.3 48.6509 109.033 48.4189 108.685C48.1869 108.333 48.0709 107.909 48.0709 107.412C48.0709 106.974 48.1571 106.62 48.3294 106.348C48.5018 106.073 48.7321 105.858 49.0205 105.702C49.3088 105.546 49.627 105.43 49.975 105.354C50.3263 105.274 50.6793 105.211 51.034 105.165C51.498 105.105 51.8742 105.06 52.1625 105.031C52.4542 104.997 52.6663 104.943 52.7989 104.867C52.9348 104.79 53.0027 104.658 53.0027 104.469V104.429C53.0027 103.938 52.8685 103.557 52.6 103.286C52.3349 103.014 51.9322 102.878 51.3919 102.878C50.8318 102.878 50.3926 103.001 50.0744 103.246C49.7563 103.491 49.5325 103.753 49.4033 104.031L48.2896 103.634C48.4885 103.17 48.7537 102.808 49.0851 102.55C49.4198 102.288 49.7844 102.106 50.1788 102.003C50.5766 101.897 50.9677 101.844 51.3521 101.844C51.5974 101.844 51.8791 101.874 52.1973 101.933C52.5188 101.99 52.8287 102.107 53.127 102.286C53.4286 102.465 53.6788 102.735 53.8777 103.097C54.0766 103.458 54.176 103.942 54.176 104.548V109.58H53.0027V108.545H52.943C52.8635 108.711 52.7309 108.889 52.5453 109.077C52.3597 109.266 52.1128 109.427 51.8046 109.56C51.4963 109.692 51.1201 109.759 50.676 109.759ZM50.855 108.705C51.319 108.705 51.7101 108.613 52.0283 108.431C52.3498 108.249 52.5917 108.014 52.7541 107.725C52.9198 107.437 53.0027 107.134 53.0027 106.815V105.742C52.953 105.801 52.8436 105.856 52.6746 105.906C52.5089 105.952 52.3166 105.993 52.0979 106.03C51.8824 106.063 51.672 106.093 51.4665 106.119C51.2643 106.143 51.1002 106.162 50.9743 106.179C50.6694 106.219 50.3843 106.283 50.1192 106.373C49.8573 106.459 49.6452 106.59 49.4828 106.766C49.3237 106.938 49.2442 107.173 49.2442 107.472C49.2442 107.879 49.395 108.188 49.6966 108.396C50.0015 108.602 50.3877 108.705 50.855 108.705ZM57.4908 104.986V109.58H56.3175V99.3978H57.4908V103.136H57.5902C57.7692 102.742 58.0377 102.429 58.3956 102.197C58.7569 101.961 59.2375 101.844 59.8374 101.844C60.3578 101.844 60.8135 101.948 61.2046 102.157C61.5957 102.362 61.899 102.679 62.1144 103.107C62.3331 103.531 62.4425 104.071 62.4425 104.727V109.58H61.2692V104.807C61.2692 104.2 61.1118 103.731 60.7969 103.4C60.4854 103.065 60.0528 102.898 59.4993 102.898C59.1149 102.898 58.7702 102.979 58.4652 103.141C58.1636 103.304 57.925 103.541 57.7493 103.852C57.577 104.164 57.4908 104.542 57.4908 104.986ZM66.8362 109.759C66.3523 109.759 65.9131 109.667 65.5187 109.485C65.1243 109.3 64.8111 109.033 64.5791 108.685C64.347 108.333 64.231 107.909 64.231 107.412C64.231 106.974 64.3172 106.62 64.4896 106.348C64.6619 106.073 64.8923 105.858 65.1806 105.702C65.469 105.546 65.7872 105.43 66.1352 105.354C66.4865 105.274 66.8395 105.211 67.1941 105.165C67.6581 105.105 68.0343 105.06 68.3227 105.031C68.6143 104.997 68.8265 104.943 68.959 104.867C69.0949 104.79 69.1629 104.658 69.1629 104.469V104.429C69.1629 103.938 69.0286 103.557 68.7602 103.286C68.495 103.014 68.0923 102.878 67.5521 102.878C66.9919 102.878 66.5528 103.001 66.2346 103.246C65.9164 103.491 65.6927 103.753 65.5634 104.031L64.4498 103.634C64.6487 103.17 64.9138 102.808 65.2453 102.55C65.58 102.288 65.9446 102.106 66.339 102.003C66.7367 101.897 67.1278 101.844 67.5123 101.844C67.7576 101.844 68.0393 101.874 68.3575 101.933C68.679 101.99 68.9889 102.107 69.2872 102.286C69.5888 102.465 69.839 102.735 70.0379 103.097C70.2367 103.458 70.3362 103.942 70.3362 104.548V109.58H69.1629V108.545H69.1032C69.0237 108.711 68.8911 108.889 68.7055 109.077C68.5199 109.266 68.2729 109.427 67.9647 109.56C67.6565 109.692 67.2803 109.759 66.8362 109.759ZM67.0151 108.705C67.4792 108.705 67.8703 108.613 68.1884 108.431C68.5099 108.249 68.7519 108.014 68.9143 107.725C69.08 107.437 69.1629 107.134 69.1629 106.815V105.742C69.1131 105.801 69.0038 105.856 68.8347 105.906C68.669 105.952 68.4768 105.993 68.258 106.03C68.0426 106.063 67.8321 106.093 67.6266 106.119C67.4245 106.143 67.2604 106.162 67.1345 106.179C66.8295 106.219 66.5445 106.283 66.2793 106.373C66.0175 106.459 65.8054 106.59 65.643 106.766C65.4839 106.938 65.4043 107.173 65.4043 107.472C65.4043 107.879 65.5551 108.188 65.8568 108.396C66.1617 108.602 66.5478 108.705 67.0151 108.705ZM77.5885 104.986V109.58H76.4152V99.3978H77.5885V103.136H77.6879C77.8669 102.742 78.1353 102.429 78.4933 102.197C78.8546 101.961 79.3352 101.844 79.9351 101.844C80.4554 101.844 80.9111 101.948 81.3022 102.157C81.6933 102.362 81.9966 102.679 82.212 103.107C82.4308 103.531 82.5402 104.071 82.5402 104.727V109.58H81.3669V104.807C81.3669 104.2 81.2094 103.731 80.8946 103.4C80.583 103.065 80.1505 102.898 79.597 102.898C79.2125 102.898 78.8678 102.979 78.5629 103.141C78.2613 103.304 78.0227 103.541 77.847 103.852C77.6746 104.164 77.5885 104.542 77.5885 104.986ZM84.6867 109.58V101.943H85.86V109.58H84.6867ZM87.7902 109.58V108.685L92.1254 103.117V103.037H87.9294V101.943H93.6368V102.878L89.4209 108.406V108.486H93.776V109.58H87.7902ZM96.7564 99.3978V109.58H95.5831V99.3978H96.7564ZM98.9054 109.58V101.943H100.079V109.58H98.9054ZM103.978 108.188L103.898 108.724C103.842 109.102 103.756 109.507 103.64 109.938C103.527 110.368 103.409 110.774 103.287 111.156C103.164 111.537 103.063 111.84 102.983 112.065H102.088C102.132 111.853 102.188 111.573 102.258 111.225C102.327 110.877 102.397 110.488 102.466 110.057C102.539 109.629 102.599 109.192 102.645 108.744L102.705 108.188H103.978ZM112.973 109.739C112.336 109.739 111.774 109.578 111.287 109.256C110.8 108.932 110.419 108.474 110.144 107.884C109.869 107.291 109.731 106.59 109.731 105.781C109.731 104.979 109.869 104.283 110.144 103.693C110.419 103.103 110.802 102.648 111.292 102.326C111.783 102.005 112.349 101.844 112.992 101.844C113.49 101.844 113.882 101.927 114.171 102.092C114.462 102.255 114.684 102.44 114.837 102.649C114.993 102.855 115.114 103.024 115.2 103.156H115.299V99.3978H116.473V109.58H115.339V108.406H115.2C115.114 108.545 114.991 108.721 114.832 108.933C114.673 109.142 114.446 109.329 114.151 109.495C113.856 109.657 113.463 109.739 112.973 109.739ZM113.132 108.685C113.602 108.685 114 108.562 114.325 108.317C114.65 108.068 114.897 107.725 115.066 107.288C115.235 106.847 115.319 106.338 115.319 105.761C115.319 105.191 115.236 104.693 115.071 104.265C114.905 103.834 114.66 103.499 114.335 103.261C114.01 103.019 113.609 102.898 113.132 102.898C112.634 102.898 112.22 103.025 111.889 103.281C111.561 103.532 111.314 103.876 111.148 104.31C110.986 104.741 110.904 105.224 110.904 105.761C110.904 106.305 110.987 106.799 111.153 107.243C111.322 107.684 111.571 108.035 111.899 108.297C112.23 108.555 112.641 108.685 113.132 108.685ZM121.031 109.759C120.548 109.759 120.108 109.667 119.714 109.485C119.32 109.3 119.006 109.033 118.774 108.685C118.542 108.333 118.426 107.909 118.426 107.412C118.426 106.974 118.513 106.62 118.685 106.348C118.857 106.073 119.088 105.858 119.376 105.702C119.664 105.546 119.982 105.43 120.33 105.354C120.682 105.274 121.035 105.211 121.389 105.165C121.853 105.105 122.23 105.06 122.518 105.031C122.81 104.997 123.022 104.943 123.154 104.867C123.29 104.79 123.358 104.658 123.358 104.469V104.429C123.358 103.938 123.224 103.557 122.955 103.286C122.69 103.014 122.288 102.878 121.747 102.878C121.187 102.878 120.748 103.001 120.43 103.246C120.112 103.491 119.888 103.753 119.759 104.031L118.645 103.634C118.844 103.17 119.109 102.808 119.441 102.55C119.775 102.288 120.14 102.106 120.534 102.003C120.932 101.897 121.323 101.844 121.708 101.844C121.953 101.844 122.235 101.874 122.553 101.933C122.874 101.99 123.184 102.107 123.482 102.286C123.784 102.465 124.034 102.735 124.233 103.097C124.432 103.458 124.531 103.942 124.531 104.548V109.58H123.358V108.545H123.299C123.219 108.711 123.086 108.889 122.901 109.077C122.715 109.266 122.468 109.427 122.16 109.56C121.852 109.692 121.476 109.759 121.031 109.759ZM121.21 108.705C121.674 108.705 122.066 108.613 122.384 108.431C122.705 108.249 122.947 108.014 123.11 107.725C123.275 107.437 123.358 107.134 123.358 106.815V105.742C123.308 105.801 123.199 105.856 123.03 105.906C122.864 105.952 122.672 105.993 122.453 106.03C122.238 106.063 122.027 106.093 121.822 106.119C121.62 106.143 121.456 106.162 121.33 106.179C121.025 106.219 120.74 106.283 120.475 106.373C120.213 106.459 120.001 106.59 119.838 106.766C119.679 106.938 119.6 107.173 119.6 107.472C119.6 107.879 119.75 108.188 120.052 108.396C120.357 108.602 120.743 108.705 121.21 108.705ZM127.846 104.986V109.58H126.673V99.3978H127.846V103.136H127.946C128.125 102.742 128.393 102.429 128.751 102.197C129.112 101.961 129.593 101.844 130.193 101.844C130.713 101.844 131.169 101.948 131.56 102.157C131.951 102.362 132.254 102.679 132.47 103.107C132.689 103.531 132.798 104.071 132.798 104.727V109.58H131.625V104.807C131.625 104.2 131.467 103.731 131.152 103.4C130.841 103.065 130.408 102.898 129.855 102.898C129.47 102.898 129.126 102.979 128.821 103.141C128.519 103.304 128.28 103.541 128.105 103.852C127.932 104.164 127.846 104.542 127.846 104.986ZM137.192 109.759C136.708 109.759 136.269 109.667 135.874 109.485C135.48 109.3 135.167 109.033 134.935 108.685C134.703 108.333 134.587 107.909 134.587 107.412C134.587 106.974 134.673 106.62 134.845 106.348C135.017 106.073 135.248 105.858 135.536 105.702C135.824 105.546 136.143 105.43 136.491 105.354C136.842 105.274 137.195 105.211 137.55 105.165C138.014 105.105 138.39 105.06 138.678 105.031C138.97 104.997 139.182 104.943 139.314 104.867C139.45 104.79 139.518 104.658 139.518 104.469V104.429C139.518 103.938 139.384 103.557 139.116 103.286C138.85 103.014 138.448 102.878 137.908 102.878C137.347 102.878 136.908 103.001 136.59 103.246C136.272 103.491 136.048 103.753 135.919 104.031L134.805 103.634C135.004 103.17 135.269 102.808 135.601 102.55C135.935 102.288 136.3 102.106 136.694 102.003C137.092 101.897 137.483 101.844 137.868 101.844C138.113 101.844 138.395 101.874 138.713 101.933C139.034 101.99 139.344 102.107 139.643 102.286C139.944 102.465 140.194 102.735 140.393 103.097C140.592 103.458 140.692 103.942 140.692 104.548V109.58H139.518V108.545H139.459C139.379 108.711 139.247 108.889 139.061 109.077C138.875 109.266 138.628 109.427 138.32 109.56C138.012 109.692 137.636 109.759 137.192 109.759ZM137.371 108.705C137.835 108.705 138.226 108.613 138.544 108.431C138.865 108.249 139.107 108.014 139.27 107.725C139.435 107.437 139.518 107.134 139.518 106.815V105.742C139.469 105.801 139.359 105.856 139.19 105.906C139.024 105.952 138.832 105.993 138.614 106.03C138.398 106.063 138.188 106.093 137.982 106.119C137.78 106.143 137.616 106.162 137.49 106.179C137.185 106.219 136.9 106.283 136.635 106.373C136.373 106.459 136.161 106.59 135.998 106.766C135.839 106.938 135.76 107.173 135.76 107.472C135.76 107.879 135.911 108.188 136.212 108.396C136.517 108.602 136.903 108.705 137.371 108.705ZM146.771 109.58V101.943H147.944V109.58H146.771ZM147.367 100.67C147.139 100.67 146.941 100.593 146.776 100.437C146.613 100.281 146.532 100.094 146.532 99.875C146.532 99.6563 146.613 99.469 146.776 99.3133C146.941 99.1575 147.139 99.0796 147.367 99.0796C147.596 99.0796 147.791 99.1575 147.954 99.3133C148.12 99.469 148.202 99.6563 148.202 99.875C148.202 100.094 148.12 100.281 147.954 100.437C147.791 100.593 147.596 100.67 147.367 100.67ZM150.849 112.443C150.65 112.443 150.472 112.427 150.317 112.394C150.161 112.364 150.053 112.334 149.993 112.304L150.292 111.27C150.577 111.343 150.829 111.369 151.047 111.349C151.266 111.33 151.46 111.232 151.629 111.056C151.801 110.884 151.959 110.604 152.101 110.216L152.32 109.619L149.496 101.943H150.769L152.877 108.028H152.957L155.064 101.943H156.337L153.096 110.693C152.95 111.088 152.769 111.414 152.554 111.673C152.338 111.934 152.088 112.128 151.803 112.254C151.521 112.38 151.203 112.443 150.849 112.443ZM157.886 109.58V101.943H159.059V109.58H157.886ZM158.482 100.67C158.254 100.67 158.057 100.593 157.891 100.437C157.728 100.281 157.647 100.094 157.647 99.875C157.647 99.6563 157.728 99.469 157.891 99.3133C158.057 99.1575 158.254 99.0796 158.482 99.0796C158.711 99.0796 158.907 99.1575 159.069 99.3133C159.235 99.469 159.318 99.6563 159.318 99.875C159.318 100.094 159.235 100.281 159.069 100.437C158.907 100.593 158.711 100.67 158.482 100.67ZM166.697 99.3978L166.597 106.716H165.444L165.345 99.3978H166.697ZM166.021 109.659C165.775 109.659 165.565 109.571 165.389 109.396C165.214 109.22 165.126 109.01 165.126 108.764C165.126 108.519 165.214 108.309 165.389 108.133C165.565 107.957 165.775 107.869 166.021 107.869C166.266 107.869 166.476 107.957 166.652 108.133C166.828 108.309 166.916 108.519 166.916 108.764C166.916 108.927 166.874 109.076 166.791 109.212C166.712 109.348 166.604 109.457 166.468 109.54C166.336 109.619 166.186 109.659 166.021 109.659Z" fill="black"/>
<rect x="61.2925" y="128.58" width="40" height="40" rx="20" fill="#51C975" fill-opacity="0.1"/>
<rect x="61.2925" y="128.58" width="40" height="40" rx="20" stroke="#51C975" stroke-width="2"/>
<path d="M73.426 143.398V153.58H72.193V144.69H72.1334L69.6476 146.341V145.088L72.193 143.398H73.426ZM79.6753 153.719C78.9262 153.719 78.2882 153.515 77.7612 153.107C77.2342 152.696 76.8315 152.101 76.5531 151.322C76.2747 150.54 76.1355 149.596 76.1355 148.489C76.1355 147.388 76.2747 146.449 76.5531 145.67C76.8349 144.888 77.2392 144.291 77.7662 143.88C78.2965 143.466 78.9329 143.259 79.6753 143.259C80.4177 143.259 81.0524 143.466 81.5794 143.88C82.1097 144.291 82.5141 144.888 82.7925 145.67C83.0742 146.449 83.2151 147.388 83.2151 148.489C83.2151 149.596 83.0759 150.54 82.7975 151.322C82.519 152.101 82.1163 152.696 81.5894 153.107C81.0624 153.515 80.4243 153.719 79.6753 153.719ZM79.6753 152.625C80.4177 152.625 80.9944 152.267 81.4054 151.551C81.8164 150.835 82.0219 149.814 82.0219 148.489C82.0219 147.607 81.9274 146.856 81.7385 146.237C81.5529 145.617 81.2844 145.144 80.9331 144.82C80.5851 144.495 80.1658 144.332 79.6753 144.332C78.9395 144.332 78.3645 144.695 77.9502 145.421C77.5359 146.144 77.3287 147.166 77.3287 148.489C77.3287 149.37 77.4215 150.119 77.6071 150.736C77.7927 151.352 78.0595 151.821 78.4075 152.143C78.7589 152.464 79.1814 152.625 79.6753 152.625ZM88.4253 153.719C87.6762 153.719 87.0382 153.515 86.5112 153.107C85.9842 152.696 85.5815 152.101 85.3031 151.322C85.0247 150.54 84.8855 149.596 84.8855 148.489C84.8855 147.388 85.0247 146.449 85.3031 145.67C85.5849 144.888 85.9892 144.291 86.5162 143.88C87.0465 143.466 87.6829 143.259 88.4253 143.259C89.1677 143.259 89.8024 143.466 90.3294 143.88C90.8597 144.291 91.2641 144.888 91.5425 145.67C91.8242 146.449 91.9651 147.388 91.9651 148.489C91.9651 149.596 91.8259 150.54 91.5475 151.322C91.269 152.101 90.8663 152.696 90.3394 153.107C89.8124 153.515 89.1743 153.719 88.4253 153.719ZM88.4253 152.625C89.1677 152.625 89.7444 152.267 90.1554 151.551C90.5664 150.835 90.7719 149.814 90.7719 148.489C90.7719 147.607 90.6774 146.856 90.4885 146.237C90.3029 145.617 90.0344 145.144 89.6831 144.82C89.3351 144.495 88.9158 144.332 88.4253 144.332C87.6895 144.332 87.1145 144.695 86.7002 145.421C86.2859 146.144 86.0787 147.166 86.0787 148.489C86.0787 149.37 86.1715 150.119 86.3571 150.736C86.5427 151.352 86.8095 151.821 87.1575 152.143C87.5089 152.464 87.9314 152.625 88.4253 152.625Z" fill="#51C975"/>
<path d="M44.0254 189.58V179.398H47.4658C48.2645 179.398 48.9175 179.542 49.4246 179.83C49.935 180.115 50.3128 180.501 50.5581 180.989C50.8034 181.476 50.926 182.019 50.926 182.619C50.926 183.219 50.8034 183.764 50.5581 184.255C50.3162 184.746 49.9416 185.137 49.4345 185.428C48.9274 185.717 48.2778 185.861 47.4857 185.861H45.0198V184.767H47.4459C47.9928 184.767 48.4319 184.673 48.7634 184.484C49.0948 184.295 49.3351 184.04 49.4842 183.718C49.6367 183.393 49.7129 183.027 49.7129 182.619C49.7129 182.212 49.6367 181.847 49.4842 181.526C49.3351 181.204 49.0931 180.952 48.7584 180.77C48.4236 180.584 47.9795 180.492 47.426 180.492H45.2584V189.58H44.0254ZM55.8727 189.739C55.1369 189.739 54.5022 189.576 53.9686 189.251C53.4383 188.923 53.029 188.466 52.7406 187.879C52.4556 187.289 52.3131 186.603 52.3131 185.821C52.3131 185.039 52.4556 184.349 52.7406 183.753C53.029 183.153 53.43 182.686 53.9438 182.351C54.4608 182.013 55.064 181.844 55.7534 181.844C56.1511 181.844 56.5439 181.91 56.9317 182.043C57.3195 182.175 57.6725 182.391 57.9906 182.689C58.3088 182.984 58.5624 183.375 58.7513 183.862C58.9402 184.349 59.0347 184.949 59.0347 185.662V186.159H53.1483V185.145H57.8415C57.8415 184.714 57.7553 184.33 57.583 183.992C57.4139 183.653 57.172 183.387 56.8571 183.191C56.5456 182.996 56.1777 182.898 55.7534 182.898C55.2861 182.898 54.8817 183.014 54.5403 183.246C54.2023 183.474 53.9421 183.773 53.7598 184.141C53.5775 184.509 53.4864 184.903 53.4864 185.324V186C53.4864 186.577 53.5858 187.066 53.7847 187.467C53.9868 187.864 54.2669 188.168 54.6249 188.376C54.9828 188.582 55.3988 188.685 55.8727 188.685C56.181 188.685 56.4594 188.642 56.708 188.555C56.9599 188.466 57.177 188.333 57.3592 188.158C57.5415 187.979 57.6824 187.757 57.7818 187.492L58.9154 187.81C58.796 188.194 58.5955 188.532 58.3138 188.824C58.0321 189.112 57.6841 189.338 57.2698 189.5C56.8555 189.659 56.3898 189.739 55.8727 189.739ZM60.8195 189.58V181.943H61.953V183.097H62.0325C62.1717 182.719 62.4236 182.412 62.7882 182.177C63.1528 181.942 63.5638 181.824 64.0212 181.824C64.1073 181.824 64.2151 181.826 64.3443 181.829C64.4736 181.832 64.5714 181.837 64.6377 181.844V183.037C64.5979 183.027 64.5067 183.012 64.3642 182.992C64.225 182.969 64.0775 182.957 63.9217 182.957C63.5505 182.957 63.2191 183.035 62.9274 183.191C62.6391 183.344 62.4104 183.556 62.2413 183.827C62.0756 184.096 61.9928 184.403 61.9928 184.747V189.58H60.8195ZM69.9075 181.943V182.938H65.7911V181.943H69.9075ZM67.024 189.58V180.889C67.024 180.452 67.1268 180.087 67.3323 179.795C67.5377 179.504 67.8046 179.285 68.1327 179.139C68.4608 178.993 68.8072 178.92 69.1717 178.92C69.4601 178.92 69.6954 178.944 69.8777 178.99C70.06 179.037 70.1959 179.08 70.2854 179.119L69.9473 180.134C69.8877 180.114 69.8048 180.089 69.6987 180.059C69.596 180.029 69.4601 180.014 69.2911 180.014C68.9033 180.014 68.6232 180.112 68.4509 180.308C68.2818 180.503 68.1973 180.79 68.1973 181.168V189.58H67.024ZM74.3397 189.739C73.6503 189.739 73.0454 189.575 72.5251 189.246C72.008 188.918 71.6037 188.459 71.312 187.869C71.0237 187.279 70.8795 186.59 70.8795 185.801C70.8795 185.006 71.0237 184.311 71.312 183.718C71.6037 183.125 72.008 182.664 72.5251 182.336C73.0454 182.008 73.6503 181.844 74.3397 181.844C75.0291 181.844 75.6323 182.008 76.1494 182.336C76.6697 182.664 77.0741 183.125 77.3624 183.718C77.6541 184.311 77.7999 185.006 77.7999 185.801C77.7999 186.59 77.6541 187.279 77.3624 187.869C77.0741 188.459 76.6697 188.918 76.1494 189.246C75.6323 189.575 75.0291 189.739 74.3397 189.739ZM74.3397 188.685C74.8634 188.685 75.2943 188.55 75.6323 188.282C75.9704 188.014 76.2206 187.661 76.383 187.223C76.5454 186.786 76.6266 186.312 76.6266 185.801C76.6266 185.291 76.5454 184.815 76.383 184.374C76.2206 183.934 75.9704 183.577 75.6323 183.305C75.2943 183.034 74.8634 182.898 74.3397 182.898C73.816 182.898 73.3852 183.034 73.0471 183.305C72.709 183.577 72.4588 183.934 72.2964 184.374C72.134 184.815 72.0528 185.291 72.0528 185.801C72.0528 186.312 72.134 186.786 72.2964 187.223C72.4588 187.661 72.709 188.014 73.0471 188.282C73.3852 188.55 73.816 188.685 74.3397 188.685ZM79.591 189.58V181.943H80.7245V183.097H80.804C80.9432 182.719 81.1951 182.412 81.5597 182.177C81.9243 181.942 82.3353 181.824 82.7927 181.824C82.8788 181.824 82.9866 181.826 83.1158 181.829C83.2451 181.832 83.3428 181.837 83.4091 181.844V183.037C83.3694 183.027 83.2782 183.012 83.1357 182.992C82.9965 182.969 82.849 182.957 82.6932 182.957C82.322 182.957 81.9906 183.035 81.6989 183.191C81.4106 183.344 81.1819 183.556 81.0128 183.827C80.8471 184.096 80.7642 184.403 80.7642 184.747V189.58H79.591ZM84.7999 189.58V181.943H85.9335V183.136H86.0329C86.192 182.729 86.4488 182.412 86.8035 182.187C87.1581 181.958 87.584 181.844 88.0812 181.844C88.585 181.844 89.0042 181.958 89.339 182.187C89.6771 182.412 89.9406 182.729 90.1295 183.136H90.209C90.4046 182.742 90.6979 182.429 91.089 182.197C91.4801 181.961 91.9491 181.844 92.496 181.844C93.1787 181.844 93.7372 182.058 94.1714 182.485C94.6056 182.909 94.8227 183.571 94.8227 184.469V189.58H93.6494V184.469C93.6494 183.905 93.4953 183.503 93.187 183.261C92.8788 183.019 92.5158 182.898 92.0982 182.898C91.5613 182.898 91.1453 183.06 90.8504 183.385C90.5554 183.706 90.4079 184.114 90.4079 184.608V189.58H89.2147V184.349C89.2147 183.915 89.0738 183.566 88.7921 183.3C88.5104 183.032 88.1475 182.898 87.7033 182.898C87.3984 182.898 87.1134 182.979 86.8482 183.141C86.5864 183.304 86.3743 183.529 86.2119 183.818C86.0528 184.103 85.9732 184.432 85.9732 184.807V189.58H84.7999ZM99.2151 189.759C98.7312 189.759 98.292 189.667 97.8976 189.485C97.5032 189.3 97.19 189.033 96.958 188.685C96.726 188.333 96.61 187.909 96.61 187.412C96.61 186.974 96.6961 186.62 96.8685 186.348C97.0408 186.073 97.2712 185.858 97.5595 185.702C97.8479 185.546 98.1661 185.43 98.5141 185.354C98.8654 185.274 99.2184 185.211 99.573 185.165C100.037 185.105 100.413 185.06 100.702 185.031C100.993 184.997 101.205 184.943 101.338 184.867C101.474 184.79 101.542 184.658 101.542 184.469V184.429C101.542 183.938 101.408 183.557 101.139 183.286C100.874 183.014 100.471 182.878 99.931 182.878C99.3708 182.878 98.9317 183.001 98.6135 183.246C98.2953 183.491 98.0716 183.753 97.9423 184.031L96.8287 183.634C97.0276 183.17 97.2927 182.808 97.6242 182.55C97.9589 182.288 98.3235 182.106 98.7179 182.003C99.1156 181.897 99.5067 181.844 99.8912 181.844C100.136 181.844 100.418 181.874 100.736 181.933C101.058 181.99 101.368 182.107 101.666 182.286C101.968 182.465 102.218 182.735 102.417 183.097C102.616 183.458 102.715 183.942 102.715 184.548V189.58H101.542V188.545H101.482C101.403 188.711 101.27 188.889 101.084 189.077C100.899 189.266 100.652 189.427 100.344 189.56C100.035 189.692 99.6592 189.759 99.2151 189.759ZM99.394 188.705C99.8581 188.705 100.249 188.613 100.567 188.431C100.889 188.249 101.131 188.014 101.293 187.725C101.459 187.437 101.542 187.134 101.542 186.815V185.742C101.492 185.801 101.383 185.856 101.214 185.906C101.048 185.952 100.856 185.993 100.637 186.03C100.422 186.063 100.211 186.093 100.006 186.119C99.8034 186.143 99.6393 186.162 99.5134 186.179C99.2084 186.219 98.9234 186.283 98.6582 186.373C98.3964 186.459 98.1843 186.59 98.0219 186.766C97.8628 186.938 97.7832 187.173 97.7832 187.472C97.7832 187.879 97.9341 188.188 98.2357 188.396C98.5406 188.602 98.9267 188.705 99.394 188.705ZM106.03 184.986V189.58H104.857V181.943H105.99V183.136H106.09C106.269 182.749 106.54 182.437 106.905 182.202C107.269 181.963 107.74 181.844 108.317 181.844C108.834 181.844 109.286 181.95 109.674 182.162C110.062 182.371 110.363 182.689 110.579 183.117C110.794 183.541 110.902 184.078 110.902 184.727V189.58H109.729V184.807C109.729 184.207 109.573 183.74 109.261 183.405C108.95 183.067 108.522 182.898 107.979 182.898C107.604 182.898 107.269 182.979 106.974 183.141C106.683 183.304 106.452 183.541 106.283 183.852C106.114 184.164 106.03 184.542 106.03 184.986ZM118.455 183.653L117.401 183.952C117.335 183.776 117.237 183.605 117.108 183.44C116.982 183.271 116.81 183.131 116.591 183.022C116.372 182.913 116.092 182.858 115.751 182.858C115.283 182.858 114.894 182.966 114.582 183.181C114.274 183.393 114.12 183.663 114.12 183.992C114.12 184.283 114.226 184.514 114.438 184.683C114.65 184.852 114.982 184.992 115.432 185.105L116.566 185.384C117.249 185.549 117.757 185.803 118.092 186.144C118.427 186.482 118.594 186.918 118.594 187.452C118.594 187.889 118.468 188.28 118.216 188.625C117.968 188.97 117.62 189.242 117.172 189.44C116.725 189.639 116.205 189.739 115.611 189.739C114.832 189.739 114.188 189.57 113.677 189.232C113.167 188.894 112.844 188.4 112.708 187.75L113.822 187.472C113.928 187.883 114.128 188.191 114.423 188.396C114.721 188.602 115.111 188.705 115.591 188.705C116.138 188.705 116.573 188.589 116.894 188.357C117.219 188.121 117.381 187.84 117.381 187.511C117.381 187.246 117.288 187.024 117.103 186.845C116.917 186.663 116.632 186.527 116.248 186.438L114.975 186.139C114.276 185.974 113.762 185.717 113.434 185.369C113.109 185.017 112.947 184.578 112.947 184.051C112.947 183.62 113.068 183.239 113.31 182.908C113.555 182.576 113.888 182.316 114.309 182.127C114.733 181.938 115.214 181.844 115.751 181.844C116.506 181.844 117.1 182.01 117.53 182.341C117.965 182.672 118.273 183.11 118.455 183.653Z" fill="black"/>
<rect x="161.292" y="128.58" width="40" height="40" rx="20" fill="#51C975" fill-opacity="0.1"/>
<rect x="161.292" y="128.58" width="40" height="40" rx="20" stroke="#51C975" stroke-width="2"/>
<path d="M173.426 143.398V153.58H172.193V144.69H172.133L169.648 146.341V145.088L172.193 143.398H173.426ZM179.675 153.719C178.926 153.719 178.288 153.515 177.761 153.107C177.234 152.696 176.832 152.101 176.553 151.322C176.275 150.54 176.136 149.596 176.136 148.489C176.136 147.388 176.275 146.449 176.553 145.67C176.835 144.888 177.239 144.291 177.766 143.88C178.297 143.466 178.933 143.259 179.675 143.259C180.418 143.259 181.052 143.466 181.579 143.88C182.11 144.291 182.514 144.888 182.792 145.67C183.074 146.449 183.215 147.388 183.215 148.489C183.215 149.596 183.076 150.54 182.797 151.322C182.519 152.101 182.116 152.696 181.589 153.107C181.062 153.515 180.424 153.719 179.675 153.719ZM179.675 152.625C180.418 152.625 180.994 152.267 181.405 151.551C181.816 150.835 182.022 149.814 182.022 148.489C182.022 147.607 181.927 146.856 181.739 146.237C181.553 145.617 181.284 145.144 180.933 144.82C180.585 144.495 180.166 144.332 179.675 144.332C178.939 144.332 178.364 144.695 177.95 145.421C177.536 146.144 177.329 147.166 177.329 148.489C177.329 149.37 177.422 150.119 177.607 150.736C177.793 151.352 178.06 151.821 178.408 152.143C178.759 152.464 179.181 152.625 179.675 152.625ZM188.425 153.719C187.676 153.719 187.038 153.515 186.511 153.107C185.984 152.696 185.582 152.101 185.303 151.322C185.025 150.54 184.886 149.596 184.886 148.489C184.886 147.388 185.025 146.449 185.303 145.67C185.585 144.888 185.989 144.291 186.516 143.88C187.047 143.466 187.683 143.259 188.425 143.259C189.168 143.259 189.802 143.466 190.329 143.88C190.86 144.291 191.264 144.888 191.542 145.67C191.824 146.449 191.965 147.388 191.965 148.489C191.965 149.596 191.826 150.54 191.547 151.322C191.269 152.101 190.866 152.696 190.339 153.107C189.812 153.515 189.174 153.719 188.425 153.719ZM188.425 152.625C189.168 152.625 189.744 152.267 190.155 151.551C190.566 150.835 190.772 149.814 190.772 148.489C190.772 147.607 190.677 146.856 190.489 146.237C190.303 145.617 190.034 145.144 189.683 144.82C189.335 144.495 188.916 144.332 188.425 144.332C187.689 144.332 187.114 144.695 186.7 145.421C186.286 146.144 186.079 147.166 186.079 148.489C186.079 149.37 186.172 150.119 186.357 150.736C186.543 151.352 186.81 151.821 187.158 152.143C187.509 152.464 187.931 152.625 188.425 152.625Z" fill="#51C975"/>
<path d="M147.025 189.58V179.398H153.17V180.492H148.258V183.932H152.852V185.026H148.258V188.486H153.25V189.58H147.025ZM155.234 189.58V181.943H156.367V183.097H156.447C156.586 182.719 156.838 182.412 157.202 182.177C157.567 181.942 157.978 181.824 158.435 181.824C158.521 181.824 158.629 181.826 158.758 181.829C158.888 181.832 158.985 181.837 159.052 181.844V183.037C159.012 183.027 158.921 183.012 158.778 182.992C158.639 182.969 158.492 182.957 158.336 182.957C157.965 182.957 157.633 183.035 157.341 183.191C157.053 183.344 156.824 183.556 156.655 183.827C156.49 184.096 156.407 184.403 156.407 184.747V189.58H155.234ZM160.443 189.58V181.943H161.616V189.58H160.443ZM161.039 180.67C160.81 180.67 160.613 180.593 160.447 180.437C160.285 180.281 160.204 180.094 160.204 179.875C160.204 179.656 160.285 179.469 160.447 179.313C160.613 179.157 160.81 179.08 161.039 179.08C161.268 179.08 161.463 179.157 161.626 179.313C161.791 179.469 161.874 179.656 161.874 179.875C161.874 180.094 161.791 180.281 161.626 180.437C161.463 180.593 161.268 180.67 161.039 180.67ZM169.174 183.653L168.12 183.952C168.054 183.776 167.956 183.605 167.827 183.44C167.701 183.271 167.528 183.131 167.31 183.022C167.091 182.913 166.811 182.858 166.469 182.858C166.002 182.858 165.613 182.966 165.301 183.181C164.993 183.393 164.839 183.663 164.839 183.992C164.839 184.283 164.945 184.514 165.157 184.683C165.369 184.852 165.7 184.992 166.151 185.105L167.285 185.384C167.967 185.549 168.476 185.803 168.811 186.144C169.146 186.482 169.313 186.918 169.313 187.452C169.313 187.889 169.187 188.28 168.935 188.625C168.687 188.97 168.339 189.242 167.891 189.44C167.444 189.639 166.923 189.739 166.33 189.739C165.551 189.739 164.907 189.57 164.396 189.232C163.886 188.894 163.563 188.4 163.427 187.75L164.54 187.472C164.646 187.883 164.847 188.191 165.142 188.396C165.44 188.602 165.83 188.705 166.31 188.705C166.857 188.705 167.291 188.589 167.613 188.357C167.938 188.121 168.1 187.84 168.1 187.511C168.1 187.246 168.007 187.024 167.822 186.845C167.636 186.663 167.351 186.527 166.966 186.438L165.694 186.139C164.994 185.974 164.481 185.717 164.153 185.369C163.828 185.017 163.665 184.578 163.665 184.051C163.665 183.62 163.786 183.239 164.028 182.908C164.274 182.576 164.607 182.316 165.028 182.127C165.452 181.938 165.932 181.844 166.469 181.844C167.225 181.844 167.818 182.01 168.249 182.341C168.683 182.672 168.992 183.11 169.174 183.653ZM165.893 189.54H166.867L166.788 189.938C167.046 189.977 167.283 190.085 167.498 190.261C167.714 190.44 167.822 190.723 167.822 191.111C167.822 191.538 167.644 191.886 167.29 192.155C166.938 192.427 166.42 192.563 165.734 192.563L165.694 191.787C166.002 191.787 166.257 191.737 166.459 191.638C166.665 191.542 166.768 191.379 166.768 191.151C166.768 190.922 166.683 190.766 166.514 190.683C166.345 190.6 166.072 190.544 165.694 190.514L165.893 189.54ZM174.281 189.739C173.545 189.739 172.91 189.576 172.377 189.251C171.847 188.923 171.437 188.466 171.149 187.879C170.864 187.289 170.721 186.603 170.721 185.821C170.721 185.039 170.864 184.349 171.149 183.753C171.437 183.153 171.838 182.686 172.352 182.351C172.869 182.013 173.472 181.844 174.162 181.844C174.559 181.844 174.952 181.91 175.34 182.043C175.728 182.175 176.081 182.391 176.399 182.689C176.717 182.984 176.971 183.375 177.159 183.862C177.348 184.349 177.443 184.949 177.443 185.662V186.159H171.557V185.145H176.25C176.25 184.714 176.164 184.33 175.991 183.992C175.822 183.653 175.58 183.387 175.265 183.191C174.954 182.996 174.586 182.898 174.162 182.898C173.694 182.898 173.29 183.014 172.949 183.246C172.61 183.474 172.35 183.773 172.168 184.141C171.986 184.509 171.895 184.903 171.895 185.324V186C171.895 186.577 171.994 187.066 172.193 187.467C172.395 187.864 172.675 188.168 173.033 188.376C173.391 188.582 173.807 188.685 174.281 188.685C174.589 188.685 174.868 188.642 175.116 188.555C175.368 188.466 175.585 188.333 175.767 188.158C175.95 187.979 176.091 187.757 176.19 187.492L177.324 187.81C177.204 188.194 177.004 188.532 176.722 188.824C176.44 189.112 176.092 189.338 175.678 189.5C175.264 189.659 174.798 189.739 174.281 189.739ZM179.387 189.58V179.398H180.56V183.156H180.659C180.746 183.024 180.865 182.855 181.017 182.649C181.173 182.44 181.395 182.255 181.684 182.092C181.975 181.927 182.37 181.844 182.867 181.844C183.51 181.844 184.077 182.005 184.567 182.326C185.058 182.648 185.441 183.103 185.716 183.693C185.991 184.283 186.128 184.979 186.128 185.781C186.128 186.59 185.991 187.291 185.716 187.884C185.441 188.474 185.059 188.932 184.572 189.256C184.085 189.578 183.523 189.739 182.887 189.739C182.396 189.739 182.003 189.657 181.708 189.495C181.414 189.329 181.186 189.142 181.027 188.933C180.868 188.721 180.746 188.545 180.659 188.406H180.52V189.58H179.387ZM180.54 185.761C180.54 186.338 180.625 186.847 180.794 187.288C180.963 187.725 181.21 188.068 181.534 188.317C181.859 188.562 182.257 188.685 182.728 188.685C183.218 188.685 183.628 188.555 183.956 188.297C184.287 188.035 184.536 187.684 184.701 187.243C184.87 186.799 184.955 186.305 184.955 185.761C184.955 185.224 184.872 184.741 184.706 184.31C184.544 183.876 184.297 183.532 183.966 183.281C183.637 183.025 183.225 182.898 182.728 182.898C182.25 182.898 181.849 183.019 181.525 183.261C181.2 183.499 180.954 183.834 180.789 184.265C180.623 184.693 180.54 185.191 180.54 185.761ZM187.923 189.58V181.943H189.096V189.58H187.923ZM188.52 180.67C188.291 180.67 188.094 180.593 187.928 180.437C187.766 180.281 187.684 180.094 187.684 179.875C187.684 179.656 187.766 179.469 187.928 179.313C188.094 179.157 188.291 179.08 188.52 179.08C188.748 179.08 188.944 179.157 189.106 179.313C189.272 179.469 189.355 179.656 189.355 179.875C189.355 180.094 189.272 180.281 189.106 180.437C188.944 180.593 188.748 180.67 188.52 180.67ZM192.419 179.398V189.58H191.245V179.398H192.419ZM194.568 189.58V181.943H195.741V189.58H194.568ZM195.164 180.67C194.935 180.67 194.738 180.593 194.572 180.437C194.41 180.281 194.329 180.094 194.329 179.875C194.329 179.656 194.41 179.469 194.572 179.313C194.738 179.157 194.935 179.08 195.164 179.08C195.393 179.08 195.588 179.157 195.751 179.313C195.916 179.469 195.999 179.656 195.999 179.875C195.999 180.094 195.916 180.281 195.751 180.437C195.588 180.593 195.393 180.67 195.164 180.67ZM197.89 189.58V181.943H199.023V183.097H199.103C199.242 182.719 199.494 182.412 199.859 182.177C200.223 181.942 200.634 181.824 201.091 181.824C201.178 181.824 201.285 181.826 201.415 181.829C201.544 181.832 201.642 181.837 201.708 181.844V183.037C201.668 183.027 201.577 183.012 201.435 182.992C201.295 182.969 201.148 182.957 200.992 182.957C200.621 182.957 200.289 183.035 199.998 183.191C199.709 183.344 199.481 183.556 199.312 183.827C199.146 184.096 199.063 184.403 199.063 184.747V189.58H197.89ZM204.272 179.398V189.58H203.099V179.398H204.272ZM206.421 189.58V181.943H207.594V189.58H206.421ZM207.018 180.67C206.789 180.67 206.592 180.593 206.426 180.437C206.264 180.281 206.182 180.094 206.182 179.875C206.182 179.656 206.264 179.469 206.426 179.313C206.592 179.157 206.789 179.08 207.018 179.08C207.246 179.08 207.442 179.157 207.604 179.313C207.77 179.469 207.853 179.656 207.853 179.875C207.853 180.094 207.77 180.281 207.604 180.437C207.442 180.593 207.246 180.67 207.018 180.67ZM210.837 186.795L210.817 185.344H211.056L214.397 181.943H215.848L212.289 185.543H212.189L210.837 186.795ZM209.743 189.58V179.398H210.917V189.58H209.743ZM214.596 189.58L211.613 185.801L212.448 184.986L216.087 189.58H214.596Z" fill="black"/>
<rect x="261.292" y="128.58" width="40" height="40" rx="20" fill="#51C975" fill-opacity="0.1"/>
<rect x="261.292" y="128.58" width="40" height="40" rx="20" stroke="#51C975" stroke-width="2"/>
<path d="M273.426 143.398V153.58H272.193V144.69H272.133L269.648 146.341V145.088L272.193 143.398H273.426ZM279.675 153.719C278.926 153.719 278.288 153.515 277.761 153.107C277.234 152.696 276.832 152.101 276.553 151.322C276.275 150.54 276.136 149.596 276.136 148.489C276.136 147.388 276.275 146.449 276.553 145.67C276.835 144.888 277.239 144.291 277.766 143.88C278.297 143.466 278.933 143.259 279.675 143.259C280.418 143.259 281.052 143.466 281.579 143.88C282.11 144.291 282.514 144.888 282.792 145.67C283.074 146.449 283.215 147.388 283.215 148.489C283.215 149.596 283.076 150.54 282.797 151.322C282.519 152.101 282.116 152.696 281.589 153.107C281.062 153.515 280.424 153.719 279.675 153.719ZM279.675 152.625C280.418 152.625 280.994 152.267 281.405 151.551C281.816 150.835 282.022 149.814 282.022 148.489C282.022 147.607 281.927 146.856 281.739 146.237C281.553 145.617 281.284 145.144 280.933 144.82C280.585 144.495 280.166 144.332 279.675 144.332C278.939 144.332 278.364 144.695 277.95 145.421C277.536 146.144 277.329 147.166 277.329 148.489C277.329 149.37 277.422 150.119 277.607 150.736C277.793 151.352 278.06 151.821 278.408 152.143C278.759 152.464 279.181 152.625 279.675 152.625ZM288.425 153.719C287.676 153.719 287.038 153.515 286.511 153.107C285.984 152.696 285.582 152.101 285.303 151.322C285.025 150.54 284.886 149.596 284.886 148.489C284.886 147.388 285.025 146.449 285.303 145.67C285.585 144.888 285.989 144.291 286.516 143.88C287.047 143.466 287.683 143.259 288.425 143.259C289.168 143.259 289.802 143.466 290.329 143.88C290.86 144.291 291.264 144.888 291.542 145.67C291.824 146.449 291.965 147.388 291.965 148.489C291.965 149.596 291.826 150.54 291.547 151.322C291.269 152.101 290.866 152.696 290.339 153.107C289.812 153.515 289.174 153.719 288.425 153.719ZM288.425 152.625C289.168 152.625 289.744 152.267 290.155 151.551C290.566 150.835 290.772 149.814 290.772 148.489C290.772 147.607 290.677 146.856 290.489 146.237C290.303 145.617 290.034 145.144 289.683 144.82C289.335 144.495 288.916 144.332 288.425 144.332C287.689 144.332 287.114 144.695 286.7 145.421C286.286 146.144 286.079 147.166 286.079 148.489C286.079 149.37 286.172 150.119 286.357 150.736C286.543 151.352 286.81 151.821 287.158 152.143C287.509 152.464 287.931 152.625 288.425 152.625Z" fill="#51C975"/>
<path d="M238.525 189.58V179.398H242.085C242.794 179.398 243.379 179.52 243.84 179.766C244.301 180.008 244.644 180.334 244.869 180.745C245.095 181.153 245.207 181.605 245.207 182.102C245.207 182.54 245.129 182.901 244.974 183.186C244.821 183.471 244.619 183.697 244.367 183.862C244.118 184.028 243.848 184.151 243.557 184.23V184.33C243.868 184.349 244.181 184.459 244.496 184.658C244.811 184.857 245.075 185.142 245.287 185.513C245.499 185.884 245.605 186.338 245.605 186.875C245.605 187.385 245.489 187.845 245.257 188.252C245.025 188.66 244.659 188.983 244.158 189.222C243.658 189.46 243.006 189.58 242.204 189.58H238.525ZM239.758 188.486H242.204C243.01 188.486 243.582 188.33 243.92 188.019C244.261 187.704 244.432 187.322 244.432 186.875C244.432 186.53 244.344 186.212 244.168 185.92C243.993 185.626 243.742 185.39 243.417 185.215C243.093 185.036 242.708 184.946 242.264 184.946H239.758V188.486ZM239.758 183.872H242.045C242.417 183.872 242.751 183.799 243.05 183.653C243.351 183.508 243.59 183.302 243.765 183.037C243.944 182.772 244.034 182.46 244.034 182.102C244.034 181.655 243.878 181.275 243.567 180.964C243.255 180.649 242.761 180.492 242.085 180.492H239.758V183.872ZM250.674 189.739C249.938 189.739 249.303 189.576 248.769 189.251C248.239 188.923 247.83 188.466 247.541 187.879C247.256 187.289 247.114 186.603 247.114 185.821C247.114 185.039 247.256 184.349 247.541 183.753C247.83 183.153 248.231 182.686 248.745 182.351C249.262 182.013 249.865 181.844 250.554 181.844C250.952 181.844 251.345 181.91 251.732 182.043C252.12 182.175 252.473 182.391 252.791 182.689C253.11 182.984 253.363 183.375 253.552 183.862C253.741 184.349 253.835 184.949 253.835 185.662V186.159H247.949V185.145H252.642C252.642 184.714 252.556 184.33 252.384 183.992C252.215 183.653 251.973 183.387 251.658 183.191C251.346 182.996 250.978 182.898 250.554 182.898C250.087 182.898 249.683 183.014 249.341 183.246C249.003 183.474 248.743 183.773 248.561 184.141C248.378 184.509 248.287 184.903 248.287 185.324V186C248.287 186.577 248.387 187.066 248.585 187.467C248.788 187.864 249.068 188.168 249.426 188.376C249.784 188.582 250.2 188.685 250.674 188.685C250.982 188.685 251.26 188.642 251.509 188.555C251.761 188.466 251.978 188.333 252.16 188.158C252.342 187.979 252.483 187.757 252.583 187.492L253.716 187.81C253.597 188.194 253.396 188.532 253.115 188.824C252.833 189.112 252.485 189.338 252.071 189.5C251.656 189.659 251.191 189.739 250.674 189.739ZM261.029 183.653L259.975 183.952C259.909 183.776 259.811 183.605 259.682 183.44C259.556 183.271 259.384 183.131 259.165 183.022C258.946 182.913 258.666 182.858 258.325 182.858C257.857 182.858 257.468 182.966 257.156 183.181C256.848 183.393 256.694 183.663 256.694 183.992C256.694 184.283 256.8 184.514 257.012 184.683C257.224 184.852 257.556 184.992 258.007 185.105L259.14 185.384C259.823 185.549 260.332 185.803 260.666 186.144C261.001 186.482 261.169 186.918 261.169 187.452C261.169 187.889 261.043 188.28 260.791 188.625C260.542 188.97 260.194 189.242 259.747 189.44C259.299 189.639 258.779 189.739 258.186 189.739C257.407 189.739 256.762 189.57 256.252 189.232C255.741 188.894 255.418 188.4 255.282 187.75L256.396 187.472C256.502 187.883 256.702 188.191 256.997 188.396C257.296 188.602 257.685 188.705 258.166 188.705C258.713 188.705 259.147 188.589 259.468 188.357C259.793 188.121 259.955 187.84 259.955 187.511C259.955 187.246 259.863 187.024 259.677 186.845C259.491 186.663 259.206 186.527 258.822 186.438L257.549 186.139C256.85 185.974 256.336 185.717 256.008 185.369C255.683 185.017 255.521 184.578 255.521 184.051C255.521 183.62 255.642 183.239 255.884 182.908C256.129 182.576 256.462 182.316 256.883 182.127C257.307 181.938 257.788 181.844 258.325 181.844C259.08 181.844 259.674 182.01 260.105 182.341C260.539 182.672 260.847 183.11 261.029 183.653ZM266.256 181.943V182.938H262.298V181.943H266.256ZM263.452 180.114H264.625V187.392C264.625 187.724 264.673 187.972 264.769 188.138C264.869 188.3 264.995 188.41 265.147 188.466C265.303 188.519 265.467 188.545 265.639 188.545C265.769 188.545 265.875 188.539 265.957 188.526C266.04 188.509 266.107 188.496 266.156 188.486L266.395 189.54C266.315 189.57 266.204 189.599 266.062 189.629C265.919 189.662 265.739 189.679 265.52 189.679C265.188 189.679 264.864 189.608 264.545 189.465C264.231 189.323 263.969 189.106 263.76 188.814C263.554 188.522 263.452 188.154 263.452 187.71V180.114ZM272.117 189.58V179.398H275.558C276.356 179.398 277.009 179.542 277.516 179.83C278.027 180.115 278.405 180.501 278.65 180.989C278.895 181.476 279.018 182.019 279.018 182.619C279.018 183.219 278.895 183.764 278.65 184.255C278.408 184.746 278.033 185.137 277.526 185.428C277.019 185.717 276.37 185.861 275.577 185.861H273.112V184.767H275.538C276.085 184.767 276.524 184.673 276.855 184.484C277.187 184.295 277.427 184.04 277.576 183.718C277.729 183.393 277.805 183.027 277.805 182.619C277.805 182.212 277.729 181.847 277.576 181.526C277.427 181.204 277.185 180.952 276.85 180.77C276.515 180.584 276.071 180.492 275.518 180.492H273.35V189.58H272.117ZM280.845 189.58V181.943H281.978V183.097H282.058C282.197 182.719 282.449 182.412 282.814 182.177C283.178 181.942 283.589 181.824 284.047 181.824C284.133 181.824 284.24 181.826 284.37 181.829C284.499 181.832 284.597 181.837 284.663 181.844V183.037C284.623 183.027 284.532 183.012 284.39 182.992C284.25 182.969 284.103 182.957 283.947 182.957C283.576 182.957 283.244 183.035 282.953 183.191C282.664 183.344 282.436 183.556 282.267 183.827C282.101 184.096 282.018 184.403 282.018 184.747V189.58H280.845ZM288.301 189.759C287.817 189.759 287.378 189.667 286.984 189.485C286.589 189.3 286.276 189.033 286.044 188.685C285.812 188.333 285.696 187.909 285.696 187.412C285.696 186.974 285.782 186.62 285.954 186.348C286.127 186.073 286.357 185.858 286.645 185.702C286.934 185.546 287.252 185.43 287.6 185.354C287.951 185.274 288.304 185.211 288.659 185.165C289.123 185.105 289.499 185.06 289.788 185.031C290.079 184.997 290.291 184.943 290.424 184.867C290.56 184.79 290.628 184.658 290.628 184.469V184.429C290.628 183.938 290.493 183.557 290.225 183.286C289.96 183.014 289.557 182.878 289.017 182.878C288.457 182.878 288.018 183.001 287.699 183.246C287.381 183.491 287.158 183.753 287.028 184.031L285.915 183.634C286.114 183.17 286.379 182.808 286.71 182.55C287.045 182.288 287.409 182.106 287.804 182.003C288.202 181.897 288.593 181.844 288.977 181.844C289.222 181.844 289.504 181.874 289.822 181.933C290.144 181.99 290.454 182.107 290.752 182.286C291.054 182.465 291.304 182.735 291.503 183.097C291.702 183.458 291.801 183.942 291.801 184.548V189.58H290.628V188.545H290.568C290.489 188.711 290.356 188.889 290.17 189.077C289.985 189.266 289.738 189.427 289.43 189.56C289.121 189.692 288.745 189.759 288.301 189.759ZM288.48 188.705C288.944 188.705 289.335 188.613 289.653 188.431C289.975 188.249 290.217 188.014 290.379 187.725C290.545 187.437 290.628 187.134 290.628 186.815V185.742C290.578 185.801 290.469 185.856 290.3 185.906C290.134 185.952 289.942 185.993 289.723 186.03C289.507 186.063 289.297 186.093 289.091 186.119C288.889 186.143 288.725 186.162 288.599 186.179C288.294 186.219 288.009 186.283 287.744 186.373C287.482 186.459 287.27 186.59 287.108 186.766C286.949 186.938 286.869 187.173 286.869 187.472C286.869 187.879 287.02 188.188 287.322 188.396C287.627 188.602 288.013 188.705 288.48 188.705ZM297.045 189.739C296.329 189.739 295.712 189.57 295.195 189.232C294.678 188.894 294.281 188.428 294.002 187.835C293.724 187.241 293.585 186.563 293.585 185.801C293.585 185.026 293.727 184.341 294.012 183.748C294.3 183.151 294.702 182.686 295.215 182.351C295.732 182.013 296.336 181.844 297.025 181.844C297.562 181.844 298.046 181.943 298.477 182.142C298.907 182.341 299.26 182.619 299.536 182.977C299.811 183.335 299.981 183.753 300.048 184.23H298.874C298.785 183.882 298.586 183.574 298.278 183.305C297.973 183.034 297.562 182.898 297.045 182.898C296.587 182.898 296.186 183.017 295.842 183.256C295.5 183.491 295.233 183.824 295.041 184.255C294.852 184.683 294.758 185.185 294.758 185.761C294.758 186.351 294.851 186.865 295.036 187.303C295.225 187.74 295.49 188.08 295.832 188.322C296.176 188.564 296.581 188.685 297.045 188.685C297.35 188.685 297.626 188.632 297.875 188.526C298.124 188.42 298.334 188.267 298.506 188.068C298.679 187.869 298.801 187.631 298.874 187.352H300.048C299.981 187.803 299.817 188.209 299.555 188.57C299.297 188.928 298.954 189.213 298.526 189.425C298.102 189.634 297.608 189.739 297.045 189.739ZM305.084 181.943V182.938H301.126V181.943H305.084ZM302.28 180.114H303.453V187.392C303.453 187.724 303.501 187.972 303.597 188.138C303.697 188.3 303.823 188.41 303.975 188.466C304.131 188.519 304.295 188.545 304.467 188.545C304.597 188.545 304.703 188.539 304.786 188.526C304.868 188.509 304.935 188.496 304.984 188.486L305.223 189.54C305.144 189.57 305.032 189.599 304.89 189.629C304.747 189.662 304.567 189.679 304.348 189.679C304.017 189.679 303.692 189.608 303.374 189.465C303.059 189.323 302.797 189.106 302.588 188.814C302.383 188.522 302.28 188.154 302.28 187.71V180.114ZM306.849 189.58V181.943H308.022V189.58H306.849ZM307.445 180.67C307.217 180.67 307.019 180.593 306.854 180.437C306.691 180.281 306.61 180.094 306.61 179.875C306.61 179.656 306.691 179.469 306.854 179.313C307.019 179.157 307.217 179.08 307.445 179.08C307.674 179.08 307.87 179.157 308.032 179.313C308.198 179.469 308.281 179.656 308.281 179.875C308.281 180.094 308.198 180.281 308.032 180.437C307.87 180.593 307.674 180.67 307.445 180.67ZM313.273 189.739C312.557 189.739 311.941 189.57 311.424 189.232C310.907 188.894 310.509 188.428 310.231 187.835C309.952 187.241 309.813 186.563 309.813 185.801C309.813 185.026 309.956 184.341 310.241 183.748C310.529 183.151 310.93 182.686 311.444 182.351C311.961 182.013 312.564 181.844 313.253 181.844C313.79 181.844 314.274 181.943 314.705 182.142C315.136 182.341 315.489 182.619 315.764 182.977C316.039 183.335 316.21 183.753 316.276 184.23H315.103C315.013 183.882 314.814 183.574 314.506 183.305C314.201 183.034 313.79 182.898 313.273 182.898C312.816 182.898 312.415 183.017 312.07 183.256C311.729 183.491 311.462 183.824 311.27 184.255C311.081 184.683 310.986 185.185 310.986 185.761C310.986 186.351 311.079 186.865 311.265 187.303C311.454 187.74 311.719 188.08 312.06 188.322C312.405 188.564 312.809 188.685 313.273 188.685C313.578 188.685 313.855 188.632 314.104 188.526C314.352 188.42 314.563 188.267 314.735 188.068C314.907 187.869 315.03 187.631 315.103 187.352H316.276C316.21 187.803 316.046 188.209 315.784 188.57C315.525 188.928 315.182 189.213 314.755 189.425C314.331 189.634 313.837 189.739 313.273 189.739ZM321.193 189.739C320.457 189.739 319.823 189.576 319.289 189.251C318.759 188.923 318.349 188.466 318.061 187.879C317.776 187.289 317.633 186.603 317.633 185.821C317.633 185.039 317.776 184.349 318.061 183.753C318.349 183.153 318.75 182.686 319.264 182.351C319.781 182.013 320.384 181.844 321.074 181.844C321.471 181.844 321.864 181.91 322.252 182.043C322.64 182.175 322.993 182.391 323.311 182.689C323.629 182.984 323.883 183.375 324.072 183.862C324.261 184.349 324.355 184.949 324.355 185.662V186.159H318.469V185.145H323.162C323.162 184.714 323.076 184.33 322.903 183.992C322.734 183.653 322.492 183.387 322.177 183.191C321.866 182.996 321.498 182.898 321.074 182.898C320.606 182.898 320.202 183.014 319.861 183.246C319.523 183.474 319.262 183.773 319.08 184.141C318.898 184.509 318.807 184.903 318.807 185.324V186C318.807 186.577 318.906 187.066 319.105 187.467C319.307 187.864 319.587 188.168 319.945 188.376C320.303 188.582 320.719 188.685 321.193 188.685C321.501 188.685 321.78 188.642 322.028 188.555C322.28 188.466 322.497 188.333 322.68 188.158C322.862 187.979 323.003 187.757 323.102 187.492L324.236 187.81C324.116 188.194 323.916 188.532 323.634 188.824C323.352 189.112 323.004 189.338 322.59 189.5C322.176 189.659 321.71 189.739 321.193 189.739Z" fill="black"/>
<rect x="361.292" y="128.58" width="40" height="40" rx="20" fill="#51C975" fill-opacity="0.1"/>
<rect x="361.292" y="128.58" width="40" height="40" rx="20" stroke="#51C975" stroke-width="2"/>
<path d="M373.426 143.398V153.58H372.193V144.69H372.133L369.648 146.341V145.088L372.193 143.398H373.426ZM379.675 153.719C378.926 153.719 378.288 153.515 377.761 153.107C377.234 152.696 376.832 152.101 376.553 151.322C376.275 150.54 376.136 149.596 376.136 148.489C376.136 147.388 376.275 146.449 376.553 145.67C376.835 144.888 377.239 144.291 377.766 143.88C378.297 143.466 378.933 143.259 379.675 143.259C380.418 143.259 381.052 143.466 381.579 143.88C382.11 144.291 382.514 144.888 382.792 145.67C383.074 146.449 383.215 147.388 383.215 148.489C383.215 149.596 383.076 150.54 382.797 151.322C382.519 152.101 382.116 152.696 381.589 153.107C381.062 153.515 380.424 153.719 379.675 153.719ZM379.675 152.625C380.418 152.625 380.994 152.267 381.405 151.551C381.816 150.835 382.022 149.814 382.022 148.489C382.022 147.607 381.927 146.856 381.739 146.237C381.553 145.617 381.284 145.144 380.933 144.82C380.585 144.495 380.166 144.332 379.675 144.332C378.939 144.332 378.364 144.695 377.95 145.421C377.536 146.144 377.329 147.166 377.329 148.489C377.329 149.37 377.422 150.119 377.607 150.736C377.793 151.352 378.06 151.821 378.408 152.143C378.759 152.464 379.181 152.625 379.675 152.625ZM388.425 153.719C387.676 153.719 387.038 153.515 386.511 153.107C385.984 152.696 385.582 152.101 385.303 151.322C385.025 150.54 384.886 149.596 384.886 148.489C384.886 147.388 385.025 146.449 385.303 145.67C385.585 144.888 385.989 144.291 386.516 143.88C387.047 143.466 387.683 143.259 388.425 143.259C389.168 143.259 389.802 143.466 390.329 143.88C390.86 144.291 391.264 144.888 391.542 145.67C391.824 146.449 391.965 147.388 391.965 148.489C391.965 149.596 391.826 150.54 391.547 151.322C391.269 152.101 390.866 152.696 390.339 153.107C389.812 153.515 389.174 153.719 388.425 153.719ZM388.425 152.625C389.168 152.625 389.744 152.267 390.155 151.551C390.566 150.835 390.772 149.814 390.772 148.489C390.772 147.607 390.677 146.856 390.489 146.237C390.303 145.617 390.034 145.144 389.683 144.82C389.335 144.495 388.916 144.332 388.425 144.332C387.689 144.332 387.114 144.695 386.7 145.421C386.286 146.144 386.079 147.166 386.079 148.489C386.079 149.37 386.172 150.119 386.357 150.736C386.543 151.352 386.81 151.821 387.158 152.143C387.509 152.464 387.931 152.625 388.425 152.625Z" fill="#51C975"/>
<path d="M374.094 181.943C374.034 181.439 373.792 181.048 373.368 180.77C372.944 180.492 372.423 180.352 371.807 180.352C371.356 180.352 370.962 180.425 370.623 180.571C370.289 180.717 370.027 180.917 369.838 181.173C369.652 181.428 369.56 181.718 369.56 182.043C369.56 182.314 369.624 182.548 369.753 182.744C369.886 182.936 370.055 183.097 370.261 183.226C370.466 183.352 370.681 183.456 370.907 183.539C371.132 183.619 371.339 183.683 371.528 183.733L372.562 184.011C372.828 184.081 373.122 184.177 373.447 184.3C373.775 184.422 374.089 184.59 374.387 184.802C374.689 185.011 374.937 185.279 375.133 185.607C375.328 185.935 375.426 186.338 375.426 186.815C375.426 187.366 375.282 187.863 374.993 188.307C374.708 188.751 374.291 189.104 373.741 189.366C373.194 189.628 372.529 189.759 371.747 189.759C371.018 189.759 370.386 189.641 369.853 189.406C369.323 189.17 368.905 188.842 368.6 188.421C368.298 188 368.128 187.511 368.088 186.955H369.361C369.394 187.339 369.523 187.657 369.748 187.909C369.977 188.158 370.265 188.343 370.614 188.466C370.965 188.585 371.343 188.645 371.747 188.645C372.218 188.645 372.64 188.569 373.015 188.416C373.389 188.26 373.686 188.045 373.905 187.77C374.123 187.492 374.233 187.167 374.233 186.795C374.233 186.457 374.138 186.182 373.949 185.97C373.761 185.758 373.512 185.586 373.204 185.453C372.895 185.321 372.562 185.205 372.204 185.105L370.952 184.747C370.156 184.519 369.526 184.192 369.062 183.768C368.598 183.344 368.366 182.788 368.366 182.102C368.366 181.532 368.52 181.035 368.829 180.611C369.14 180.183 369.558 179.852 370.082 179.617C370.609 179.378 371.197 179.259 371.846 179.259C372.503 179.259 373.086 179.376 373.596 179.612C374.107 179.844 374.511 180.162 374.81 180.566C375.111 180.97 375.27 181.429 375.287 181.943H374.094ZM377.453 189.58V179.398H383.598V180.492H378.686V183.932H383.28V185.026H378.686V188.486H383.678V189.58H377.453ZM394.411 184.489C394.411 185.563 394.217 186.491 393.83 187.273C393.442 188.055 392.91 188.658 392.234 189.082C391.558 189.507 390.785 189.719 389.917 189.719C389.049 189.719 388.276 189.507 387.6 189.082C386.924 188.658 386.392 188.055 386.004 187.273C385.617 186.491 385.423 185.563 385.423 184.489C385.423 183.415 385.617 182.487 386.004 181.705C386.392 180.922 386.924 180.319 387.6 179.895C388.276 179.471 389.049 179.259 389.917 179.259C390.785 179.259 391.558 179.471 392.234 179.895C392.91 180.319 393.442 180.922 393.83 181.705C394.217 182.487 394.411 183.415 394.411 184.489ZM393.218 184.489C393.218 183.607 393.071 182.863 392.776 182.256C392.484 181.65 392.088 181.191 391.587 180.879C391.09 180.568 390.533 180.412 389.917 180.412C389.3 180.412 388.742 180.568 388.242 180.879C387.744 181.191 387.348 181.65 387.053 182.256C386.762 182.863 386.616 183.607 386.616 184.489C386.616 185.37 386.762 186.114 387.053 186.721C387.348 187.327 387.744 187.787 388.242 188.098C388.742 188.41 389.3 188.565 389.917 188.565C390.533 188.565 391.09 188.41 391.587 188.098C392.088 187.787 392.484 187.327 392.776 186.721C393.071 186.114 393.218 185.37 393.218 184.489Z" fill="black"/>
</g>
<rect x="17.6104" y="17.6104" width="630.779" height="175.928" rx="23.8256" stroke="#0066FF" stroke-opacity="0.1" stroke-width="2.07179"/>
<defs>
<clipPath id="clip0_54_30">
<rect x="16.5745" y="16.5745" width="632.851" height="178" rx="24.8615" fill="white"/>
</clipPath>
</defs>
</svg>
