<svg width="285" height="227" viewBox="0 0 285 227" fill="none" xmlns="http://www.w3.org/2000/svg">
<circle cx="142.061" cy="77.6053" r="67.6053" fill="url(#paint0_linear_54_120)" stroke="url(#paint1_linear_54_120)" stroke-width="2"/>
<g filter="url(#filter0_f_54_120)">
<circle cx="142.061" cy="77.6053" r="68.6053" fill="url(#paint2_linear_54_120)"/>
<circle cx="142.061" cy="77.6053" r="67.6053" stroke="url(#paint3_linear_54_120)" stroke-width="2"/>
</g>
<g filter="url(#filter1_f_54_120)">
<circle cx="142.175" cy="77.5" r="53.5" fill="url(#paint4_linear_54_120)"/>
<circle cx="142.175" cy="77.5" r="52.5" stroke="url(#paint5_linear_54_120)" stroke-width="2"/>
</g>
<g filter="url(#filter2_f_54_120)">
<circle cx="142.175" cy="77.5" r="40.5" fill="url(#paint6_linear_54_120)"/>
<circle cx="142.175" cy="77.5" r="39.5" stroke="url(#paint7_linear_54_120)" stroke-width="2"/>
</g>
<g clip-path="url(#clip0_54_120)">
<rect y="48.3552" width="87.3158" height="168.395" rx="12.4737" fill="white"/>
<g filter="url(#filter3_d_54_120)">
<rect x="9.35522" y="57.7104" width="68.6053" height="6.23684" rx="3.11842" fill="url(#paint8_linear_54_120)" shape-rendering="crispEdges"/>
</g>
<path d="M41.7786 70.1841V100.73L37.1849 100.894V70.1841H41.7786ZM49.5492 87.0676H54.1877C54.1877 90.1898 53.6657 92.7949 52.6217 94.8829C51.5776 96.9611 50.121 98.5271 48.2516 99.5811C46.3823 100.625 44.1998 101.147 41.704 101.147C40.8489 101.147 40.0137 101.122 39.1984 101.073C38.383 101.033 37.7119 100.973 37.1849 100.894L41.704 97.0903C43.2055 97.0903 44.5478 96.7672 45.731 96.1209C46.9143 95.4746 47.844 94.4206 48.5201 92.9589C49.2062 91.4874 49.5492 89.5236 49.5492 87.0676ZM47.6252 72.5406V76.493L33.1281 82.3844V78.4469L47.6252 72.5406ZM47.6252 79.476V83.3986L33.1281 89.2899V85.3524L47.6252 79.476Z" fill="#B5C8D7"/>
<g filter="url(#filter4_d_54_120)">
<rect x="9.35522" y="112.062" width="68.6053" height="6.23684" rx="3.11842" fill="url(#paint9_linear_54_120)" shape-rendering="crispEdges"/>
</g>
<mask id="mask0_54_120" style="mask-type:alpha" maskUnits="userSpaceOnUse" x="84" y="107" width="16" height="16">
<rect x="84.1974" y="107.384" width="15.5921" height="15.5921" fill="#D9D9D9"/>
</mask>
<g mask="url(#mask0_54_120)">
<path d="M90.4019 119.078L86.6987 115.375L87.6245 114.45L90.4019 117.227L96.3626 111.266L97.2884 112.192L90.4019 119.078Z" fill="#0066FF"/>
</g>
<g filter="url(#filter5_d_54_120)">
<rect x="9.35522" y="130.772" width="40.5395" height="6.23684" rx="3.11842" fill="url(#paint10_linear_54_120)" shape-rendering="crispEdges"/>
</g>
<mask id="mask1_54_120" style="mask-type:alpha" maskUnits="userSpaceOnUse" x="56" y="126" width="16" height="16">
<rect x="56.1316" y="126.094" width="15.5921" height="15.5921" fill="#D9D9D9"/>
</mask>
<g mask="url(#mask1_54_120)">
<path d="M62.3361 137.789L58.6329 134.086L59.5587 133.16L62.3361 135.937L68.2968 129.977L69.2226 130.902L62.3361 137.789Z" fill="#0066FF"/>
</g>
<g filter="url(#filter6_d_54_120)">
<rect x="9.35522" y="149.483" width="68.6053" height="6.23684" rx="3.11842" fill="url(#paint11_linear_54_120)" shape-rendering="crispEdges"/>
</g>
<mask id="mask2_54_120" style="mask-type:alpha" maskUnits="userSpaceOnUse" x="84" y="144" width="16" height="17">
<rect x="84.1974" y="144.805" width="15.5921" height="15.5921" fill="#D9D9D9"/>
</mask>
<g mask="url(#mask2_54_120)">
<path d="M90.4019 156.5L86.6987 152.796L87.6245 151.871L90.4019 154.648L96.3626 148.687L97.2884 149.613L90.4019 156.5Z" fill="#0066FF"/>
</g>
<g filter="url(#filter7_d_54_120)">
<rect x="9.35522" y="166.634" width="68.6053" height="15.5921" rx="6.23684" fill="url(#paint12_linear_54_120)"/>
<rect x="18.7106" y="170.603" width="49.8947" height="6.23684" rx="3.11842" fill="white"/>
</g>
</g>
<rect x="1" y="49.3552" width="85.3158" height="166.395" rx="11.4737" stroke="url(#paint13_linear_54_120)" stroke-width="2"/>
<g clip-path="url(#clip1_54_120)">
<rect x="93.5526" y="39" width="97.0175" height="187.105" rx="13.8596" fill="white"/>
<g filter="url(#filter8_d_54_120)">
<rect x="103.948" y="49.3948" width="76.2281" height="6.92982" rx="3.46491" fill="url(#paint14_linear_54_120)" shape-rendering="crispEdges"/>
</g>
<path d="M140.182 63.2544V93.7999L135.588 93.9639V63.2544H140.182ZM147.953 80.1379H152.591C152.591 83.2601 152.069 85.8652 151.025 87.9533C149.981 90.0314 148.524 91.5974 146.655 92.6514C144.786 93.6954 142.603 94.2175 140.107 94.2175C139.252 94.2175 138.417 94.1926 137.602 94.1429C136.786 94.1031 136.115 94.0435 135.588 93.9639L140.107 90.1606C141.609 90.1606 142.951 89.8375 144.134 89.1912C145.318 88.5449 146.247 87.4909 146.924 86.0293C147.61 84.5577 147.953 82.5939 147.953 80.1379ZM146.029 65.6109V69.5633L131.531 75.4547V71.5172L146.029 65.6109ZM146.029 72.5463V76.4689L131.531 82.3602V78.4227L146.029 72.5463Z" fill="#B5C8D7"/>
<g filter="url(#filter9_d_54_120)">
<rect x="103.947" y="106.345" width="76.2281" height="6.92982" rx="3.46491" fill="url(#paint15_linear_54_120)" shape-rendering="crispEdges"/>
</g>
<mask id="mask3_54_120" style="mask-type:alpha" maskUnits="userSpaceOnUse" x="187" y="101" width="18" height="18">
<rect x="187.105" y="101.147" width="17.3246" height="17.3246" fill="#D9D9D9"/>
</mask>
<g mask="url(#mask3_54_120)">
<path d="M193.999 114.142L189.884 110.027L190.913 108.998L193.999 112.084L200.622 105.461L201.651 106.49L193.999 114.142Z" fill="#0066FF"/>
</g>
<g filter="url(#filter10_d_54_120)">
<rect x="103.947" y="127.135" width="45.0439" height="6.92982" rx="3.46491" fill="url(#paint16_linear_54_120)" shape-rendering="crispEdges"/>
</g>
<mask id="mask4_54_120" style="mask-type:alpha" maskUnits="userSpaceOnUse" x="155" y="121" width="19" height="19">
<rect x="155.921" y="121.937" width="17.3246" height="17.3246" fill="#D9D9D9"/>
</mask>
<g mask="url(#mask4_54_120)">
<path d="M162.815 134.931L158.7 130.816L159.729 129.787L162.815 132.873L169.438 126.25L170.466 127.279L162.815 134.931Z" fill="#0066FF"/>
</g>
<g filter="url(#filter11_d_54_120)">
<rect x="103.947" y="147.923" width="76.2281" height="6.92982" rx="3.46491" fill="url(#paint17_linear_54_120)" shape-rendering="crispEdges"/>
</g>
<mask id="mask5_54_120" style="mask-type:alpha" maskUnits="userSpaceOnUse" x="187" y="142" width="18" height="19">
<rect x="187.105" y="142.726" width="17.3246" height="17.3246" fill="#D9D9D9"/>
</mask>
<g mask="url(#mask5_54_120)">
<path d="M193.999 155.719L189.884 151.605L190.913 150.576L193.999 153.662L200.622 147.039L201.651 148.068L193.999 155.719Z" fill="#0066FF"/>
</g>
<g filter="url(#filter12_d_54_120)">
<rect x="103.947" y="166.981" width="76.2281" height="17.3246" rx="6.92982" fill="url(#paint18_linear_54_120)"/>
<rect x="114.342" y="171.391" width="55.4386" height="6.92982" rx="3.46491" fill="white"/>
</g>
</g>
<rect x="94.5526" y="40" width="95.0175" height="185.105" rx="12.8596" stroke="url(#paint19_linear_54_120)" stroke-width="2"/>
<g clip-path="url(#clip2_54_120)">
<rect x="196.807" y="48.3552" width="87.3158" height="168.395" rx="12.4737" fill="white"/>
<g filter="url(#filter13_d_54_120)">
<rect x="206.162" y="57.7104" width="68.6053" height="6.23684" rx="3.11842" fill="url(#paint20_linear_54_120)" shape-rendering="crispEdges"/>
</g>
<path d="M238.586 70.1841V100.73L233.992 100.894V70.1841H238.586ZM246.356 87.0676H250.995C250.995 90.1898 250.473 92.7949 249.429 94.8829C248.385 96.9611 246.928 98.5271 245.059 99.5811C243.189 100.625 241.007 101.147 238.511 101.147C237.656 101.147 236.821 101.122 236.005 101.073C235.19 101.033 234.519 100.973 233.992 100.894L238.511 97.0903C240.012 97.0903 241.355 96.7672 242.538 96.1209C243.721 95.4746 244.651 94.4206 245.327 92.9589C246.013 91.4874 246.356 89.5236 246.356 87.0676ZM244.432 72.5406V76.493L229.935 82.3844V78.4469L244.432 72.5406ZM244.432 79.476V83.3986L229.935 89.2899V85.3524L244.432 79.476Z" fill="#B5C8D7"/>
<g filter="url(#filter14_d_54_120)">
<rect x="206.162" y="112.062" width="68.6053" height="6.23684" rx="3.11842" fill="url(#paint21_linear_54_120)" shape-rendering="crispEdges"/>
</g>
<mask id="mask6_54_120" style="mask-type:alpha" maskUnits="userSpaceOnUse" x="281" y="107" width="16" height="16">
<rect x="281.004" y="107.384" width="15.5921" height="15.5921" fill="#D9D9D9"/>
</mask>
<g mask="url(#mask6_54_120)">
<path d="M287.209 119.078L283.505 115.375L284.431 114.45L287.209 117.227L293.169 111.266L294.095 112.192L287.209 119.078Z" fill="#0066FF"/>
</g>
<g filter="url(#filter15_d_54_120)">
<rect x="206.162" y="130.772" width="40.5395" height="6.23684" rx="3.11842" fill="url(#paint22_linear_54_120)" shape-rendering="crispEdges"/>
</g>
<mask id="mask7_54_120" style="mask-type:alpha" maskUnits="userSpaceOnUse" x="252" y="126" width="17" height="16">
<rect x="252.938" y="126.094" width="15.5921" height="15.5921" fill="#D9D9D9"/>
</mask>
<g mask="url(#mask7_54_120)">
<path d="M259.143 137.789L255.44 134.086L256.365 133.16L259.143 135.937L265.104 129.977L266.029 130.902L259.143 137.789Z" fill="#0066FF"/>
</g>
<g filter="url(#filter16_d_54_120)">
<rect x="206.162" y="149.483" width="68.6053" height="6.23684" rx="3.11842" fill="url(#paint23_linear_54_120)" shape-rendering="crispEdges"/>
</g>
<mask id="mask8_54_120" style="mask-type:alpha" maskUnits="userSpaceOnUse" x="281" y="144" width="16" height="17">
<rect x="281.004" y="144.805" width="15.5921" height="15.5921" fill="#D9D9D9"/>
</mask>
<g mask="url(#mask8_54_120)">
<path d="M287.209 156.5L283.505 152.796L284.431 151.871L287.209 154.648L293.169 148.687L294.095 149.613L287.209 156.5Z" fill="#0066FF"/>
</g>
<g filter="url(#filter17_d_54_120)">
<rect x="206.162" y="166.634" width="68.6053" height="15.5921" rx="6.23684" fill="url(#paint24_linear_54_120)"/>
<rect x="215.517" y="170.603" width="49.8947" height="6.23684" rx="3.11842" fill="white"/>
</g>
</g>
<rect x="197.807" y="49.3552" width="85.3158" height="166.395" rx="11.4737" stroke="url(#paint25_linear_54_120)" stroke-width="2"/>
<defs>
<filter id="filter0_f_54_120" x="64.5562" y="0.1" width="155.011" height="155.01" filterUnits="userSpaceOnUse" color-interpolation-filters="sRGB">
<feFlood flood-opacity="0" result="BackgroundImageFix"/>
<feBlend mode="normal" in="SourceGraphic" in2="BackgroundImageFix" result="shape"/>
<feGaussianBlur stdDeviation="4.45" result="effect1_foregroundBlur_54_120"/>
</filter>
<filter id="filter1_f_54_120" x="79.7754" y="15.1" width="124.8" height="124.8" filterUnits="userSpaceOnUse" color-interpolation-filters="sRGB">
<feFlood flood-opacity="0" result="BackgroundImageFix"/>
<feBlend mode="normal" in="SourceGraphic" in2="BackgroundImageFix" result="shape"/>
<feGaussianBlur stdDeviation="4.45" result="effect1_foregroundBlur_54_120"/>
</filter>
<filter id="filter2_f_54_120" x="92.7754" y="28.1" width="98.8" height="98.8" filterUnits="userSpaceOnUse" color-interpolation-filters="sRGB">
<feFlood flood-opacity="0" result="BackgroundImageFix"/>
<feBlend mode="normal" in="SourceGraphic" in2="BackgroundImageFix" result="shape"/>
<feGaussianBlur stdDeviation="4.45" result="effect1_foregroundBlur_54_120"/>
</filter>
<filter id="filter3_d_54_120" x="9.35522" y="57.7104" width="68.6052" height="7.79603" filterUnits="userSpaceOnUse" color-interpolation-filters="sRGB">
<feFlood flood-opacity="0" result="BackgroundImageFix"/>
<feColorMatrix in="SourceAlpha" type="matrix" values="0 0 0 0 0 0 0 0 0 0 0 0 0 0 0 0 0 0 127 0" result="hardAlpha"/>
<feOffset dy="1.55921"/>
<feComposite in2="hardAlpha" operator="out"/>
<feColorMatrix type="matrix" values="0 0 0 0 1 0 0 0 0 1 0 0 0 0 1 0 0 0 1 0"/>
<feBlend mode="normal" in2="BackgroundImageFix" result="effect1_dropShadow_54_120"/>
<feBlend mode="normal" in="SourceGraphic" in2="effect1_dropShadow_54_120" result="shape"/>
</filter>
<filter id="filter4_d_54_120" x="9.35522" y="112.062" width="68.6052" height="7.79603" filterUnits="userSpaceOnUse" color-interpolation-filters="sRGB">
<feFlood flood-opacity="0" result="BackgroundImageFix"/>
<feColorMatrix in="SourceAlpha" type="matrix" values="0 0 0 0 0 0 0 0 0 0 0 0 0 0 0 0 0 0 127 0" result="hardAlpha"/>
<feOffset dy="1.55921"/>
<feComposite in2="hardAlpha" operator="out"/>
<feColorMatrix type="matrix" values="0 0 0 0 1 0 0 0 0 1 0 0 0 0 1 0 0 0 1 0"/>
<feBlend mode="normal" in2="BackgroundImageFix" result="effect1_dropShadow_54_120"/>
<feBlend mode="normal" in="SourceGraphic" in2="effect1_dropShadow_54_120" result="shape"/>
</filter>
<filter id="filter5_d_54_120" x="9.35522" y="130.772" width="40.5394" height="7.79603" filterUnits="userSpaceOnUse" color-interpolation-filters="sRGB">
<feFlood flood-opacity="0" result="BackgroundImageFix"/>
<feColorMatrix in="SourceAlpha" type="matrix" values="0 0 0 0 0 0 0 0 0 0 0 0 0 0 0 0 0 0 127 0" result="hardAlpha"/>
<feOffset dy="1.55921"/>
<feComposite in2="hardAlpha" operator="out"/>
<feColorMatrix type="matrix" values="0 0 0 0 1 0 0 0 0 1 0 0 0 0 1 0 0 0 1 0"/>
<feBlend mode="normal" in2="BackgroundImageFix" result="effect1_dropShadow_54_120"/>
<feBlend mode="normal" in="SourceGraphic" in2="effect1_dropShadow_54_120" result="shape"/>
</filter>
<filter id="filter6_d_54_120" x="9.35522" y="149.483" width="68.6052" height="7.79603" filterUnits="userSpaceOnUse" color-interpolation-filters="sRGB">
<feFlood flood-opacity="0" result="BackgroundImageFix"/>
<feColorMatrix in="SourceAlpha" type="matrix" values="0 0 0 0 0 0 0 0 0 0 0 0 0 0 0 0 0 0 127 0" result="hardAlpha"/>
<feOffset dy="1.55921"/>
<feComposite in2="hardAlpha" operator="out"/>
<feColorMatrix type="matrix" values="0 0 0 0 1 0 0 0 0 1 0 0 0 0 1 0 0 0 1 0"/>
<feBlend mode="normal" in2="BackgroundImageFix" result="effect1_dropShadow_54_120"/>
<feBlend mode="normal" in="SourceGraphic" in2="effect1_dropShadow_54_120" result="shape"/>
</filter>
<filter id="filter7_d_54_120" x="-3.11846" y="160.397" width="93.5526" height="40.5394" filterUnits="userSpaceOnUse" color-interpolation-filters="sRGB">
<feFlood flood-opacity="0" result="BackgroundImageFix"/>
<feColorMatrix in="SourceAlpha" type="matrix" values="0 0 0 0 0 0 0 0 0 0 0 0 0 0 0 0 0 0 127 0" result="hardAlpha"/>
<feOffset dy="6.23684"/>
<feGaussianBlur stdDeviation="6.23684"/>
<feComposite in2="hardAlpha" operator="out"/>
<feColorMatrix type="matrix" values="0 0 0 0 0 0 0 0 0 0.4 0 0 0 0 1 0 0 0 0.29 0"/>
<feBlend mode="normal" in2="BackgroundImageFix" result="effect1_dropShadow_54_120"/>
<feBlend mode="normal" in="SourceGraphic" in2="effect1_dropShadow_54_120" result="shape"/>
</filter>
<filter id="filter8_d_54_120" x="103.948" y="49.3948" width="76.228" height="8.66239" filterUnits="userSpaceOnUse" color-interpolation-filters="sRGB">
<feFlood flood-opacity="0" result="BackgroundImageFix"/>
<feColorMatrix in="SourceAlpha" type="matrix" values="0 0 0 0 0 0 0 0 0 0 0 0 0 0 0 0 0 0 127 0" result="hardAlpha"/>
<feOffset dy="1.73246"/>
<feComposite in2="hardAlpha" operator="out"/>
<feColorMatrix type="matrix" values="0 0 0 0 1 0 0 0 0 1 0 0 0 0 1 0 0 0 1 0"/>
<feBlend mode="normal" in2="BackgroundImageFix" result="effect1_dropShadow_54_120"/>
<feBlend mode="normal" in="SourceGraphic" in2="effect1_dropShadow_54_120" result="shape"/>
</filter>
<filter id="filter9_d_54_120" x="103.947" y="106.345" width="76.228" height="8.66239" filterUnits="userSpaceOnUse" color-interpolation-filters="sRGB">
<feFlood flood-opacity="0" result="BackgroundImageFix"/>
<feColorMatrix in="SourceAlpha" type="matrix" values="0 0 0 0 0 0 0 0 0 0 0 0 0 0 0 0 0 0 127 0" result="hardAlpha"/>
<feOffset dy="1.73246"/>
<feComposite in2="hardAlpha" operator="out"/>
<feColorMatrix type="matrix" values="0 0 0 0 1 0 0 0 0 1 0 0 0 0 1 0 0 0 1 0"/>
<feBlend mode="normal" in2="BackgroundImageFix" result="effect1_dropShadow_54_120"/>
<feBlend mode="normal" in="SourceGraphic" in2="effect1_dropShadow_54_120" result="shape"/>
</filter>
<filter id="filter10_d_54_120" x="103.947" y="127.135" width="45.0438" height="8.66239" filterUnits="userSpaceOnUse" color-interpolation-filters="sRGB">
<feFlood flood-opacity="0" result="BackgroundImageFix"/>
<feColorMatrix in="SourceAlpha" type="matrix" values="0 0 0 0 0 0 0 0 0 0 0 0 0 0 0 0 0 0 127 0" result="hardAlpha"/>
<feOffset dy="1.73246"/>
<feComposite in2="hardAlpha" operator="out"/>
<feColorMatrix type="matrix" values="0 0 0 0 1 0 0 0 0 1 0 0 0 0 1 0 0 0 1 0"/>
<feBlend mode="normal" in2="BackgroundImageFix" result="effect1_dropShadow_54_120"/>
<feBlend mode="normal" in="SourceGraphic" in2="effect1_dropShadow_54_120" result="shape"/>
</filter>
<filter id="filter11_d_54_120" x="103.947" y="147.923" width="76.228" height="8.66239" filterUnits="userSpaceOnUse" color-interpolation-filters="sRGB">
<feFlood flood-opacity="0" result="BackgroundImageFix"/>
<feColorMatrix in="SourceAlpha" type="matrix" values="0 0 0 0 0 0 0 0 0 0 0 0 0 0 0 0 0 0 127 0" result="hardAlpha"/>
<feOffset dy="1.73246"/>
<feComposite in2="hardAlpha" operator="out"/>
<feColorMatrix type="matrix" values="0 0 0 0 1 0 0 0 0 1 0 0 0 0 1 0 0 0 1 0"/>
<feBlend mode="normal" in2="BackgroundImageFix" result="effect1_dropShadow_54_120"/>
<feBlend mode="normal" in="SourceGraphic" in2="effect1_dropShadow_54_120" result="shape"/>
</filter>
<filter id="filter12_d_54_120" x="90.0877" y="160.051" width="103.947" height="45.0438" filterUnits="userSpaceOnUse" color-interpolation-filters="sRGB">
<feFlood flood-opacity="0" result="BackgroundImageFix"/>
<feColorMatrix in="SourceAlpha" type="matrix" values="0 0 0 0 0 0 0 0 0 0 0 0 0 0 0 0 0 0 127 0" result="hardAlpha"/>
<feOffset dy="6.92982"/>
<feGaussianBlur stdDeviation="6.92982"/>
<feComposite in2="hardAlpha" operator="out"/>
<feColorMatrix type="matrix" values="0 0 0 0 0 0 0 0 0 0.4 0 0 0 0 1 0 0 0 0.29 0"/>
<feBlend mode="normal" in2="BackgroundImageFix" result="effect1_dropShadow_54_120"/>
<feBlend mode="normal" in="SourceGraphic" in2="effect1_dropShadow_54_120" result="shape"/>
</filter>
<filter id="filter13_d_54_120" x="206.162" y="57.7104" width="68.6052" height="7.79603" filterUnits="userSpaceOnUse" color-interpolation-filters="sRGB">
<feFlood flood-opacity="0" result="BackgroundImageFix"/>
<feColorMatrix in="SourceAlpha" type="matrix" values="0 0 0 0 0 0 0 0 0 0 0 0 0 0 0 0 0 0 127 0" result="hardAlpha"/>
<feOffset dy="1.55921"/>
<feComposite in2="hardAlpha" operator="out"/>
<feColorMatrix type="matrix" values="0 0 0 0 1 0 0 0 0 1 0 0 0 0 1 0 0 0 1 0"/>
<feBlend mode="normal" in2="BackgroundImageFix" result="effect1_dropShadow_54_120"/>
<feBlend mode="normal" in="SourceGraphic" in2="effect1_dropShadow_54_120" result="shape"/>
</filter>
<filter id="filter14_d_54_120" x="206.162" y="112.062" width="68.6052" height="7.79603" filterUnits="userSpaceOnUse" color-interpolation-filters="sRGB">
<feFlood flood-opacity="0" result="BackgroundImageFix"/>
<feColorMatrix in="SourceAlpha" type="matrix" values="0 0 0 0 0 0 0 0 0 0 0 0 0 0 0 0 0 0 127 0" result="hardAlpha"/>
<feOffset dy="1.55921"/>
<feComposite in2="hardAlpha" operator="out"/>
<feColorMatrix type="matrix" values="0 0 0 0 1 0 0 0 0 1 0 0 0 0 1 0 0 0 1 0"/>
<feBlend mode="normal" in2="BackgroundImageFix" result="effect1_dropShadow_54_120"/>
<feBlend mode="normal" in="SourceGraphic" in2="effect1_dropShadow_54_120" result="shape"/>
</filter>
<filter id="filter15_d_54_120" x="206.162" y="130.772" width="40.5394" height="7.79603" filterUnits="userSpaceOnUse" color-interpolation-filters="sRGB">
<feFlood flood-opacity="0" result="BackgroundImageFix"/>
<feColorMatrix in="SourceAlpha" type="matrix" values="0 0 0 0 0 0 0 0 0 0 0 0 0 0 0 0 0 0 127 0" result="hardAlpha"/>
<feOffset dy="1.55921"/>
<feComposite in2="hardAlpha" operator="out"/>
<feColorMatrix type="matrix" values="0 0 0 0 1 0 0 0 0 1 0 0 0 0 1 0 0 0 1 0"/>
<feBlend mode="normal" in2="BackgroundImageFix" result="effect1_dropShadow_54_120"/>
<feBlend mode="normal" in="SourceGraphic" in2="effect1_dropShadow_54_120" result="shape"/>
</filter>
<filter id="filter16_d_54_120" x="206.162" y="149.483" width="68.6052" height="7.79603" filterUnits="userSpaceOnUse" color-interpolation-filters="sRGB">
<feFlood flood-opacity="0" result="BackgroundImageFix"/>
<feColorMatrix in="SourceAlpha" type="matrix" values="0 0 0 0 0 0 0 0 0 0 0 0 0 0 0 0 0 0 127 0" result="hardAlpha"/>
<feOffset dy="1.55921"/>
<feComposite in2="hardAlpha" operator="out"/>
<feColorMatrix type="matrix" values="0 0 0 0 1 0 0 0 0 1 0 0 0 0 1 0 0 0 1 0"/>
<feBlend mode="normal" in2="BackgroundImageFix" result="effect1_dropShadow_54_120"/>
<feBlend mode="normal" in="SourceGraphic" in2="effect1_dropShadow_54_120" result="shape"/>
</filter>
<filter id="filter17_d_54_120" x="193.688" y="160.397" width="93.5526" height="40.5394" filterUnits="userSpaceOnUse" color-interpolation-filters="sRGB">
<feFlood flood-opacity="0" result="BackgroundImageFix"/>
<feColorMatrix in="SourceAlpha" type="matrix" values="0 0 0 0 0 0 0 0 0 0 0 0 0 0 0 0 0 0 127 0" result="hardAlpha"/>
<feOffset dy="6.23684"/>
<feGaussianBlur stdDeviation="6.23684"/>
<feComposite in2="hardAlpha" operator="out"/>
<feColorMatrix type="matrix" values="0 0 0 0 0 0 0 0 0 0.4 0 0 0 0 1 0 0 0 0.29 0"/>
<feBlend mode="normal" in2="BackgroundImageFix" result="effect1_dropShadow_54_120"/>
<feBlend mode="normal" in="SourceGraphic" in2="effect1_dropShadow_54_120" result="shape"/>
</filter>
<linearGradient id="paint0_linear_54_120" x1="142.061" y1="9" x2="142.061" y2="253.796" gradientUnits="userSpaceOnUse">
<stop stop-color="white"/>
<stop offset="1" stop-color="#BFD9FF" stop-opacity="0.41"/>
</linearGradient>
<linearGradient id="paint1_linear_54_120" x1="142.061" y1="9" x2="142.061" y2="146.211" gradientUnits="userSpaceOnUse">
<stop stop-color="#0066FF"/>
<stop offset="1" stop-color="white" stop-opacity="0"/>
</linearGradient>
<linearGradient id="paint2_linear_54_120" x1="142.061" y1="9" x2="142.061" y2="253.796" gradientUnits="userSpaceOnUse">
<stop stop-color="white"/>
<stop offset="1" stop-color="#BFD9FF" stop-opacity="0.41"/>
</linearGradient>
<linearGradient id="paint3_linear_54_120" x1="142.061" y1="9" x2="142.061" y2="146.211" gradientUnits="userSpaceOnUse">
<stop stop-color="#0066FF"/>
<stop offset="1" stop-color="white" stop-opacity="0"/>
</linearGradient>
<linearGradient id="paint4_linear_54_120" x1="142.175" y1="24" x2="142.175" y2="214.898" gradientUnits="userSpaceOnUse">
<stop stop-color="white"/>
<stop offset="1" stop-color="#BFD9FF" stop-opacity="0.41"/>
</linearGradient>
<linearGradient id="paint5_linear_54_120" x1="142.175" y1="24" x2="142.175" y2="131" gradientUnits="userSpaceOnUse">
<stop stop-color="#0066FF"/>
<stop offset="1" stop-color="white" stop-opacity="0"/>
</linearGradient>
<linearGradient id="paint6_linear_54_120" x1="142.175" y1="37" x2="142.175" y2="181.511" gradientUnits="userSpaceOnUse">
<stop stop-color="white"/>
<stop offset="1" stop-color="#BFD9FF" stop-opacity="0.41"/>
</linearGradient>
<linearGradient id="paint7_linear_54_120" x1="142.175" y1="37" x2="142.175" y2="118" gradientUnits="userSpaceOnUse">
<stop stop-color="#0066FF"/>
<stop offset="1" stop-color="white" stop-opacity="0"/>
</linearGradient>
<linearGradient id="paint8_linear_54_120" x1="9.35522" y1="60.8289" x2="107.061" y2="60.8289" gradientUnits="userSpaceOnUse">
<stop stop-color="#B5C8D7"/>
<stop offset="1" stop-color="white" stop-opacity="0"/>
</linearGradient>
<linearGradient id="paint9_linear_54_120" x1="9.35522" y1="115.18" x2="107.061" y2="115.18" gradientUnits="userSpaceOnUse">
<stop stop-color="#B5C8D7"/>
<stop offset="1" stop-color="white" stop-opacity="0"/>
</linearGradient>
<linearGradient id="paint10_linear_54_120" x1="9.35522" y1="133.891" x2="67.0907" y2="133.891" gradientUnits="userSpaceOnUse">
<stop stop-color="#B5C8D7"/>
<stop offset="1" stop-color="white" stop-opacity="0"/>
</linearGradient>
<linearGradient id="paint11_linear_54_120" x1="9.35522" y1="152.601" x2="107.061" y2="152.601" gradientUnits="userSpaceOnUse">
<stop stop-color="#B5C8D7"/>
<stop offset="1" stop-color="white" stop-opacity="0"/>
</linearGradient>
<linearGradient id="paint12_linear_54_120" x1="43.6579" y1="166.634" x2="43.6579" y2="182.226" gradientUnits="userSpaceOnUse">
<stop stop-color="#0066FF"/>
<stop offset="1" stop-color="#5A9CFF"/>
</linearGradient>
<linearGradient id="paint13_linear_54_120" x1="43.6579" y1="48.3552" x2="43.6579" y2="216.75" gradientUnits="userSpaceOnUse">
<stop stop-color="#B5C8D7"/>
<stop offset="1" stop-color="#5F6971" stop-opacity="0"/>
</linearGradient>
<linearGradient id="paint14_linear_54_120" x1="103.948" y1="52.8597" x2="212.51" y2="52.8597" gradientUnits="userSpaceOnUse">
<stop stop-color="#B5C8D7"/>
<stop offset="1" stop-color="white" stop-opacity="0"/>
</linearGradient>
<linearGradient id="paint15_linear_54_120" x1="103.947" y1="109.81" x2="212.51" y2="109.81" gradientUnits="userSpaceOnUse">
<stop stop-color="#B5C8D7"/>
<stop offset="1" stop-color="white" stop-opacity="0"/>
</linearGradient>
<linearGradient id="paint16_linear_54_120" x1="103.947" y1="130.599" x2="168.098" y2="130.599" gradientUnits="userSpaceOnUse">
<stop stop-color="#B5C8D7"/>
<stop offset="1" stop-color="white" stop-opacity="0"/>
</linearGradient>
<linearGradient id="paint17_linear_54_120" x1="103.947" y1="151.388" x2="212.51" y2="151.388" gradientUnits="userSpaceOnUse">
<stop stop-color="#B5C8D7"/>
<stop offset="1" stop-color="white" stop-opacity="0"/>
</linearGradient>
<linearGradient id="paint18_linear_54_120" x1="142.061" y1="166.981" x2="142.061" y2="184.305" gradientUnits="userSpaceOnUse">
<stop stop-color="#0066FF"/>
<stop offset="1" stop-color="#5A9CFF"/>
</linearGradient>
<linearGradient id="paint19_linear_54_120" x1="142.061" y1="39" x2="142.061" y2="226.105" gradientUnits="userSpaceOnUse">
<stop stop-color="#1674FF"/>
<stop offset="1" stop-color="#5F6971" stop-opacity="0"/>
</linearGradient>
<linearGradient id="paint20_linear_54_120" x1="206.162" y1="60.8289" x2="303.868" y2="60.8289" gradientUnits="userSpaceOnUse">
<stop stop-color="#B5C8D7"/>
<stop offset="1" stop-color="white" stop-opacity="0"/>
</linearGradient>
<linearGradient id="paint21_linear_54_120" x1="206.162" y1="115.18" x2="303.868" y2="115.18" gradientUnits="userSpaceOnUse">
<stop stop-color="#B5C8D7"/>
<stop offset="1" stop-color="white" stop-opacity="0"/>
</linearGradient>
<linearGradient id="paint22_linear_54_120" x1="206.162" y1="133.891" x2="263.898" y2="133.891" gradientUnits="userSpaceOnUse">
<stop stop-color="#B5C8D7"/>
<stop offset="1" stop-color="white" stop-opacity="0"/>
</linearGradient>
<linearGradient id="paint23_linear_54_120" x1="206.162" y1="152.601" x2="303.868" y2="152.601" gradientUnits="userSpaceOnUse">
<stop stop-color="#B5C8D7"/>
<stop offset="1" stop-color="white" stop-opacity="0"/>
</linearGradient>
<linearGradient id="paint24_linear_54_120" x1="240.465" y1="166.634" x2="240.465" y2="182.226" gradientUnits="userSpaceOnUse">
<stop stop-color="#0066FF"/>
<stop offset="1" stop-color="#5A9CFF"/>
</linearGradient>
<linearGradient id="paint25_linear_54_120" x1="240.465" y1="48.3552" x2="240.465" y2="216.75" gradientUnits="userSpaceOnUse">
<stop stop-color="#B5C8D7"/>
<stop offset="1" stop-color="#5F6971" stop-opacity="0"/>
</linearGradient>
<clipPath id="clip0_54_120">
<rect y="48.3552" width="87.3158" height="168.395" rx="12.4737" fill="white"/>
</clipPath>
<clipPath id="clip1_54_120">
<rect x="93.5526" y="39" width="97.0175" height="187.105" rx="13.8596" fill="white"/>
</clipPath>
<clipPath id="clip2_54_120">
<rect x="196.807" y="48.3552" width="87.3158" height="168.395" rx="12.4737" fill="white"/>
</clipPath>
</defs>
</svg>
