<svg width="131" height="47" viewBox="0 0 131 47" fill="none" xmlns="http://www.w3.org/2000/svg">
<g clip-path="url(#clip0_452_893)">
<mask id="mask0_452_893" style="mask-type:luminance" maskUnits="userSpaceOnUse" x="0" y="0" width="131" height="47">
<path d="M130.5 0H0.5V47H130.5V0Z" fill="white"/>
</mask>
<g mask="url(#mask0_452_893)">
<path d="M2.59595 0C3.75326 0 4.6919 0.939232 4.6919 2.09728V14.7372C6.47454 12.7449 9.6191 11.0136 13.3404 11.0136C19.3687 11.0136 23.824 15.052 23.824 21.294V34.616C23.824 35.774 22.8853 36.7132 21.728 36.7132C20.5707 36.7132 19.6321 35.774 19.6321 34.616V21.8186C19.6321 17.3604 17.2203 14.8959 12.8698 14.8959C9.14851 14.8959 6.42211 17.0994 4.69318 19.6689V34.6172C4.69318 35.7753 3.75454 36.7145 2.59723 36.7145C1.43864 36.7145 0.5 35.7753 0.5 34.6172V2.09728C0.5 0.939232 1.43864 0 2.59595 0Z" fill="white"/>
<path d="M76.4427 0C77.6 0 78.5386 0.939232 78.5386 2.09728V34.616C78.5386 35.774 77.6 36.7132 76.4427 36.7132C75.2854 36.7132 74.3467 35.774 74.3467 34.616V2.09728C74.3467 0.939232 75.2854 0 76.4427 0Z" fill="white"/>
<path d="M119.807 14.8961C116.61 14.8961 113.411 16.8373 111.368 19.774V34.6174C111.368 35.7768 110.429 36.716 109.271 36.716C108.112 36.716 107.173 35.7768 107.173 34.6174V13.4271C107.173 12.3842 108.019 11.5384 109.061 11.5384C110.103 11.5384 110.948 12.3842 110.948 13.4271V15.4208C113.308 12.5365 116.924 11.0151 120.383 11.0151C126.202 11.0151 130.5 14.9486 130.5 20.8757V34.6174C130.5 35.7768 129.561 36.716 128.403 36.716C127.244 36.716 126.306 35.7768 126.306 34.6174V21.1905C126.306 16.9422 123.58 14.8961 119.805 14.8961H119.807Z" fill="white"/>
<path d="M33.7946 47.0002C32.099 47.0002 30.8982 46.1429 30.2843 45.5683C28.957 44.3245 28.4173 42.7199 28.7242 40.9272C29.5759 35.9559 37.1553 30.3845 44.3319 26.9769C44.6376 25.06 44.5429 23.5194 43.9368 22.744C43.2884 21.9148 42.5429 21.5066 41.5889 21.4605C38.6669 21.3223 34.0555 24.3947 28.6142 30.1235C27.5541 31.2393 26.4109 32.5189 25.4032 33.6462C24.5886 34.5573 23.8852 35.3443 23.3763 35.8766C22.6985 36.5855 21.5757 36.6098 20.8673 35.9329C20.1588 35.2547 20.1345 34.1312 20.811 33.4223C21.2791 32.9335 21.9632 32.167 22.7573 31.2789C23.7829 30.1324 24.9441 28.8323 26.0426 27.6768C32.3854 21.0011 37.6694 17.7164 41.7616 17.9147C43.7386 18.0107 45.4586 18.9243 46.7348 20.5584C47.9279 22.0862 48.2374 24.3755 47.9305 26.9743C47.988 27.0601 48.0379 27.1522 48.0814 27.2495C48.4241 28.0326 48.1581 28.927 47.4906 29.4056C46.1581 34.9783 42.6171 41.2637 39.1004 44.4832C37.0159 46.3911 35.2295 47.0028 33.7972 47.0028L33.7946 47.0002ZM43.0685 31.6052C37.1643 34.8491 32.6808 38.8517 32.2217 41.5273C32.1181 42.1351 32.2588 42.5548 32.7089 42.9758C33.0478 43.2932 34.0811 44.2606 36.7014 41.86C39.383 39.4045 41.6759 35.3775 43.0685 31.6052Z" fill="white"/>
<path d="M56.1225 36.5048C53.9895 36.5048 52.1468 35.5886 50.7912 33.8521C49.8462 32.6429 49.4549 30.9564 49.4856 29.0165C48.1748 29.5155 46.8858 29.9416 45.6402 30.2871C44.6939 30.5482 43.7182 29.9941 43.4561 29.0498C43.1952 28.1041 43.7489 27.1265 44.6927 26.8642C46.1006 26.4752 47.5751 25.9685 49.0777 25.3619C49.4012 25.2301 49.7247 25.0958 50.047 24.9576C51.3872 19.3977 54.9179 13.1391 58.4257 9.92863C62.9782 5.76094 66.1061 7.77888 67.2391 8.84096C68.5896 10.1064 69.1241 11.7418 68.7826 13.5691C67.8824 18.4034 60.6623 23.8981 53.1903 27.4323C52.8846 29.3479 52.9805 30.8886 53.5867 31.664C54.2785 32.5495 55.0893 32.9474 56.1481 32.9513C61.7429 32.9129 70.9758 22.3612 74.0615 18.2998C74.6549 17.5192 75.7674 17.3669 76.5475 17.9607C77.3276 18.5531 77.4798 19.6677 76.8877 20.4482C75.6447 22.0849 64.5089 36.4446 56.1737 36.5035C56.1558 36.5035 56.1392 36.5035 56.1213 36.5035L56.1225 36.5048ZM63.725 10.9715C63.0958 10.9715 62.1687 11.3157 60.8209 12.5492C58.1405 15.0022 55.8502 19.024 54.4576 22.7938C60.2543 19.5909 64.7979 15.5844 65.2941 12.919C65.4105 12.2933 65.2711 11.8621 64.8133 11.4334C64.6483 11.2786 64.3196 10.9715 63.725 10.9715Z" fill="white"/>
<path d="M103.577 19.5846C103.259 17.106 102.326 15.1392 100.773 13.6843C98.8193 11.857 96.1172 10.9434 92.6644 10.9434C90.0505 10.9434 87.3459 11.3567 84.5504 12.1833C83.7499 12.4201 83.1949 13.1495 83.1949 13.9825C83.1949 15.2327 84.4047 16.1463 85.599 15.7714C86.1157 15.6089 86.6477 15.463 87.1963 15.3299C88.6439 14.9819 90.0812 14.8078 91.5122 14.8078C94.1619 14.8078 96.1594 15.3645 97.5021 16.479C98.8001 17.5577 99.465 19.0293 99.5072 20.8885C99.5085 20.9512 99.5149 21.0101 99.5149 21.0741V21.8572C99.5149 21.8572 99.5098 21.8572 99.5072 21.8559C97.1734 21.3351 94.8563 21.0741 92.5583 21.0741C89.4188 21.0741 86.7423 21.7446 84.5274 23.0843C82.3125 24.4241 81.2051 26.5751 81.2051 29.5323C81.2051 31.9699 82.0683 33.8318 83.7947 35.1203C85.521 36.4089 87.6042 37.0525 90.0454 37.0525C93.7936 37.0525 96.9458 36.0237 99.506 33.9725V34.6174C99.506 35.7768 100.445 36.716 101.603 36.716C102.762 36.716 103.7 35.7768 103.7 34.6174V21.5961C103.7 20.8911 103.657 20.2218 103.575 19.5859L103.577 19.5846ZM95.6197 32.5355C94.1031 33.1446 92.5416 33.4492 90.938 33.4492C89.438 33.4492 88.1566 33.0921 87.0927 32.3794C86.0287 31.6667 85.4967 30.6481 85.4967 29.325C85.4967 27.6193 86.2026 26.4011 87.6157 25.6704C89.0288 24.9398 90.8677 24.5738 93.135 24.5738C95.5724 24.5738 97.6977 24.7824 99.5085 25.1982C99.5111 25.1982 99.5136 25.1982 99.5162 25.1995V29.952C99.5162 29.952 99.5111 29.9571 99.5085 29.9597C98.4292 31.0704 97.1325 31.929 95.6197 32.5368V32.5355Z" fill="white"/>
</g>
</g>
<defs>
<clipPath id="clip0_452_893">
<rect width="130" height="47" fill="white" transform="translate(0.5)"/>
</clipPath>
</defs>
</svg>
