<svg width="140" height="58" viewBox="0 0 140 58" fill="none" xmlns="http://www.w3.org/2000/svg">
<g clip-path="url(#clip0_452_956)">
<path d="M16.7735 24.1581C16.7735 29.8054 16.7526 35.4632 16.7422 41.1105H12.434C12.434 31.918 12.4236 22.7358 12.4131 13.5537L28.4463 30.5898V13.9407H32.7962V41.1105L16.7631 24.1581H16.7735Z" fill="white"/>
<path d="M0.5 41.11C0.520863 34.1555 0.531296 27.2114 0.552158 20.2568L5.21502 25.2453C5.20458 30.537 5.19415 35.8287 5.19415 41.11H0.510432H0.5Z" fill="white"/>
<path d="M0.56219 13.062C0.56219 11.7652 0.56219 10.4789 0.56219 9.18212C8.11456 6.11792 15.6565 3.05373 23.1984 0C23.188 5.96105 23.1672 11.9326 23.1463 17.9041C21.5086 16.1471 19.8708 14.3902 18.2331 12.6333V7.35197L5.21462 12.5182C5.21462 14.3588 5.21462 16.1994 5.21462 18.0505L0.551758 13.062H0.56219Z" fill="white"/>
<path d="M62.8693 37.7431V18.4482H58.9575V40.9642H68.1372V37.7431H62.8693Z" fill="white"/>
<path d="M106.89 18.4482H102.978V40.9642H106.89V18.4482Z" fill="white"/>
<path d="M138.779 21.6378V18.4585H127.586V40.9641H138.779V37.743H131.498V31.1545H137.788V27.9753H131.498V21.6378H138.779Z" fill="white"/>
<path d="M54.556 35.7873C52.9287 37.1887 50.8424 37.9417 48.6935 37.9103C44.1662 37.9103 40.9951 35.118 40.9951 29.774C40.9951 24.43 44.1662 21.5122 48.7561 21.5122C51.5413 21.5122 53.0851 22.6312 54.4725 23.6352L56.4232 21.0939C54.1804 19.1278 51.6456 18.1343 48.4014 18.1343C41.6314 18.1343 37.0415 22.5371 37.0415 29.774C37.0415 37.0109 41.6314 41.2882 48.3701 41.2882C51.8334 41.2882 54.3369 40.1902 56.5171 38.2973L54.556 35.7873Z" fill="white"/>
<path d="M81.0303 18.4482V33.7273C81.0303 37.0425 79.33 37.6176 77.7861 37.6176C76.2423 37.6176 74.5524 37.0425 74.5524 33.7273V18.4482H70.6406V33.9573C70.6406 39.9079 74.229 41.2884 77.7861 41.2884C81.3433 41.2884 84.9734 39.9079 84.9734 33.9573V18.4482H81.0303Z" fill="white"/>
<path d="M91.6186 23.8965C91.6186 22.1187 93.006 21.282 94.8523 21.282C96.052 21.3134 97.2098 21.6794 98.2008 22.3487L99.7343 19.6506C98.1487 18.6152 96.2919 18.0923 94.4142 18.1342C90.6589 18.1342 87.9259 20.0689 87.9259 24.0848C87.9259 31.2903 96.3962 30.8093 96.3962 35.2121C96.3962 37.2618 95.0818 38.0775 93.3502 38.0775C91.8377 38.0357 90.346 37.6383 89.0212 36.9167L87.5503 39.8659C89.1463 40.8698 91.2013 41.2881 93.538 41.2881C96.9178 41.2881 100.12 39.458 100.12 35.0761C100.12 27.7451 91.6186 28.3307 91.6186 23.8965Z" fill="white"/>
<path d="M121.484 18.4482L117.927 28.9375C117.259 30.8409 117.259 31.3115 117.217 31.667C117.186 31.3115 117.186 30.8409 116.445 28.9061L112.888 18.4482H108.872L117.259 41.3198L125.469 18.4482H121.484Z" fill="white"/>
<path d="M21.3112 49.8115V52.6665H18.213V49.8115H17.1699V56.4209H18.213V53.545H21.3112V56.4209H22.3543V49.8115H21.3112Z" fill="white"/>
<path d="M56.7044 52.907L59.1349 49.8115H58.0605L56.0368 52.426V49.8115H54.9936V52.426L52.9595 49.8115H51.8642L54.2947 52.907L51.666 56.4209H52.8448L54.8789 53.6496L54.9936 53.7855V56.4209H56.0368V53.7751L56.1202 53.6496L58.1752 56.4209H59.3644L56.7044 52.907Z" fill="white"/>
<path d="M111.605 49.8115V50.6377H112.961V56.4209H113.994V50.6377H115.329V49.8115H111.605Z" fill="white"/>
<path d="M42.2781 52.6665C42.737 52.3423 43.0187 51.8194 43.0083 51.2547C43.0083 50.1252 42.0799 49.6128 40.8177 49.6128C40.2752 49.6128 39.7328 49.6651 39.1904 49.7697V56.3791C39.7328 56.4837 40.2752 56.536 40.8177 56.5465C42.4658 56.5465 43.5611 55.9817 43.5611 54.5385C43.6133 53.6914 43.0917 52.9175 42.2781 52.6665ZM40.2126 50.3972C40.4317 50.3449 40.6508 50.3135 40.8802 50.3135C40.922 50.303 40.9533 50.303 40.995 50.303C41.5583 50.3135 42.0068 50.7736 41.9964 51.3384V51.422C41.9651 52.0181 41.4644 52.4678 40.8802 52.4469H40.2126V50.3972ZM40.8802 55.8249C40.6508 55.8249 40.4317 55.8039 40.2126 55.7621V53.1267H40.995C41.9964 53.1267 42.4971 53.7123 42.4971 54.5176C42.4971 55.281 42.0381 55.8249 40.8802 55.8249Z" fill="white"/>
<path d="M30.2615 53.1476C30.2615 50.941 29.0931 49.6128 27.132 49.6128C25.1709 49.6128 23.9087 51.0769 23.9087 53.1476C23.9087 55.2183 25.0666 56.6197 27.3302 56.6301C28.2899 56.6197 29.2183 56.3687 30.0424 55.8771L29.6251 55.2601C28.9471 55.6262 28.196 55.8248 27.4345 55.8353C25.9115 55.8353 24.9623 54.9359 24.9623 53.4091H30.2406C30.2615 53.3254 30.2719 53.2313 30.2615 53.1476ZM24.9936 52.6665C25.1083 51.2338 25.9637 50.4494 27.132 50.4494C28.3003 50.4494 29.114 51.2129 29.2183 52.6665H24.9936Z" fill="white"/>
<path d="M73.5823 49.5498L71.5899 53.9317C71.5169 54.1513 71.4752 54.35 71.4126 54.5592C71.3917 54.3396 71.35 54.1304 71.2665 53.9317L69.2637 49.5498L67.3965 56.4207H68.4396L69.4723 52.5617C69.5036 52.4049 69.5349 52.248 69.5454 52.0807C69.5871 52.2375 69.6497 52.3944 69.7227 52.5408L71.4334 56.6194L73.1129 52.5826C73.1964 52.4258 73.2589 52.2584 73.3007 52.0807C73.3007 52.2584 73.3215 52.4362 73.3528 52.6036L74.396 56.4207H75.4391L73.5823 49.5498Z" fill="white"/>
<path d="M101.143 49.5498L99.1505 53.9317C99.067 54.1513 99.0253 54.35 98.9731 54.5592C98.9523 54.3396 98.9001 54.1304 98.8271 53.9317L96.8242 49.5498L94.957 56.4207H96.0002L97.0224 52.5617C97.0642 52.4049 97.085 52.2271 97.1059 52.0807C97.1476 52.2375 97.2102 52.3944 97.2832 52.5408L98.994 56.6194L100.673 52.5826C100.746 52.4258 100.809 52.2584 100.851 52.0807C100.861 52.2584 100.882 52.4362 100.913 52.6036L101.956 56.4207H103L101.143 49.5498Z" fill="white"/>
<path d="M107.371 49.6128C105.264 49.6128 104.001 50.9933 104.001 53.0849C104.001 55.1765 105.264 56.6197 107.371 56.6301C109.457 56.6301 110.719 55.1974 110.719 53.0849C110.719 50.9723 109.457 49.6128 107.371 49.6128ZM107.371 55.7621C105.869 55.7621 105.044 54.5594 105.044 53.0849C105.044 51.6103 105.869 50.4704 107.371 50.4704C108.873 50.4704 109.666 51.6207 109.666 53.0849C109.666 54.549 108.873 55.7621 107.371 55.7621Z" fill="white"/>
<path d="M46.0123 54.4549V49.7906H45.0317V56.7242L49.5485 51.8822V56.421H50.5291V49.6128L46.0123 54.4549Z" fill="white"/>
<path d="M61.5232 54.4549V49.7906H60.5322V56.7242L65.049 51.8822V56.421H66.0295V49.6128L61.5232 54.4549Z" fill="white"/>
<path d="M77.8386 54.4549V49.7906H76.8477V56.7242L81.3645 51.8822V56.421H82.345V49.6128L77.8386 54.4549Z" fill="white"/>
<path d="M89.0844 54.4548V49.7906H88.083V56.7242L92.6103 51.8822V56.4209H93.5908V49.6128L89.0844 54.4548Z" fill="white"/>
<path d="M117.604 54.4549V49.7906H116.613V56.7242L121.13 51.8822V56.421H122.11V49.6128L117.604 54.4549Z" fill="white"/>
<path d="M36.8013 55.5425V49.8115H32.5452C32.5452 51.8403 32.3679 53.8273 31.7837 55.5425H30.9492V58.0001H31.9924V56.4209H36.7283V58.0001H37.7714V55.5425H36.8013ZM35.7581 55.5425H32.7852C33.265 53.9738 33.5049 52.3319 33.4945 50.6899H35.7581V55.5425Z" fill="white"/>
</g>
<defs>
<clipPath id="clip0_452_956">
<rect width="139" height="58" fill="white" transform="translate(0.5)"/>
</clipPath>
</defs>
</svg>
