<svg width="128" height="42" viewBox="0 0 128 42" fill="none" xmlns="http://www.w3.org/2000/svg">
<g clip-path="url(#clip0_452_1014)">
<path d="M5.45331 25.5536C5.45331 25.5908 5.41838 31.3455 5.41838 35.2315C5.41838 39.1175 6.40293 40.6496 8.5816 40.6891C9.00292 40.6891 10.8301 40.5405 12.0614 38.9689C12.9761 37.8106 12.9761 36.7636 13.0459 34.6721C13.1507 31.2712 13.0459 27.4966 13.0459 27.1995L10.7275 26.4126V25.8902L15.7878 25.5536C15.7878 25.5908 15.6808 35.4938 15.7529 39.8279L18.283 40.5011V41.0234C18.1084 41.0234 13.3624 41.62 13.3624 41.62L13.1507 39.3032C12.236 40.2387 10.4808 41.808 7.98563 41.808C5.03417 41.808 2.74853 40.761 2.74853 36.2761V27.2343C2.74853 27.2343 0.5 26.336 0.5 26.3731V25.8508C0.604786 25.8508 5.31359 25.5513 5.45549 25.5513L5.45331 25.5536Z" fill="white"/>
<path d="M7.49593 18.4526C7.49593 19.3115 6.82792 20.0613 5.94816 20.0613C5.14044 20.0613 4.4375 19.3138 4.4375 18.4526C4.4375 17.5913 5.14044 16.8462 5.94816 16.8462C6.82792 16.8462 7.49593 17.5937 7.49593 18.4526Z" fill="white"/>
<path d="M13.6756 18.4526C13.6756 19.3115 12.9727 20.0613 12.1628 20.0613C11.2852 20.0613 10.6172 19.3138 10.6172 18.4526C10.6172 17.5913 11.2852 16.8462 12.1628 16.8462C12.9705 16.8462 13.6756 17.5937 13.6756 18.4526Z" fill="white"/>
<path d="M19.0156 1.08409V0.561775L24.3226 0C24.3226 0.113748 24.2178 28.8038 24.2178 28.8038C25.0255 26.4499 26.7829 25.2915 28.8218 25.2172C33.0023 25.0315 35.956 27.6477 35.9909 33.1401C36.0258 37.9964 32.7928 41.9219 28.5402 41.9591C24.6042 42.0333 22.3557 41.0259 21.5829 40.6521V1.79443L19.0178 1.08409H19.0156ZM24.3226 39.5657C25.0605 40.4641 26.8178 41.0978 28.4682 40.9864C31.6314 40.6103 32.8954 37.4741 33.0023 33.4001C33.1093 29.2518 31.8781 26.299 28.7847 26.3361C26.0101 26.3733 24.2178 29.4375 24.2178 33.5115C24.2178 39.64 24.3226 39.5657 24.3226 39.5657Z" fill="white"/>
<path d="M46.0025 25.2173C50.0782 25.3659 51.9076 29.1405 51.6609 32.9522H41.4355C41.2609 36.2045 41.8569 40.7265 46.0745 40.8008C47.5153 40.8379 49.0958 40.3899 51.3815 38.0732L51.9425 38.7092C50.5017 40.5408 48.8142 41.9615 46.0745 41.9986C41.0492 42.0729 38.3094 39.1201 38.519 32.9917C38.7657 28.0216 41.9289 25.0711 46.0046 25.2197L46.0025 25.2173ZM48.919 31.831C48.9539 29.1776 48.1113 26.2271 45.9326 26.0763C42.49 25.8905 41.5753 30.4474 41.4705 31.831H48.919Z" fill="white"/>
<path d="M54.1172 26.5613V26.039C54.1521 26.039 58.6863 25.4029 58.6863 25.4029L59.0377 27.9077C60.0223 26.299 61.3911 25.5538 62.166 25.4029C63.2554 25.1778 64.3796 25.1778 65.3293 26.0019L64.4517 28.6923C63.8186 27.534 63.1506 27.1231 62.3429 27.0117C60.1293 26.8979 59.1098 28.8038 59.1098 32.6155C59.1098 32.6526 59.1098 39.8652 59.1098 39.828L62.1682 40.7636V41.2859H54.2263V40.7636L56.512 39.7561C56.512 39.8304 56.512 27.2368 56.512 27.274L54.1216 26.5636L54.1172 26.5613Z" fill="white"/>
<path d="M66.8047 1.08409V0.561775L72.0069 0C72.0069 0 72.0069 39.8652 72.0069 39.828L74.4322 40.7635V41.2859H66.9815V40.7635C66.9815 40.7635 69.4069 39.828 69.3719 39.828C69.3719 39.8652 69.3719 1.75729 69.3719 1.79443L66.8069 1.08409H66.8047Z" fill="white"/>
<path d="M80.7545 25.5541C80.7545 25.5912 80.7196 31.346 80.7196 35.232C80.7196 39.118 81.7042 40.6501 83.8807 40.6895C84.3042 40.6895 86.1292 40.541 87.3604 38.9694C88.2729 37.811 88.2729 36.7641 88.345 34.6725C88.4497 31.2717 88.345 27.4971 88.345 27.2L86.0244 26.413V25.8907L91.0869 25.5541C91.0869 25.5912 90.9821 35.4943 91.0519 39.8283L93.5821 40.5015V41.0238C93.4074 41.0238 88.6593 41.6204 88.6593 41.6204L88.4476 39.3037C87.5351 40.2392 85.7755 41.8084 83.2803 41.8084C80.3289 41.8084 78.0454 40.7615 78.0454 36.2766V27.2348C78.0454 27.2348 75.7969 26.3364 75.7969 26.3735V25.8512C75.9017 25.8512 80.6126 25.5518 80.7524 25.5518L80.7545 25.5541Z" fill="white"/>
<path d="M94.5703 1.08409V0.561775L99.8773 0C99.8773 0.113748 99.7725 28.8038 99.7725 28.8038C100.58 26.4499 102.338 25.2915 104.377 25.2172C108.557 25.0315 111.511 27.6477 111.546 33.1401C111.583 37.9964 108.347 41.9219 104.097 41.9591C100.161 42.0333 97.9125 41.0259 97.1398 40.6521V1.79443L94.5747 1.08409H94.5703ZM99.8773 39.5657C100.615 40.4641 102.37 41.0978 104.023 40.9864C107.186 40.6103 108.45 37.4741 108.555 33.4001C108.66 29.2518 107.431 26.299 104.337 26.3361C101.56 26.3733 99.7703 29.4375 99.7703 33.5115C99.7703 39.64 99.8751 39.5657 99.8751 39.5657H99.8773Z" fill="white"/>
<path d="M121.559 25.2173C125.635 25.3659 127.462 29.1405 127.216 32.9522H116.99C116.816 36.2045 117.412 40.7265 121.629 40.8008C123.07 40.8379 124.653 40.3899 126.936 38.0732L127.497 38.7092C126.056 40.5408 124.369 41.9615 121.629 41.9986C116.604 42.0729 113.864 39.1201 114.074 32.9917C114.32 28.0216 117.481 25.0711 121.559 25.2197V25.2173ZM124.474 31.831C124.509 29.1776 123.666 26.2271 121.487 26.0763C118.042 25.8905 117.13 30.4474 117.025 31.831H124.474Z" fill="white"/>
</g>
<defs>
<clipPath id="clip0_452_1014">
<rect width="127" height="42" fill="white" transform="translate(0.5)"/>
</clipPath>
</defs>
</svg>
